<svg id="Layer_1" data-name="Layer 1" xmlns="http://www.w3.org/2000/svg" viewBox="0 0 600 240"><defs><style>.cls-1{fill:#909;}.cls-2{fill:#bc00c1;}</style></defs><title>96 SoM</title><path class="cls-1" d="M206.22,75.08c5.28-1.08,14.9-1.9,24.25-1.9,12.33,0,19.92,1.49,26.15,5.83a19.26,19.26,0,0,1,9.48,17.07c0,8.4-5.28,16.12-15.17,19.78v.27c9.62,2.44,18.43,10,18.43,22.63a23.7,23.7,0,0,1-8.81,18.83c-6.5,5.69-17.21,8.54-33.87,8.54a161.75,161.75,0,0,1-20.46-1.22Zm16.53,36h8.53c11.52,0,18-5.42,18-13.14,0-8.54-6.5-12.47-17.07-12.47a45,45,0,0,0-9.48.68Zm0,42a73.7,73.7,0,0,0,8.81.41c10.7,0,20.18-4.07,20.18-15.31,0-10.57-9.21-14.91-20.73-14.91h-8.26Z"/><path class="cls-1" d="M343.86,131.58c0,24.25-17.07,35.09-33.87,35.09-18.7,0-33.06-12.87-33.06-34,0-21.68,14.22-34.95,34.14-34.95C330.72,97.71,343.86,111.52,343.86,131.58Zm-49.73.67c0,12.74,6.24,22.36,16.4,22.36,9.48,0,16.12-9.35,16.12-22.63,0-10.29-4.61-22.08-16-22.08C298.88,109.9,294.13,121.28,294.13,132.25Z"/><path class="cls-1" d="M392.11,165.18,391,157.86h-.4c-4.07,5.15-11,8.81-19.52,8.81-13.27,0-20.72-9.62-20.72-19.65,0-16.66,14.76-25.06,39.15-24.93V121c0-4.34-1.76-11.52-13.41-11.52a34.91,34.91,0,0,0-17.75,4.88l-3.25-10.84c4.88-3,13.41-5.82,23.84-5.82,21.14,0,27.24,13.41,27.24,27.77v23.85a107,107,0,0,0,.94,15.85ZM390,132.93c-11.79-.27-23,2.3-23,12.33,0,6.5,4.2,9.49,9.49,9.49a13.51,13.51,0,0,0,13-9.08A12.21,12.21,0,0,0,390,142Z"/><path class="cls-1" d="M420.53,120.47c0-9-.14-15.31-.55-21.27h14.5l.54,12.6h.54c3.26-9.35,11-14.09,18-14.09a17.53,17.53,0,0,1,3.93.4v15.72a23.15,23.15,0,0,0-4.87-.54c-8,0-13.42,5.14-14.91,12.6a28.69,28.69,0,0,0-.54,5.15v34.14H420.53Z"/><path class="cls-1" d="M526.81,69v77.64c0,6.77.27,14.09.54,18.56h-14.9l-.68-10.43h-.27c-3.93,7.31-11.92,11.92-21.54,11.92-15.72,0-28.18-13.41-28.18-33.74-.14-22.08,13.68-35.22,29.53-35.22,9.08,0,15.59,3.79,18.57,8.67h.27V69ZM510.15,126.7a23.62,23.62,0,0,0-.41-4.34c-1.49-6.5-6.77-11.78-14.36-11.78-10.7,0-16.67,9.48-16.67,21.81,0,12.06,6,20.87,16.53,20.87a14.71,14.71,0,0,0,14.37-11.79,18.86,18.86,0,0,0,.54-4.88Z"/><path class="cls-1" d="M540.81,149.87a37.18,37.18,0,0,0,16.93,4.74c7.32,0,10.57-3,10.57-7.32s-2.71-6.77-10.84-9.62c-12.87-4.47-18.29-11.51-18.16-19.24,0-11.65,9.62-20.72,24.93-20.72a38.77,38.77,0,0,1,17.48,3.92l-3.25,11.79a29.68,29.68,0,0,0-14-3.79c-6,0-9.22,2.84-9.22,6.91s3.12,6.23,11.52,9.21c11.92,4.34,17.48,10.43,17.61,20.19,0,11.92-9.35,20.59-26.82,20.59-8,0-15.18-1.89-20.06-4.6Z"/><path class="cls-2" d="M161.51,80.09c-8.2-7.07-19-11.51-32-13.18h-4.23L164,20H127.62L96.49,57.79c-2.53,3.11-4.86,5.81-7,8.65a53.4,53.4,0,0,1,20.56,12.7A54.75,54.75,0,0,1,121.14,95c.63-.05,1.25-.13,1.89-.13a22.38,22.38,0,0,1,22.23,22.2,21.18,21.18,0,0,1-6.62,15.55,21.51,21.51,0,0,1-13.73,6.41,68.57,68.57,0,0,1-5,13.73,122.22,122.22,0,0,1-9.84,16,60.26,60.26,0,0,0,12.29,1.23c15.31,0,28.12-4.84,38.07-14.4,10.41-10.27,15.7-24.24,15.7-41.5C176.15,99.79,171.36,88.65,161.51,80.09Z"/><path class="cls-1" d="M86.17,120.72A16.52,16.52,0,0,0,81,108.51a16.72,16.72,0,0,0-10.34-5.09,61.11,61.11,0,0,0-1,11.15,64.58,64.58,0,0,0,3.86,22.91A17.25,17.25,0,0,0,81,132.94,16.54,16.54,0,0,0,86.17,120.72Z"/><path class="cls-1" d="M106.71,82.35C96.88,72.63,84.3,67.69,69.34,67.69c-15.31,0-28.11,4.89-38.06,14.53-10.42,10.16-15.71,24-15.71,41.28,0,14.44,4.78,25.56,14.63,34,8.2,7.07,19,11.51,32.06,13.18l4.22.52-1.92,2.95L27.75,220H64.1l31.13-38.92c9.74-12,16.62-22.31,20.45-30.07a63,63,0,0,0,6.45-27.69C122.13,106.51,116.94,92.63,106.71,82.35ZM84.3,136.29a21.85,21.85,0,0,1-31.24,0,21.67,21.67,0,0,1,0-31.14,21.85,21.85,0,0,1,31.24,0,21.64,21.64,0,0,1,0,31.14Z"/><path class="cls-1" d="M205.55,201.8a16,16,0,0,0,8.07,2.28c4.61,0,7.3-2.43,7.3-6,0-3.26-1.86-5.12-6.57-6.93-5.7-2-9.22-5-9.22-9.89,0-5.44,4.51-9.48,11.29-9.48a15.83,15.83,0,0,1,7.71,1.71l-1.24,3.68a13.92,13.92,0,0,0-6.63-1.66c-4.76,0-6.57,2.85-6.57,5.23,0,3.26,2.12,4.87,6.94,6.73,5.9,2.28,8.9,5.13,8.9,10.25,0,5.39-4,10.05-12.22,10.05a18,18,0,0,1-8.9-2.23Z"/><path class="cls-1" d="M254.52,194.55c0,9.27-6.42,13.31-12.48,13.31-6.78,0-12-5-12-12.89,0-8.39,5.49-13.31,12.43-13.31C249.65,181.66,254.52,186.89,254.52,194.55Zm-19.88.26c0,5.49,3.16,9.63,7.61,9.63s7.61-4.09,7.61-9.73c0-4.25-2.12-9.63-7.51-9.63S234.64,190.05,234.64,194.81Z"/><path class="cls-1" d="M289.83,192c-.26-4.86-.57-10.71-.52-15.06h-.16c-1.19,4.09-2.64,8.44-4.4,13.25l-6.16,16.93h-3.42l-5.64-16.62c-1.66-4.92-3-9.42-4-13.56h-.1c-.1,4.35-.36,10.2-.67,15.43l-.94,15h-4.29l2.43-34.9h5.75l5.95,16.88c1.45,4.3,2.64,8.13,3.52,11.76h.16c.88-3.53,2.12-7.36,3.67-11.76l6.22-16.88h5.74l2.18,34.9h-4.4Z"/><path class="cls-1" d="M331.08,190.93H317.52v12.58h15.11v3.78H313v-34.9h18.85v3.78H317.52v11h13.56Z"/><path class="cls-1" d="M359.76,170.53v30.29c0,2.22.05,4.76.21,6.47h-4.09l-.21-4.35h-.1a9.28,9.28,0,0,1-8.55,4.92c-6,0-10.71-5.13-10.71-12.74-.06-8.33,5.12-13.46,11.23-13.46,3.83,0,6.42,1.81,7.56,3.83h.1v-15Zm-4.56,21.9a8.21,8.21,0,0,0-.2-1.91,6.72,6.72,0,0,0-6.58-5.29c-4.71,0-7.51,4.15-7.51,9.69,0,5.07,2.49,9.26,7.41,9.26a6.86,6.86,0,0,0,6.68-5.43,8.28,8.28,0,0,0,.2-2Z"/><path class="cls-1" d="M372.39,175.19a2.82,2.82,0,0,1-5.64,0,2.78,2.78,0,0,1,2.84-2.85A2.71,2.71,0,0,1,372.39,175.19Zm-5.08,32.1V182.23h4.56v25.06Z"/><path class="cls-1" d="M384.92,175v7.19h6.52v3.47h-6.52v13.51c0,3.11.88,4.87,3.41,4.87a10.38,10.38,0,0,0,2.64-.31l.21,3.42a11.22,11.22,0,0,1-4,.62,6.34,6.34,0,0,1-4.92-1.92c-1.29-1.35-1.76-3.57-1.76-6.52V185.7h-3.88v-3.47h3.88v-6Z"/><path class="cls-1" d="M401.64,175.19a2.83,2.83,0,0,1-5.65,0,2.78,2.78,0,0,1,2.85-2.85A2.71,2.71,0,0,1,401.64,175.19Zm-5.08,32.1V182.23h4.56v25.06Z"/><path class="cls-1" d="M431.35,194.55c0,9.27-6.42,13.31-12.47,13.31-6.79,0-12-5-12-12.89,0-8.39,5.49-13.31,12.43-13.31C426.49,181.66,431.35,186.89,431.35,194.55Zm-19.88.26c0,5.49,3.16,9.63,7.61,9.63s7.61-4.09,7.61-9.73c0-4.25-2.12-9.63-7.5-9.63S411.47,190.05,411.47,194.81Z"/><path class="cls-1" d="M437.1,189c0-2.58-.06-4.71-.21-6.78h4l.26,4.14h.1a9.21,9.21,0,0,1,8.28-4.71c3.47,0,8.86,2.07,8.86,10.67v15h-4.56V192.85c0-4-1.5-7.41-5.8-7.41A6.48,6.48,0,0,0,442,190.1a6.77,6.77,0,0,0-.31,2.12v15.07H437.1Z"/></svg>