<svg id="Layer_1" data-name="Layer 1" xmlns="http://www.w3.org/2000/svg" viewBox="0 0 600 240"><defs><style>.cls-1{fill:gray;}</style></defs><title>96Boards-Logo</title><path class="cls-1" d="M204.43,74c5.38-1.1,15.19-1.93,24.71-1.93,12.56,0,20.3,1.52,26.65,5.94a19.63,19.63,0,0,1,9.66,17.4c0,8.56-5.38,16.43-15.46,20.16v0.28c9.8,2.49,18.78,10.22,18.78,23.06a24.15,24.15,0,0,1-9,19.19c-6.63,5.8-17.54,8.7-34.52,8.7a164.53,164.53,0,0,1-20.85-1.24V74Zm16.84,36.73H230c11.74,0,18.36-5.52,18.36-13.39,0-8.7-6.63-12.7-17.4-12.7a46.17,46.17,0,0,0-9.67.69v25.4Zm0,42.8a75,75,0,0,0,9,.41c10.91,0,20.57-4.14,20.57-15.6,0-10.77-9.39-15.19-21.12-15.19h-8.42v30.38Z"/><path class="cls-1" d="M344.69,131.56c0,24.71-17.4,35.76-34.52,35.76-19.05,0-33.69-13.12-33.69-34.66C276.49,110.57,291,97,311.28,97,331.3,97,344.69,111.12,344.69,131.56Zm-50.67.69c0,13,6.35,22.78,16.71,22.78,9.66,0,16.43-9.53,16.43-23.06,0-10.49-4.69-22.51-16.29-22.51C298.85,109.47,294,121.07,294,132.25Z"/><path class="cls-1" d="M393.87,165.8l-1.1-7.46h-0.41c-4.14,5.25-11.18,9-19.88,9-13.53,0-21.12-9.8-21.12-20,0-17,15.05-25.54,39.9-25.4v-1.1c0-4.42-1.79-11.74-13.67-11.74a35.61,35.61,0,0,0-18.09,5l-3.31-11c5-3,13.67-5.94,24.3-5.94,21.54,0,27.75,13.67,27.75,28.3v24.3a107.86,107.86,0,0,0,1,16.15H393.87Zm-2.21-32.86c-12-.28-23.47,2.35-23.47,12.56,0,6.63,4.28,9.67,9.66,9.67a13.76,13.76,0,0,0,13.26-9.25,12.23,12.23,0,0,0,.55-3.73v-9.25Z"/><path class="cls-1" d="M422.82,120.24c0-9.11-.14-15.6-0.55-21.68H437l0.55,12.84h0.55C441.46,101.87,449.33,97,456.51,97a17.84,17.84,0,0,1,4,.41v16a23.62,23.62,0,0,0-5-.55c-8.15,0-13.67,5.25-15.19,12.84a29.2,29.2,0,0,0-.55,5.25V165.8h-17V120.24Z"/><path class="cls-1" d="M531.14,67.77v79.11c0,6.9.28,14.36,0.55,18.92H516.5l-0.69-10.63h-0.28c-4,7.46-12.15,12.15-22,12.15-16,0-28.72-13.67-28.72-34.38C464.72,110.43,478.81,97,495,97c9.25,0,15.88,3.87,18.92,8.84h0.28V67.77h17Zm-17,58.82a24,24,0,0,0-.41-4.42c-1.52-6.63-6.9-12-14.64-12-10.91,0-17,9.67-17,22.23,0,12.29,6.08,21.26,16.85,21.26a15,15,0,0,0,14.64-12,19,19,0,0,0,.55-5V126.59Z"/><path class="cls-1" d="M545.4,150.2A37.88,37.88,0,0,0,562.66,155c7.46,0,10.77-3,10.77-7.46s-2.76-6.9-11-9.8c-13.12-4.56-18.64-11.74-18.5-19.61,0-11.87,9.8-21.12,25.4-21.12a39.49,39.49,0,0,1,17.81,4l-3.31,12a30.19,30.19,0,0,0-14.22-3.87c-6.07,0-9.39,2.9-9.39,7s3.18,6.35,11.74,9.39c12.15,4.42,17.81,10.63,17.95,20.57,0,12.15-9.53,21-27.34,21-8.15,0-15.46-1.93-20.43-4.69Z"/><path class="cls-1" d="M158.87,78.86c-8.35-7.21-19.35-11.73-32.67-13.44l-4.31,1.21L161.37,20h-37L92.61,57.32c-2.58,3.17-5,5.33-7.13,8.22a53.82,53.82,0,0,1,21,12.65,55.14,55.14,0,0,1,11.3,16.05c0.64-.05,1.27-0.2,1.93-0.2a21.93,21.93,0,0,1,15.91,6.58,22.15,22.15,0,0,1,0,31.82,22,22,0,0,1-14,6.53,70.35,70.35,0,0,1-5.08,14,124.88,124.88,0,0,1-10,16.32A61.31,61.31,0,0,0,119,170.53c15.6,0,28.65-4.94,38.79-14.67,10.61-10.46,16-24.7,16-42.29C173.79,98.93,168.91,87.58,158.87,78.86Z"/><path class="cls-1" d="M82.1,120.26a16.86,16.86,0,0,0-5.31-12.45,17,17,0,0,0-10.54-5.18,62.74,62.74,0,0,0-1,11.36,65.85,65.85,0,0,0,3.93,23.35,17.55,17.55,0,0,0,7.65-4.63A16.86,16.86,0,0,0,82.1,120.26Z"/><path class="cls-1" d="M103,81.16C93,71.25,80.19,66.22,64.94,66.22c-15.59,0-28.64,5-38.78,14.81-10.62,10.35-16,24.51-16,42.07,0,14.72,4.88,26,14.91,34.64,8.36,7.21,19.35,11.72,32.68,13.43l4.3,0.53-2,2.29L22.56,220h37l31.72-38.94c9.93-12.23,16.94-22.38,20.84-30.29a63.49,63.49,0,0,0,6.57-28C118.74,105.6,113.45,91.63,103,81.16Zm-22.84,55a22.26,22.26,0,0,1-31.83,0,22.07,22.07,0,0,1,0-31.73,22.26,22.26,0,0,1,31.83,0A22.06,22.06,0,0,1,80.19,136.13Z"/></svg>