<svg id="Layer_1" data-name="Layer 1" xmlns="http://www.w3.org/2000/svg" viewBox="0 0 600 240"><defs><style>.cls-1{fill:#c1272d;}.cls-2{fill:#e02f3d;}</style></defs><title>96Consumer</title><path class="cls-1" d="M206.22,75.08c5.28-1.08,14.9-1.9,24.25-1.9,12.33,0,19.92,1.49,26.15,5.83a19.26,19.26,0,0,1,9.48,17.07c0,8.4-5.28,16.12-15.17,19.78v.27c9.62,2.44,18.43,10,18.43,22.63a23.7,23.7,0,0,1-8.81,18.83c-6.5,5.69-17.21,8.54-33.87,8.54a161.75,161.75,0,0,1-20.46-1.22Zm16.53,36h8.53c11.52,0,18-5.42,18-13.14,0-8.54-6.5-12.47-17.07-12.47a45,45,0,0,0-9.48.68Zm0,42a73.7,73.7,0,0,0,8.81.41c10.7,0,20.18-4.07,20.18-15.31,0-10.57-9.21-14.91-20.73-14.91h-8.26Z"/><path class="cls-1" d="M343.86,131.58c0,24.25-17.07,35.09-33.87,35.09-18.7,0-33.06-12.87-33.06-34,0-21.68,14.22-34.95,34.14-34.95C330.72,97.71,343.86,111.52,343.86,131.58Zm-49.73.67c0,12.74,6.24,22.36,16.4,22.36,9.48,0,16.12-9.35,16.12-22.63,0-10.29-4.61-22.08-16-22.08C298.88,109.9,294.13,121.28,294.13,132.25Z"/><path class="cls-1" d="M392.11,165.18,391,157.86h-.4c-4.07,5.15-11,8.81-19.52,8.81-13.27,0-20.72-9.62-20.72-19.65,0-16.66,14.76-25.06,39.15-24.93V121c0-4.34-1.76-11.52-13.41-11.52a34.91,34.91,0,0,0-17.75,4.88l-3.25-10.84c4.88-3,13.41-5.82,23.84-5.82,21.14,0,27.24,13.41,27.24,27.77v23.85a107,107,0,0,0,.94,15.85ZM390,132.93c-11.79-.27-23,2.3-23,12.33,0,6.5,4.2,9.49,9.49,9.49a13.51,13.51,0,0,0,13-9.08A12.21,12.21,0,0,0,390,142Z"/><path class="cls-1" d="M420.53,120.47c0-9-.14-15.31-.55-21.27h14.5l.54,12.6h.54c3.26-9.35,11-14.09,18-14.09a17.53,17.53,0,0,1,3.93.4v15.72a23.15,23.15,0,0,0-4.87-.54c-8,0-13.42,5.14-14.91,12.6a28.69,28.69,0,0,0-.54,5.15v34.14H420.53Z"/><path class="cls-1" d="M526.81,69v77.64c0,6.77.27,14.09.54,18.56h-14.9l-.68-10.43h-.27c-3.93,7.31-11.92,11.92-21.54,11.92-15.72,0-28.18-13.41-28.18-33.74-.14-22.08,13.68-35.22,29.53-35.22,9.08,0,15.59,3.79,18.57,8.67h.27V69ZM510.15,126.7a23.62,23.62,0,0,0-.41-4.34c-1.49-6.5-6.77-11.78-14.36-11.78-10.7,0-16.67,9.48-16.67,21.81,0,12.06,6,20.87,16.53,20.87a14.71,14.71,0,0,0,14.37-11.79,18.86,18.86,0,0,0,.54-4.88Z"/><path class="cls-1" d="M540.81,149.87a37.18,37.18,0,0,0,16.93,4.74c7.32,0,10.57-3,10.57-7.32s-2.71-6.77-10.84-9.62c-12.87-4.47-18.29-11.51-18.16-19.24,0-11.65,9.62-20.72,24.93-20.72a38.77,38.77,0,0,1,17.48,3.92l-3.25,11.79a29.68,29.68,0,0,0-14-3.79c-6,0-9.22,2.84-9.22,6.91s3.12,6.23,11.52,9.21c11.92,4.34,17.48,10.43,17.61,20.19,0,11.92-9.35,20.59-26.82,20.59-8,0-15.18-1.89-20.06-4.6Z"/><path class="cls-2" d="M161.51,80.09c-8.2-7.07-19-11.51-32-13.18h-4.23L164,20H127.62L96.49,57.79c-2.53,3.11-4.86,5.81-7,8.65a53.4,53.4,0,0,1,20.56,12.7A54.75,54.75,0,0,1,121.14,95c.63-.05,1.25-.13,1.89-.13a22.38,22.38,0,0,1,22.23,22.2,21.18,21.18,0,0,1-6.62,15.55,21.51,21.51,0,0,1-13.73,6.41,68.57,68.57,0,0,1-5,13.73,122.22,122.22,0,0,1-9.84,16,60.26,60.26,0,0,0,12.29,1.23c15.31,0,28.12-4.84,38.07-14.4,10.41-10.27,15.7-24.24,15.7-41.5C176.15,99.79,171.36,88.65,161.51,80.09Z"/><path class="cls-2" d="M86.17,120.72A16.52,16.52,0,0,0,81,108.51a16.72,16.72,0,0,0-10.34-5.09,61.11,61.11,0,0,0-1,11.15,64.58,64.58,0,0,0,3.86,22.91A17.25,17.25,0,0,0,81,132.94,16.54,16.54,0,0,0,86.17,120.72Z"/><path class="cls-1" d="M106.71,82.35C96.88,72.63,84.3,67.69,69.34,67.69c-15.31,0-28.11,4.89-38.06,14.53-10.42,10.16-15.71,24-15.71,41.28,0,14.44,4.78,25.56,14.63,34,8.2,7.07,19,11.51,32.06,13.18l4.22.52-1.92,2.95L27.75,220H64.1l31.13-38.92c9.74-12,16.62-22.31,20.45-30.07a63,63,0,0,0,6.45-27.69C122.13,106.51,116.94,92.63,106.71,82.35ZM84.3,136.29a21.85,21.85,0,0,1-31.24,0,21.67,21.67,0,0,1,0-31.14,21.85,21.85,0,0,1,31.24,0,21.64,21.64,0,0,1,0,31.14Z"/><path class="cls-1" d="M230.55,206.15a22.28,22.28,0,0,1-9.21,1.66c-9.84,0-17.24-6.22-17.24-17.66,0-10.92,7.4-18.33,18.22-18.33a18.76,18.76,0,0,1,8.29,1.56l-1.09,3.67a16.53,16.53,0,0,0-7-1.45c-8.18,0-13.62,5.23-13.62,14.4,0,8.54,4.92,14,13.41,14a18,18,0,0,0,7.35-1.45Z"/><path class="cls-1" d="M258.14,194.55c0,9.27-6.42,13.31-12.47,13.31-6.79,0-12-5-12-12.89,0-8.39,5.48-13.31,12.42-13.31C253.28,181.66,258.14,186.89,258.14,194.55Zm-19.88.26c0,5.49,3.16,9.63,7.61,9.63s7.62-4.09,7.62-9.73c0-4.25-2.13-9.63-7.51-9.63S238.26,190.05,238.26,194.81Z"/><path class="cls-1" d="M263.89,189c0-2.58-.05-4.71-.21-6.78h4l.26,4.14h.1a9.21,9.21,0,0,1,8.29-4.71c3.46,0,8.85,2.07,8.85,10.67v15h-4.56V192.85c0-4-1.5-7.41-5.8-7.41a6.48,6.48,0,0,0-6.11,4.66,6.77,6.77,0,0,0-.31,2.12v15.07h-4.55Z"/><path class="cls-1" d="M292,202.63a11.89,11.89,0,0,0,6,1.81c3.32,0,4.87-1.65,4.87-3.73s-1.29-3.36-4.66-4.6c-4.5-1.61-6.63-4.09-6.63-7.1,0-4,3.26-7.35,8.65-7.35a12.59,12.59,0,0,1,6.16,1.55l-1.14,3.32a9.74,9.74,0,0,0-5.13-1.45c-2.69,0-4.19,1.55-4.19,3.42,0,2.07,1.5,3,4.77,4.24,4.34,1.66,6.57,3.83,6.57,7.56,0,4.4-3.42,7.51-9.37,7.51a14.36,14.36,0,0,1-7-1.71Z"/><path class="cls-1" d="M334.08,200.46c0,2.58.06,4.86.21,6.83h-4L330,203.2h-.11a9.42,9.42,0,0,1-8.28,4.66c-3.94,0-8.65-2.17-8.65-11V182.23h4.56v13.88c0,4.76,1.45,8,5.59,8a6.6,6.6,0,0,0,6-4.14,6.85,6.85,0,0,0,.41-2.33V182.23h4.55Z"/><path class="cls-1" d="M341.64,189c0-2.58-.05-4.71-.21-6.78h4l.21,4h.15a8.65,8.65,0,0,1,7.87-4.61,7.42,7.42,0,0,1,7.1,5h.1a10.41,10.41,0,0,1,2.79-3.26,8.57,8.57,0,0,1,5.54-1.76c3.32,0,8.24,2.18,8.24,10.88v14.75H373V193.1c0-4.81-1.76-7.71-5.43-7.71a5.9,5.9,0,0,0-5.39,4.14,7.73,7.73,0,0,0-.36,2.28v15.48h-4.45v-15c0-4-1.76-6.89-5.23-6.89-2.85,0-4.92,2.28-5.64,4.56a6.2,6.2,0,0,0-.37,2.22v15.12h-4.45Z"/><path class="cls-1" d="M387.35,195.59c.1,6.16,4,8.7,8.6,8.7a16.35,16.35,0,0,0,6.93-1.3l.78,3.26a20.22,20.22,0,0,1-8.34,1.56c-7.71,0-12.32-5.08-12.32-12.64s4.45-13.51,11.75-13.51c8.18,0,10.36,7.2,10.36,11.81a17.39,17.39,0,0,1-.16,2.12Zm13.36-3.26c.05-2.9-1.19-7.41-6.32-7.41-4.61,0-6.63,4.25-7,7.41Z"/><path class="cls-1" d="M410.75,190.05c0-3-.05-5.49-.21-7.82h4l.15,4.92h.21c1.14-3.36,3.88-5.49,6.94-5.49a4.6,4.6,0,0,1,1.29.16v4.3a6.42,6.42,0,0,0-1.55-.16c-3.21,0-5.49,2.43-6.11,5.85a13.23,13.23,0,0,0-.21,2.12v13.36h-4.5Z"/></svg>