<svg id="Layer_1" data-name="Layer 1" xmlns="http://www.w3.org/2000/svg" viewBox="0 0 600 240"><defs><style>.cls-1{fill:#39b54a;}.cls-2{fill:#a1cd41;}</style></defs><title>96Enterprise</title><path class="cls-1" d="M206.22,75c5.28-1.09,14.9-1.9,24.25-1.9,12.33,0,19.92,1.49,26.15,5.83A19.24,19.24,0,0,1,266.1,96c0,8.4-5.28,16.12-15.17,19.78V116c9.62,2.44,18.43,10,18.43,22.63a23.71,23.71,0,0,1-8.81,18.83c-6.5,5.69-17.21,8.53-33.87,8.53a162.21,162.21,0,0,1-20.46-1.21Zm16.53,36h8.53c11.52,0,18-5.42,18-13.15,0-8.53-6.5-12.46-17.07-12.46a45,45,0,0,0-9.48.68Zm0,42a74.08,74.08,0,0,0,8.81.4c10.7,0,20.18-4.06,20.18-15.31,0-10.56-9.21-14.9-20.73-14.9h-8.26Z"/><path class="cls-1" d="M343.86,131.47c0,24.25-17.07,35.09-33.87,35.09-18.7,0-33.06-12.87-33.06-34,0-21.68,14.22-35,34.14-35C330.72,97.59,343.86,111.41,343.86,131.47Zm-49.73.67c0,12.74,6.24,22.36,16.4,22.36,9.48,0,16.12-9.35,16.12-22.63,0-10.29-4.61-22.08-16-22.08C298.88,109.79,294.13,121.17,294.13,132.14Z"/><path class="cls-1" d="M392.11,165.07,391,157.75h-.4c-4.07,5.15-11,8.81-19.52,8.81-13.27,0-20.72-9.62-20.72-19.65,0-16.66,14.76-25.06,39.15-24.93V120.9c0-4.34-1.76-11.52-13.41-11.52a34.91,34.91,0,0,0-17.75,4.88l-3.25-10.84c4.88-3,13.41-5.83,23.84-5.83,21.14,0,27.24,13.42,27.24,27.78v23.84a107,107,0,0,0,.94,15.86ZM390,132.82c-11.79-.27-23,2.3-23,12.33,0,6.5,4.2,9.48,9.49,9.48a13.5,13.5,0,0,0,13-9.07,12.21,12.21,0,0,0,.54-3.66Z"/><path class="cls-1" d="M420.53,120.36c0-9-.14-15.31-.55-21.28h14.5l.54,12.6h.54c3.26-9.34,11-14.09,18-14.09a17.5,17.5,0,0,1,3.93.41v15.72a23.07,23.07,0,0,0-4.87-.55c-8,0-13.42,5.15-14.91,12.6a28.89,28.89,0,0,0-.54,5.15v34.15H420.53Z"/><path class="cls-1" d="M526.81,68.87V146.5c0,6.78.27,14.1.54,18.57h-14.9l-.68-10.44h-.27c-3.93,7.32-11.92,11.93-21.54,11.93-15.72,0-28.18-13.42-28.18-33.74-.14-22.08,13.68-35.23,29.53-35.23,9.08,0,15.59,3.8,18.57,8.68h.27V68.87Zm-16.66,57.72a23.62,23.62,0,0,0-.41-4.34c-1.49-6.5-6.77-11.79-14.36-11.79-10.7,0-16.67,9.49-16.67,21.82,0,12.06,6,20.86,16.53,20.86a14.7,14.7,0,0,0,14.37-11.78,18.86,18.86,0,0,0,.54-4.88Z"/><path class="cls-1" d="M540.81,149.76a37.18,37.18,0,0,0,16.93,4.74c7.32,0,10.57-3,10.57-7.32s-2.71-6.77-10.84-9.62c-12.87-4.47-18.29-11.51-18.16-19.24,0-11.65,9.62-20.73,24.93-20.73a38.76,38.76,0,0,1,17.48,3.93l-3.25,11.79a29.57,29.57,0,0,0-14-3.79c-6,0-9.22,2.84-9.22,6.91s3.12,6.23,11.52,9.21c11.92,4.34,17.48,10.43,17.61,20.19,0,11.92-9.35,20.59-26.82,20.59-8,0-15.18-1.9-20.06-4.61Z"/><path class="cls-2" d="M161.51,80.09c-8.2-7.07-19-11.51-32-13.18h-4.23L164,20H127.62L96.49,57.79c-2.53,3.11-4.86,5.81-7,8.65a53.4,53.4,0,0,1,20.56,12.7A54.75,54.75,0,0,1,121.14,95c.63-.05,1.25-.13,1.89-.13a22.38,22.38,0,0,1,22.23,22.2,21.18,21.18,0,0,1-6.62,15.55,21.51,21.51,0,0,1-13.73,6.41,68.57,68.57,0,0,1-5,13.73,122.22,122.22,0,0,1-9.84,16,60.26,60.26,0,0,0,12.29,1.23c15.31,0,28.12-4.84,38.07-14.4,10.41-10.27,15.7-24.24,15.7-41.5C176.15,99.79,171.36,88.65,161.51,80.09Z"/><path class="cls-2" d="M86.17,120.72A16.52,16.52,0,0,0,81,108.51a16.72,16.72,0,0,0-10.34-5.09,61.11,61.11,0,0,0-1,11.15,64.58,64.58,0,0,0,3.86,22.91A17.25,17.25,0,0,0,81,132.94,16.54,16.54,0,0,0,86.17,120.72Z"/><path class="cls-1" d="M106.71,82.35C96.88,72.63,84.3,67.69,69.34,67.69c-15.31,0-28.11,4.89-38.06,14.53-10.42,10.16-15.71,24-15.71,41.28,0,14.44,4.78,25.56,14.63,34,8.2,7.07,19,11.51,32.06,13.18l4.22.52-1.92,2.95L27.75,220H64.1l31.13-38.92c9.74-12,16.62-22.31,20.45-30.07a63,63,0,0,0,6.45-27.69C122.13,106.51,116.94,92.63,106.71,82.35ZM84.3,136.29a21.85,21.85,0,0,1-31.24,0,21.67,21.67,0,0,1,0-31.14,21.85,21.85,0,0,1,31.24,0,21.64,21.64,0,0,1,0,31.14Z"/><path class="cls-1" d="M224.24,190.82H210.67V203.4h15.12v3.78H206.17v-34.9H225v3.78H210.67v11h13.57Z"/><path class="cls-1" d="M231.48,188.9c0-2.59,0-4.71-.2-6.78h4l.26,4.14h.11a9.21,9.21,0,0,1,8.28-4.71c3.47,0,8.85,2.07,8.85,10.67v15h-4.55V192.73c0-4-1.5-7.4-5.8-7.4a6.68,6.68,0,0,0-6.42,6.78v15.07h-4.56Z"/><path class="cls-1" d="M265.49,174.92v7.2H272v3.47h-6.53V199.1c0,3.11.88,4.87,3.42,4.87a10.38,10.38,0,0,0,2.64-.31l.21,3.41a11,11,0,0,1-4,.63,6.34,6.34,0,0,1-4.92-1.92c-1.29-1.35-1.76-3.57-1.76-6.52V185.59h-3.88v-3.47H261v-6Z"/><path class="cls-1" d="M279.37,195.48c.1,6.16,4,8.7,8.59,8.7a16.41,16.41,0,0,0,6.94-1.3l.78,3.26a20.22,20.22,0,0,1-8.34,1.56c-7.72,0-12.32-5.08-12.32-12.64s4.45-13.51,11.75-13.51c8.18,0,10.35,7.2,10.35,11.8a17.86,17.86,0,0,1-.15,2.13Zm13.35-3.26c.06-2.9-1.19-7.41-6.31-7.41-4.61,0-6.63,4.25-7,7.41Z"/><path class="cls-1" d="M302.76,189.94c0-2.95-.05-5.49-.2-7.82h4l.16,4.92h.21c1.13-3.37,3.88-5.49,6.93-5.49a4.72,4.72,0,0,1,1.3.16V186a7.11,7.11,0,0,0-1.56-.15c-3.2,0-5.48,2.43-6.1,5.85a12.07,12.07,0,0,0-.21,2.12v13.36h-4.51Z"/><path class="cls-1" d="M319.9,190.3c0-3.21-.11-5.8-.21-8.18h4.09l.21,4.3h.1a9.86,9.86,0,0,1,8.91-4.87c6.05,0,10.61,5.13,10.61,12.74,0,9-5.49,13.46-11.39,13.46a8.78,8.78,0,0,1-7.71-3.94h-.11v13.62h-4.5Zm4.5,6.68a10.57,10.57,0,0,0,.21,1.86,7,7,0,0,0,6.84,5.34c4.81,0,7.6-3.94,7.6-9.69,0-5-2.64-9.32-7.45-9.32a7.27,7.27,0,0,0-6.89,5.65,7.62,7.62,0,0,0-.31,1.86Z"/><path class="cls-1" d="M349.35,189.94c0-2.95-.05-5.49-.2-7.82h4l.16,4.92h.2c1.14-3.37,3.89-5.49,6.94-5.49a4.72,4.72,0,0,1,1.3.16V186a7.18,7.18,0,0,0-1.56-.15c-3.21,0-5.48,2.43-6.11,5.85a13.18,13.18,0,0,0-.2,2.12v13.36h-4.51Z"/><path class="cls-1" d="M371.56,175.08a2.82,2.82,0,0,1-5.64,0,2.78,2.78,0,0,1,2.85-2.85A2.7,2.7,0,0,1,371.56,175.08Zm-5.07,32.1V182.12H371v25.06Z"/><path class="cls-1" d="M378,202.52a12,12,0,0,0,6,1.81c3.31,0,4.86-1.66,4.86-3.73s-1.29-3.36-4.66-4.6c-4.5-1.61-6.62-4.1-6.62-7.1,0-4,3.26-7.35,8.64-7.35a12.48,12.48,0,0,1,6.16,1.55l-1.14,3.32a9.73,9.73,0,0,0-5.12-1.45c-2.69,0-4.2,1.55-4.2,3.41,0,2.08,1.51,3,4.77,4.25,4.35,1.66,6.57,3.83,6.57,7.56,0,4.4-3.41,7.51-9.37,7.51a14.36,14.36,0,0,1-7-1.71Z"/><path class="cls-1" d="M401.64,195.48c.1,6.16,4,8.7,8.59,8.7a16.41,16.41,0,0,0,6.94-1.3l.78,3.26a20.22,20.22,0,0,1-8.34,1.56c-7.71,0-12.32-5.08-12.32-12.64s4.45-13.51,11.75-13.51c8.18,0,10.35,7.2,10.35,11.8a17.86,17.86,0,0,1-.15,2.13ZM415,192.22c.06-2.9-1.19-7.41-6.31-7.41-4.61,0-6.63,4.25-7,7.41Z"/></svg>