  0
SECTION
  2
HEADER
  9
$ACADVER
  1
AC1024
  9
$ACADMAINTVER
 70
     6
  9
$DWGCODEPAGE
  3
UNDEFINED
  9
$INSBASE
 10
0.0
 20
0.0
 30
0.0
  9
$EXTMIN
 10
1.000000000000000E+20
 20
1.000000000000000E+20
 30
1.000000000000000E+20
  9
$EXTMAX
 10
-1.000000000000000E+20
 20
-1.000000000000000E+20
 30
-1.000000000000000E+20
  9
$LIMMIN
 10
0.0
 20
0.0
  9
$LIMMAX
 10
12.0
 20
9.0
  9
$ORTHOMODE
 70
     0
  9
$REGENMODE
 70
     1
  9
$FILLMODE
 70
     1
  9
$QTEXTMODE
 70
     0
  9
$MIRRTEXT
 70
     1
  9
$LTSCALE
 40
1.0
  9
$ATTMODE
 70
     1
  9
$TEXTSIZE
 40
0.2
  9
$TRACEWID
 40
0.05
  9
$TEXTSTYLE
  7
Standard
  9
$CLAYER
  8
0
  9
$CELTYPE
  6
ByLayer
  9
$CECOLOR
 62
   256
  9
$CELTSCALE
 40
1.0
  9
$DISPSILH
 70
     0
  9
$DIMSCALE
 40
1.0
  9
$DIMASZ
 40
0.18
  9
$DIMEXO
 40
0.0625
  9
$DIMDLI
 40
0.38
  9
$DIMRND
 40
0.0
  9
$DIMDLE
 40
0.0
  9
$DIMEXE
 40
0.18
  9
$DIMTP
 40
0.0
  9
$DIMTM
 40
0.0
  9
$DIMTXT
 40
0.18
  9
$DIMCEN
 40
0.09
  9
$DIMTSZ
 40
0.0
  9
$DIMTOL
 70
     0
  9
$DIMLIM
 70
     0
  9
$DIMTIH
 70
     1
  9
$DIMTOH
 70
     1
  9
$DIMSE1
 70
     0
  9
$DIMSE2
 70
     0
  9
$DIMTAD
 70
     0
  9
$DIMZIN
 70
     0
  9
$DIMBLK
  1

  9
$DIMASO
 70
     1
  9
$DIMSHO
 70
     1
  9
$DIMPOST
  1

  9
$DIMAPOST
  1

  9
$DIMALT
 70
     0
  9
$DIMALTD
 70
     2
  9
$DIMALTF
 40
25.4
  9
$DIMLFAC
 40
1.0
  9
$DIMTOFL
 70
     0
  9
$DIMTVP
 40
0.0
  9
$DIMTIX
 70
     0
  9
$DIMSOXD
 70
     0
  9
$DIMSAH
 70
     0
  9
$DIMBLK1
  1

  9
$DIMBLK2
  1

  9
$DIMSTYLE
  2
Standard
  9
$DIMCLRD
 70
     0
  9
$DIMCLRE
 70
     0
  9
$DIMCLRT
 70
     0
  9
$DIMTFAC
 40
1.0
  9
$DIMGAP
 40
0.09
  9
$DIMJUST
 70
     0
  9
$DIMSD1
 70
     0
  9
$DIMSD2
 70
     0
  9
$DIMTOLJ
 70
     1
  9
$DIMTZIN
 70
     0
  9
$DIMALTZ
 70
     0
  9
$DIMALTTZ
 70
     0
  9
$DIMUPT
 70
     0
  9
$DIMDEC
 70
     4
  9
$DIMTDEC
 70
     4
  9
$DIMALTU
 70
     2
  9
$DIMALTTD
 70
     2
  9
$DIMTXSTY
  7
Standard
  9
$DIMAUNIT
 70
     0
  9
$DIMADEC
 70
     0
  9
$DIMALTRND
 40
0.0
  9
$DIMAZIN
 70
     0
  9
$DIMDSEP
 70
    46
  9
$DIMATFIT
 70
     3
  9
$DIMFRAC
 70
     0
  9
$DIMLDRBLK
  1

  9
$DIMLUNIT
 70
     2
  9
$DIMLWD
 70
    -2
  9
$DIMLWE
 70
    -2
  9
$DIMTMOVE
 70
     0
  9
$DIMFXL
 40
1.0
  9
$DIMFXLON
 70
     0
  9
$DIMJOGANG
 40
0.7853981633974483
  9
$DIMTFILL
 70
     0
  9
$DIMTFILLCLR
 70
     0
  9
$DIMARCSYM
 70
     0
  9
$DIMLTYPE
  6

  9
$DIMLTEX1
  6

  9
$DIMLTEX2
  6

  9
$DIMTXTDIRECTION
 70
     0
  9
$LUNITS
 70
     2
  9
$LUPREC
 70
     4
  9
$SKETCHINC
 40
0.1
  9
$FILLETRAD
 40
0.5
  9
$AUNITS
 70
     0
  9
$AUPREC
 70
     0
  9
$MENU
  1
.
  9
$ELEVATION
 40
0.0
  9
$PELEVATION
 40
0.0
  9
$THICKNESS
 40
0.0
  9
$LIMCHECK
 70
     0
  9
$CHAMFERA
 40
0.5
  9
$CHAMFERB
 40
0.5
  9
$CHAMFERC
 40
1.0
  9
$CHAMFERD
 40
0.0
  9
$SKPOLY
 70
     0
  9
$TDCREATE
 40
2456980.684432859
  9
$TDUCREATE
 40
2456980.68443287
  9
$TDUPDATE
 40
2456980.684432859
  9
$TDUUPDATE
 40
2456980.68443287
  9
$TDINDWG
 40
0.0000000116
  9
$TDUSRTIMER
 40
0.0000000116
  9
$USRTIMER
 70
     1
  9
$ANGBASE
 50
0.0
  9
$ANGDIR
 70
     0
  9
$PDMODE
 70
     0
  9
$PDSIZE
 40
0.0
  9
$PLINEWID
 40
0.0
  9
$SPLFRAME
 70
     0
  9
$SPLINETYPE
 70
     6
  9
$SPLINESEGS
 70
     8
  9
$HANDSEED
  5
CA
  9
$SURFTAB1
 70
     6
  9
$SURFTAB2
 70
     6
  9
$SURFTYPE
 70
     6
  9
$SURFU
 70
     6
  9
$SURFV
 70
     6
  9
$UCSBASE
  2

  9
$UCSNAME
  2

  9
$UCSORG
 10
0.0
 20
0.0
 30
0.0
  9
$UCSXDIR
 10
1.0
 20
0.0
 30
0.0
  9
$UCSYDIR
 10
0.0
 20
1.0
 30
0.0
  9
$UCSORTHOREF
  2

  9
$UCSORTHOVIEW
 70
     0
  9
$UCSORGTOP
 10
0.0
 20
0.0
 30
0.0
  9
$UCSORGBOTTOM
 10
0.0
 20
0.0
 30
0.0
  9
$UCSORGLEFT
 10
0.0
 20
0.0
 30
0.0
  9
$UCSORGRIGHT
 10
0.0
 20
0.0
 30
0.0
  9
$UCSORGFRONT
 10
0.0
 20
0.0
 30
0.0
  9
$UCSORGBACK
 10
0.0
 20
0.0
 30
0.0
  9
$PUCSBASE
  2

  9
$PUCSNAME
  2

  9
$PUCSORG
 10
0.0
 20
0.0
 30
0.0
  9
$PUCSXDIR
 10
1.0
 20
0.0
 30
0.0
  9
$PUCSYDIR
 10
0.0
 20
1.0
 30
0.0
  9
$PUCSORTHOREF
  2

  9
$PUCSORTHOVIEW
 70
     0
  9
$PUCSORGTOP
 10
0.0
 20
0.0
 30
0.0
  9
$PUCSORGBOTTOM
 10
0.0
 20
0.0
 30
0.0
  9
$PUCSORGLEFT
 10
0.0
 20
0.0
 30
0.0
  9
$PUCSORGRIGHT
 10
0.0
 20
0.0
 30
0.0
  9
$PUCSORGFRONT
 10
0.0
 20
0.0
 30
0.0
  9
$PUCSORGBACK
 10
0.0
 20
0.0
 30
0.0
  9
$USERI1
 70
     0
  9
$USERI2
 70
     0
  9
$USERI3
 70
     0
  9
$USERI4
 70
     0
  9
$USERI5
 70
     0
  9
$USERR1
 40
0.0
  9
$USERR2
 40
0.0
  9
$USERR3
 40
0.0
  9
$USERR4
 40
0.0
  9
$USERR5
 40
0.0
  9
$WORLDVIEW
 70
     1
  9
$SHADEDGE
 70
     3
  9
$SHADEDIF
 70
    70
  9
$TILEMODE
 70
     1
  9
$MAXACTVP
 70
    64
  9
$PINSBASE
 10
0.0
 20
0.0
 30
0.0
  9
$PLIMCHECK
 70
     0
  9
$PEXTMIN
 10
1.000000000000000E+20
 20
1.000000000000000E+20
 30
1.000000000000000E+20
  9
$PEXTMAX
 10
-1.000000000000000E+20
 20
-1.000000000000000E+20
 30
-1.000000000000000E+20
  9
$PLIMMIN
 10
0.0
 20
0.0
  9
$PLIMMAX
 10
12.0
 20
9.0
  9
$UNITMODE
 70
     0
  9
$VISRETAIN
 70
     1
  9
$PLINEGEN
 70
     0
  9
$PSLTSCALE
 70
     1
  9
$TREEDEPTH
 70
  3020
  9
$CMLSTYLE
  2
Standard
  9
$CMLJUST
 70
     0
  9
$CMLSCALE
 40
1.0
  9
$PROXYGRAPHICS
 70
     1
  9
$MEASUREMENT
 70
     0
  9
$CELWEIGHT
370
    -1
  9
$ENDCAPS
280
     0
  9
$JOINSTYLE
280
     0
  9
$LWDISPLAY
290
     1
  9
$INSUNITS
 70
     1
  9
$HYPERLINKBASE
  1

  9
$STYLESHEET
  1

  9
$XEDIT
290
     1
  9
$CEPSNTYPE
380
     0
  9
$PSTYLEMODE
290
     1
  9
$FINGERPRINTGUID
  2
{A3F3CB1F-A739-74D2-5D8F-9FA9080D65EE}
  9
$VERSIONGUID
  2
{FAEB1C32-E019-11D5-929B-00C0DF256EC4}
  9
$EXTNAMES
290
     1
  9
$PSVPSCALE
 40
0.0
  9
$OLESTARTUP
290
     0
  9
$SORTENTS
280
   127
  9
$INDEXCTL
280
     0
  9
$HIDETEXT
280
     1
  9
$XCLIPFRAME
280
     2
  9
$HALOGAP
280
     0
  9
$OBSCOLOR
 70
   257
  9
$OBSLTYPE
280
     0
  9
$INTERSECTIONDISPLAY
280
     0
  9
$INTERSECTIONCOLOR
 70
   257
  9
$DIMASSOC
280
     2
  9
$PROJECTNAME
  1

  9
$CAMERADISPLAY
290
     0
  9
$LENSLENGTH
 40
50.0
  9
$CAMERAHEIGHT
 40
0.0
  9
$STEPSPERSEC
 40
2.0
  9
$STEPSIZE
 40
6.0
  9
$3DDWFPREC
 40
2.0
  9
$PSOLWIDTH
 40
0.25
  9
$PSOLHEIGHT
 40
4.0
  9
$LOFTANG1
 40
1.570796326794897
  9
$LOFTANG2
 40
1.570796326794897
  9
$LOFTMAG1
 40
0.0
  9
$LOFTMAG2
 40
0.0
  9
$LOFTPARAM
 70
     7
  9
$LOFTNORMALS
280
     1
  9
$LATITUDE
 40
37.795
  9
$LONGITUDE
 40
-122.394
  9
$NORTHDIRECTION
 40
0.0
  9
$TIMEZONE
 70
 -8000
  9
$LIGHTGLYPHDISPLAY
280
     1
  9
$TILEMODELIGHTSYNCH
280
     1
  9
$CMATERIAL
347
3C
  9
$SOLIDHIST
280
     1
  9
$SHOWHIST
280
     1
  9
$DWFFRAME
280
     2
  9
$DGNFRAME
280
     2
  9
$REALWORLDSCALE
290
     1
  9
$INTERFERECOLOR
 62
   256
  9
$CSHADOW
280
     0
  9
$SHADOWPLANELOCATION
 40
0.0
  0
ENDSEC
  0
SECTION
  2
CLASSES
  0
CLASS
  1
ACDBDICTIONARYWDFLT
  2
AcDbDictionaryWithDefault
  3
ObjectDBX Classes
 90
        0
 91
        4
280
     0
281
     0
  0
CLASS
  1
VISUALSTYLE
  2
AcDbVisualStyle
  3
ObjectDBX Classes
 90
     4095
 91
        4
280
     0
281
     0
  0
CLASS
  1
MATERIAL
  2
AcDbMaterial
  3
ObjectDBX Classes
 90
     1153
 91
        4
280
     0
281
     0
  0
CLASS
  1
SUN
  2
AcDbSun
  3
SCENEOE
 90
     1024
 91
        4
280
     0
281
     0
  0
ENDSEC
  0
SECTION
  2
TABLES
  0
TABLE
  2
VPORT
  5
8
330
0
100
AcDbSymbolTable
 70
     1
  0
VPORT
  5
29
330
8
100
AcDbSymbolTableRecord
100
AcDbViewportTableRecord
  2
*Active
 70
     0
 10
0.0
 20
0.0
 11
1.0
 21
1.0
 12
0.0
 22
0.0
 13
0.0
 23
0.0
 14
0.5
 24
0.5
 15
0.5
 25
0.5
 16
0.0
 26
0.0
 36
1.0
 17
105.1277777514955
 27
148.2842592221884
 37
0.0
 40
62.79444442874585
 41
2.749063670411988
 42
50.0
 43
0.0
 44
0.0
 50
0.0
 51
0.0
 71
     0
 72
   100
 73
     1
 74
     3
 75
     0
 76
     0
 77
     0
 78
     0
281
     0
 65
     1
110
0.0
120
0.0
130
0.0
111
1.0
121
0.0
131
0.0
112
0.0
122
1.0
132
0.0
 79
     0
146
0.0
 60
     3
 61
     5
292
     1
282
     1
141
0.0
142
0.0
 63
   250
361
3F
  0
ENDTAB
  0
TABLE
  2
LTYPE
  5
5
330
0
100
AcDbSymbolTable
 70
     1
  0
LTYPE
  5
14
330
5
100
AcDbSymbolTableRecord
100
AcDbLinetypeTableRecord
  2
ByBlock
 70
     0
  3

 72
    65
 73
     0
 40
0.0
  0
LTYPE
  5
15
330
5
100
AcDbSymbolTableRecord
100
AcDbLinetypeTableRecord
  2
ByLayer
 70
     0
  3

 72
    65
 73
     0
 40
0.0
  0
LTYPE
  5
16
330
5
100
AcDbSymbolTableRecord
100
AcDbLinetypeTableRecord
  2
Continuous
 70
     0
  3
Solid line
 72
    65
 73
     0
 40
0.0
  0
ENDTAB
  0
TABLE
  2
LAYER
  5
2
330
0
100
AcDbSymbolTable
 70
     2
  0
LAYER
  5
10
330
2
100
AcDbSymbolTableRecord
100
AcDbLayerTableRecord
  2
0
 70
     0
 62
     7
  6
Continuous
370
    -3
390
F
347
3E
  0
LAYER
  5
40
330
2
100
AcDbSymbolTableRecord
100
AcDbLayerTableRecord
  2
Layer 1
 70
     0
 62
     7
  6
Continuous
370
    -3
390
F
347
3E
  0
ENDTAB
  0
TABLE
  2
STYLE
  5
3
330
0
100
AcDbSymbolTable
 70
     1
  0
STYLE
  5
11
330
3
100
AcDbSymbolTableRecord
100
AcDbTextStyleTableRecord
  2
Standard
 70
     0
 40
0.0
 41
1.0
 50
0.0
 71
     0
 42
0.2
  3
txt
  4

  0
ENDTAB
  0
TABLE
  2
VIEW
  5
6
330
0
100
AcDbSymbolTable
 70
     0
  0
ENDTAB
  0
TABLE
  2
UCS
  5
7
330
0
100
AcDbSymbolTable
 70
     0
  0
ENDTAB
  0
TABLE
  2
APPID
  5
9
330
0
100
AcDbSymbolTable
 70
     1
  0
APPID
  5
12
330
9
100
AcDbSymbolTableRecord
100
AcDbRegAppTableRecord
  2
ACAD
 70
     0
  0
ENDTAB
  0
TABLE
  2
DIMSTYLE
  5
A
330
0
100
AcDbSymbolTable
 70
     1
100
AcDbDimStyleTable
  0
DIMSTYLE
105
27
330
A
100
AcDbSymbolTableRecord
100
AcDbDimStyleTableRecord
  2
Standard
 70
     0
178
     0
340
11
  0
ENDTAB
  0
TABLE
  2
BLOCK_RECORD
  5
1
330
0
100
AcDbSymbolTable
 70
    25
  0
BLOCK_RECORD
  5
1F
330
1
100
AcDbSymbolTableRecord
100
AcDbBlockTableRecord
  2
*Model_Space
340
22
 70
     0
280
     1
281
     0
  0
BLOCK_RECORD
  5
1B
330
1
100
AcDbSymbolTableRecord
100
AcDbBlockTableRecord
  2
*Paper_Space
340
1E
 70
     0
280
     1
281
     0
  0
BLOCK_RECORD
  5
23
330
1
100
AcDbSymbolTableRecord
100
AcDbBlockTableRecord
  2
*Paper_Space0
340
26
 70
     0
280
     1
281
     0
  0
BLOCK_RECORD
  5
41
330
1
100
AcDbSymbolTableRecord
100
AcDbBlockTableRecord
  2
block 2
340
0
102
{BLKREFS
331
42
102
}
 70
     0
280
     1
281
     0
  0
BLOCK_RECORD
  5
46
330
1
100
AcDbSymbolTableRecord
100
AcDbBlockTableRecord
  2
block 3
340
0
102
{BLKREFS
331
47
102
}
 70
     0
280
     1
281
     0
  0
BLOCK_RECORD
  5
4B
330
1
100
AcDbSymbolTableRecord
100
AcDbBlockTableRecord
  2
block 4
340
0
102
{BLKREFS
331
4C
102
}
 70
     0
280
     1
281
     0
  0
BLOCK_RECORD
  5
50
330
1
100
AcDbSymbolTableRecord
100
AcDbBlockTableRecord
  2
block 5
340
0
102
{BLKREFS
331
51
102
}
 70
     0
280
     1
281
     0
  0
BLOCK_RECORD
  5
58
330
1
100
AcDbSymbolTableRecord
100
AcDbBlockTableRecord
  2
block 6
340
0
102
{BLKREFS
331
59
102
}
 70
     0
280
     1
281
     0
  0
BLOCK_RECORD
  5
5D
330
1
100
AcDbSymbolTableRecord
100
AcDbBlockTableRecord
  2
block 7
340
0
102
{BLKREFS
331
5E
102
}
 70
     0
280
     1
281
     0
  0
BLOCK_RECORD
  5
62
330
1
100
AcDbSymbolTableRecord
100
AcDbBlockTableRecord
  2
block 8
340
0
102
{BLKREFS
331
63
102
}
 70
     0
280
     1
281
     0
  0
BLOCK_RECORD
  5
69
330
1
100
AcDbSymbolTableRecord
100
AcDbBlockTableRecord
  2
block 9
340
0
102
{BLKREFS
331
6A
102
}
 70
     0
280
     1
281
     0
  0
BLOCK_RECORD
  5
6E
330
1
100
AcDbSymbolTableRecord
100
AcDbBlockTableRecord
  2
block 10
340
0
102
{BLKREFS
331
6F
102
}
 70
     0
280
     1
281
     0
  0
BLOCK_RECORD
  5
73
330
1
100
AcDbSymbolTableRecord
100
AcDbBlockTableRecord
  2
block 11
340
0
102
{BLKREFS
331
74
102
}
 70
     0
280
     1
281
     0
  0
BLOCK_RECORD
  5
7A
330
1
100
AcDbSymbolTableRecord
100
AcDbBlockTableRecord
  2
block 12
340
0
102
{BLKREFS
331
7B
102
}
 70
     0
280
     1
281
     0
  0
BLOCK_RECORD
  5
7F
330
1
100
AcDbSymbolTableRecord
100
AcDbBlockTableRecord
  2
block 13
340
0
102
{BLKREFS
331
80
102
}
 70
     0
280
     1
281
     0
  0
BLOCK_RECORD
  5
85
330
1
100
AcDbSymbolTableRecord
100
AcDbBlockTableRecord
  2
block 14
340
0
102
{BLKREFS
331
86
102
}
 70
     0
280
     1
281
     0
  0
BLOCK_RECORD
  5
8A
330
1
100
AcDbSymbolTableRecord
100
AcDbBlockTableRecord
  2
block 15
340
0
102
{BLKREFS
331
8B
102
}
 70
     0
280
     1
281
     0
  0
BLOCK_RECORD
  5
8F
330
1
100
AcDbSymbolTableRecord
100
AcDbBlockTableRecord
  2
block 16
340
0
102
{BLKREFS
331
90
102
}
 70
     0
280
     1
281
     0
  0
BLOCK_RECORD
  5
96
330
1
100
AcDbSymbolTableRecord
100
AcDbBlockTableRecord
  2
block 17
340
0
102
{BLKREFS
331
97
102
}
 70
     0
280
     1
281
     0
  0
BLOCK_RECORD
  5
9B
330
1
100
AcDbSymbolTableRecord
100
AcDbBlockTableRecord
  2
block 18
340
0
102
{BLKREFS
331
9C
102
}
 70
     0
280
     1
281
     0
  0
BLOCK_RECORD
  5
A1
330
1
100
AcDbSymbolTableRecord
100
AcDbBlockTableRecord
  2
block 19
340
0
102
{BLKREFS
331
A2
102
}
 70
     0
280
     1
281
     0
  0
BLOCK_RECORD
  5
A6
330
1
100
AcDbSymbolTableRecord
100
AcDbBlockTableRecord
  2
block 20
340
0
102
{BLKREFS
331
A7
102
}
 70
     0
280
     1
281
     0
  0
BLOCK_RECORD
  5
AC
330
1
100
AcDbSymbolTableRecord
100
AcDbBlockTableRecord
  2
block 21
340
0
102
{BLKREFS
331
AD
102
}
 70
     0
280
     1
281
     0
  0
BLOCK_RECORD
  5
B1
330
1
100
AcDbSymbolTableRecord
100
AcDbBlockTableRecord
  2
block 22
340
0
102
{BLKREFS
331
B2
102
}
 70
     0
280
     1
281
     0
  0
BLOCK_RECORD
  5
B7
330
1
100
AcDbSymbolTableRecord
100
AcDbBlockTableRecord
  2
block 23
340
0
102
{BLKREFS
331
B8
102
}
 70
     0
280
     1
281
     0
  0
BLOCK_RECORD
  5
BC
330
1
100
AcDbSymbolTableRecord
100
AcDbBlockTableRecord
  2
block 24
340
0
102
{BLKREFS
331
BD
102
}
 70
     0
280
     1
281
     0
  0
BLOCK_RECORD
  5
C1
330
1
100
AcDbSymbolTableRecord
100
AcDbBlockTableRecord
  2
block 25
340
0
102
{BLKREFS
331
C2
102
}
 70
     0
280
     1
281
     0
  0
ENDTAB
  0
ENDSEC
  0
SECTION
  2
BLOCKS
  0
BLOCK
  5
20
330
1F
100
AcDbEntity
  8
0
100
AcDbBlockBegin
  2
*Model_Space
 70
     0
 10
0.0
 20
0.0
 30
0.0
  3
*Model_Space
  1

  0
ENDBLK
  5
21
330
1F
100
AcDbEntity
  8
0
100
AcDbBlockEnd
  0
BLOCK
  5
1C
330
1B
100
AcDbEntity
 67
     1
  8
0
100
AcDbBlockBegin
  2
*Paper_Space
 70
     0
 10
0.0
 20
0.0
 30
0.0
  3
*Paper_Space
  1

  0
ENDBLK
  5
1D
330
1B
100
AcDbEntity
 67
     1
  8
0
100
AcDbBlockEnd
  0
BLOCK
  5
24
330
23
100
AcDbEntity
  8
0
100
AcDbBlockBegin
  2
*Paper_Space0
 70
     0
 10
0.0
 20
0.0
 30
0.0
  3
*Paper_Space0
  1

  0
ENDBLK
  5
25
330
23
100
AcDbEntity
  8
0
100
AcDbBlockEnd
  0
BLOCK
  5
43
330
41
100
AcDbEntity
  8
0
100
AcDbBlockBegin
  2
block 2
 70
     0
 10
0.0
 20
0.0
 30
0.0
  3
block 2
  1

  0
SPLINE
  5
45
330
41
100
AcDbEntity
  8
Layer 1
370
     0
100
AcDbSpline
210
0.0
220
0.0
230
1.0
 70
    11
 71
     3
 72
    35
 73
    31
 74
     0
 42
0.0000000001
 43
0.0000000001
 12
1.0
 22
0.0
 32
0.0
 13
1.0
 23
0.0
 33
0.0
 40
0.0
 40
0.0
 40
0.0
 40
0.0
 40
1.0
 40
1.0
 40
1.0
 40
2.0
 40
2.0
 40
2.0
 40
3.0
 40
3.0
 40
3.0
 40
4.0
 40
4.0
 40
4.0
 40
5.0
 40
5.0
 40
5.0
 40
6.0
 40
6.0
 40
6.0
 40
7.0
 40
7.0
 40
7.0
 40
8.0
 40
8.0
 40
8.0
 40
9.0
 40
9.0
 40
9.0
 40
10.0
 40
10.0
 40
10.0
 40
10.0
 10
77.11474034300645
 20
162.1028681535246
 30
0.0
 10
78.68983799886267
 20
162.4258458552667
 30
0.0
 10
81.55753548078464
 20
162.668208322654
 30
0.0
 10
84.34427321880324
 20
162.668208322654
 30
0.0
 10
88.01950108246776
 20
162.668208322654
 30
0.0
 10
90.28120626853428
 20
162.2239632598311
 30
0.0
 10
92.13914626372951
 20
160.9315356885396
 30
0.0
 10
93.83551128066654
 20
159.9217782018129
 30
0.0
 10
94.96619161892554
 20
158.144797950521
 30
0.0
 10
94.96619161892554
 20
155.8426128925028
 30
0.0
 10
94.96619161892554
 20
153.338545239049
 30
0.0
 10
93.39109396306931
 20
151.0363601810308
 30
0.0
 10
90.44278124679249
 20
149.9459874599492
 30
0.0
 10
90.44278124679249
 20
149.9459874599492
 30
0.0
 10
90.44278124679249
 20
149.8651999708201
 30
0.0
 10
90.44278124679249
 20
149.8651999708201
 30
0.0
 10
93.31047872871446
 20
149.1381125686581
 30
0.0
 10
95.93564148847484
 20
146.8764073825916
 30
0.0
 10
95.93564148847484
 20
143.1202197750237
 30
0.0
 10
95.93564148847484
 20
140.6969396106989
 30
0.0
 10
94.88557638457068
 20
138.7986919983263
 30
0.0
 10
93.31047872871446
 20
137.5062644270348
 30
0.0
 10
91.37192349916438
 20
135.8100716648721
 30
0.0
 10
88.18107606072597
 20
134.9618891564035
 30
0.0
 10
83.21324837099571
 20
134.9618891564035
 30
0.0
 10
80.46681825015455
 20
134.9618891564035
 30
0.0
 10
78.36668804234624
 20
135.1637717518392
 30
0.0
 10
77.11474034300645
 20
135.3253467300974
 30
0.0
 10
77.11474034300645
 20
135.3253467300974
 30
0.0
 10
77.11474034300645
 20
162.1028681535246
 30
0.0
 10
77.11474034300645
 20
162.1028681535246
 30
0.0
  0
ENDBLK
  5
44
330
41
100
AcDbEntity
  8
0
100
AcDbBlockEnd
  0
BLOCK
  5
48
330
46
100
AcDbEntity
  8
0
100
AcDbBlockBegin
  2
block 3
 70
     0
 10
0.0
 20
0.0
 30
0.0
  3
block 3
  1

  0
SPLINE
  5
4A
330
46
100
AcDbEntity
  8
Layer 1
370
     0
100
AcDbSpline
210
0.0
220
0.0
230
1.0
 70
    11
 71
     3
 72
    20
 73
    16
 74
     0
 42
0.0000000001
 43
0.0000000001
 12
1.0
 22
0.0
 32
0.0
 13
1.0
 23
0.0
 33
0.0
 40
0.0
 40
0.0
 40
0.0
 40
0.0
 40
1.0
 40
1.0
 40
1.0
 40
2.0
 40
2.0
 40
2.0
 40
3.0
 40
3.0
 40
3.0
 40
4.0
 40
4.0
 40
4.0
 40
5.0
 40
5.0
 40
5.0
 40
5.0
 10
82.04191590601077
 20
151.3595101375472
 30
0.0
 10
82.04191590601077
 20
151.3595101375472
 30
0.0
 10
84.58646343141629
 20
151.3595101375472
 30
0.0
 10
84.58646343141629
 20
151.3595101375472
 30
0.0
 10
88.01950108246776
 20
151.3595101375472
 30
0.0
 10
89.95805631201785
 20
152.9750876653551
 30
0.0
 10
89.95805631201785
 20
155.2771004685991
 30
0.0
 10
89.95805631201785
 20
157.8216479940046
 30
0.0
 10
88.01950108246776
 20
158.9929804589895
 30
0.0
 10
84.8693057707553
 20
158.9929804589895
 30
0.0
 10
83.41513096643135
 20
158.9929804589895
 30
0.0
 10
82.56729296751136
 20
158.9121929698604
 30
0.0
 10
82.04191590601077
 20
158.7909256087796
 30
0.0
 10
82.04191590601077
 20
158.7909256087796
 30
0.0
 10
82.04191590601077
 20
151.3595101375472
 30
0.0
 10
82.04191590601077
 20
151.3595101375472
 30
0.0
  0
ENDBLK
  5
49
330
46
100
AcDbEntity
  8
0
100
AcDbBlockEnd
  0
BLOCK
  5
4D
330
4B
100
AcDbEntity
  8
0
100
AcDbBlockBegin
  2
block 4
 70
     0
 10
0.0
 20
0.0
 30
0.0
  3
block 4
  1

  0
SPLINE
  5
4F
330
4B
100
AcDbEntity
  8
Layer 1
370
     0
100
AcDbSpline
210
0.0
220
0.0
230
1.0
 70
    11
 71
     3
 72
    20
 73
    16
 74
     0
 42
0.0000000001
 43
0.0000000001
 12
1.0
 22
0.0
 32
0.0
 13
1.0
 23
0.0
 33
0.0
 40
0.0
 40
0.0
 40
0.0
 40
0.0
 40
1.0
 40
1.0
 40
1.0
 40
2.0
 40
2.0
 40
2.0
 40
3.0
 40
3.0
 40
3.0
 40
4.0
 40
4.0
 40
4.0
 40
5.0
 40
5.0
 40
5.0
 40
5.0
 10
82.04191590601077
 20
138.839171870278
 30
0.0
 10
82.68821581904363
 20
138.7583843811489
 30
0.0
 10
83.53639832751215
 20
138.7179045091972
 30
0.0
 10
84.66742317531967
 20
138.7179045091972
 30
0.0
 10
87.85792610420954
 20
138.7179045091972
 30
0.0
 10
90.68531596895409
 20
139.9295445913596
 30
0.0
 10
90.68531596895409
 20
143.2817947532819
 30
0.0
 10
90.68531596895409
 20
146.4321623197686
 30
0.0
 10
87.93888584811292
 20
147.7245898910601
 30
0.0
 10
84.50584819706145
 20
147.7245898910601
 30
0.0
 10
84.50584819706145
 20
147.7245898910601
 30
0.0
 10
82.04191590601077
 20
147.7245898910601
 30
0.0
 10
82.04191590601077
 20
147.7245898910601
 30
0.0
 10
82.04191590601077
 20
147.7245898910601
 30
0.0
 10
82.04191590601077
 20
138.839171870278
 30
0.0
 10
82.04191590601077
 20
138.839171870278
 30
0.0
  0
ENDBLK
  5
4E
330
4B
100
AcDbEntity
  8
0
100
AcDbBlockEnd
  0
BLOCK
  5
52
330
50
100
AcDbEntity
  8
0
100
AcDbBlockBegin
  2
block 5
 70
     0
 10
0.0
 20
0.0
 30
0.0
  3
block 5
  1

  0
SPLINE
  5
54
330
50
100
AcDbEntity
  8
Layer 1
370
     0
100
AcDbSpline
210
0.0
220
0.0
230
1.0
 70
    11
 71
     3
 72
    35
 73
    31
 74
     0
 42
0.0000000001
 43
0.0000000001
 12
1.0
 22
0.0
 32
0.0
 13
1.0
 23
0.0
 33
0.0
 40
0.0
 40
0.0
 40
0.0
 40
0.0
 40
1.0
 40
1.0
 40
1.0
 40
2.0
 40
2.0
 40
2.0
 40
3.0
 40
3.0
 40
3.0
 40
4.0
 40
4.0
 40
4.0
 40
5.0
 40
5.0
 40
5.0
 40
6.0
 40
6.0
 40
6.0
 40
7.0
 40
7.0
 40
7.0
 40
8.0
 40
8.0
 40
8.0
 40
9.0
 40
9.0
 40
9.0
 40
10.0
 40
10.0
 40
10.0
 40
10.0
 10
77.11474034300645
 20
162.1028681535246
 30
0.0
 10
78.689837998863
 20
162.4258458552667
 30
0.0
 10
81.55753548078464
 20
162.6682083226534
 30
0.0
 10
84.34427321880355
 20
162.6682083226534
 30
0.0
 10
88.01950108246776
 20
162.6682083226534
 30
0.0
 10
90.28120626853396
 20
162.2239632598301
 30
0.0
 10
92.13914626372984
 20
160.9315356885399
 30
0.0
 10
93.83551128066621
 20
159.9217782018132
 30
0.0
 10
94.96619161892554
 20
158.144797950521
 30
0.0
 10
94.96619161892554
 20
155.8426128925038
 30
0.0
 10
94.96619161892554
 20
153.3385452390483
 30
0.0
 10
93.39109396306898
 20
151.0363601810314
 30
0.0
 10
90.44278124679249
 20
149.9459874599489
 30
0.0
 10
90.44278124679249
 20
149.9459874599489
 30
0.0
 10
90.44278124679249
 20
149.8651999708198
 30
0.0
 10
90.44278124679249
 20
149.8651999708198
 30
0.0
 10
93.31047872871414
 20
149.1381125686584
 30
0.0
 10
95.93564148847452
 20
146.8764073825916
 30
0.0
 10
95.93564148847452
 20
143.1202197750243
 30
0.0
 10
95.93564148847452
 20
140.6969396106996
 30
0.0
 10
94.88557638457068
 20
138.7986919983269
 30
0.0
 10
93.31047872871414
 20
137.5062644270348
 30
0.0
 10
91.37192349916438
 20
135.8100716648714
 30
0.0
 10
88.1810760607263
 20
134.9618891564042
 30
0.0
 10
83.21324837099603
 20
134.9618891564042
 30
0.0
 10
80.46681825015422
 20
134.9618891564042
 30
0.0
 10
78.36668804234657
 20
135.1637717518385
 30
0.0
 10
77.11474034300645
 20
135.325346730098
 30
0.0
 10
77.11474034300645
 20
135.325346730098
 30
0.0
 10
77.11474034300645
 20
162.1028681535246
 30
0.0
 10
77.11474034300645
 20
162.1028681535246
 30
0.0
  0
SPLINE
  5
55
330
50
100
AcDbEntity
  8
Layer 1
370
     0
100
AcDbSpline
210
0.0
220
0.0
230
1.0
 70
    11
 71
     3
 72
    20
 73
    16
 74
     0
 42
0.0000000001
 43
0.0000000001
 12
1.0
 22
0.0
 32
0.0
 13
1.0
 23
0.0
 33
0.0
 40
0.0
 40
0.0
 40
0.0
 40
0.0
 40
1.0
 40
1.0
 40
1.0
 40
2.0
 40
2.0
 40
2.0
 40
3.0
 40
3.0
 40
3.0
 40
4.0
 40
4.0
 40
4.0
 40
5.0
 40
5.0
 40
5.0
 40
5.0
 10
82.04191590601077
 20
151.3595101375466
 30
0.0
 10
82.04191590601077
 20
151.3595101375466
 30
0.0
 10
84.58646343141629
 20
151.3595101375466
 30
0.0
 10
84.58646343141629
 20
151.3595101375466
 30
0.0
 10
88.01950108246776
 20
151.3595101375466
 30
0.0
 10
89.95805631201752
 20
152.9750876653542
 30
0.0
 10
89.95805631201752
 20
155.2771004685984
 30
0.0
 10
89.95805631201752
 20
157.8216479940036
 30
0.0
 10
88.01950108246776
 20
158.9929804589902
 30
0.0
 10
84.86930577075563
 20
158.9929804589902
 30
0.0
 10
83.41513096643168
 20
158.9929804589902
 30
0.0
 10
82.56729296751136
 20
158.9121929698614
 30
0.0
 10
82.04191590601077
 20
158.7909256087806
 30
0.0
 10
82.04191590601077
 20
158.7909256087806
 30
0.0
 10
82.04191590601077
 20
151.3595101375466
 30
0.0
 10
82.04191590601077
 20
151.3595101375466
 30
0.0
  0
SPLINE
  5
56
330
50
100
AcDbEntity
  8
Layer 1
370
     0
100
AcDbSpline
210
0.0
220
0.0
230
1.0
 70
    11
 71
     3
 72
    20
 73
    16
 74
     0
 42
0.0000000001
 43
0.0000000001
 12
1.0
 22
0.0
 32
0.0
 13
1.0
 23
0.0
 33
0.0
 40
0.0
 40
0.0
 40
0.0
 40
0.0
 40
1.0
 40
1.0
 40
1.0
 40
2.0
 40
2.0
 40
2.0
 40
3.0
 40
3.0
 40
3.0
 40
4.0
 40
4.0
 40
4.0
 40
5.0
 40
5.0
 40
5.0
 40
5.0
 10
82.04191590601077
 20
138.8391718702786
 30
0.0
 10
82.68821581904332
 20
138.7583843811501
 30
0.0
 10
83.53639832751247
 20
138.7179045091978
 30
0.0
 10
84.66742317532
 20
138.7179045091978
 30
0.0
 10
87.85792610420923
 20
138.7179045091978
 30
0.0
 10
90.68531596895409
 20
139.9295445913596
 30
0.0
 10
90.68531596895409
 20
143.2817947532819
 30
0.0
 10
90.68531596895409
 20
146.4321623197686
 30
0.0
 10
87.93888584811292
 20
147.7245898910607
 30
0.0
 10
84.50584819706145
 20
147.7245898910607
 30
0.0
 10
84.50584819706145
 20
147.7245898910607
 30
0.0
 10
82.04191590601077
 20
147.7245898910607
 30
0.0
 10
82.04191590601077
 20
147.7245898910607
 30
0.0
 10
82.04191590601077
 20
147.7245898910607
 30
0.0
 10
82.04191590601077
 20
138.8391718702786
 30
0.0
 10
82.04191590601077
 20
138.8391718702786
 30
0.0
  0
HATCH
  5
57
330
50
100
AcDbEntity
  8
Layer 1
 62
   178
420
    65793
100
AcDbHatch
 10
0.0
 20
0.0
 30
0.0
210
0.0
220
0.0
230
1.0
  2
SOLID
 70
     1
 71
     0
 91
        3
 92
        1
 93
        1
 72
     4
 94
        3
 73
     0
 74
     1
 95
       35
 96
       31
 40
0.0
 40
0.0
 40
0.0
 40
0.0
 40
1.0
 40
1.0
 40
1.0
 40
2.0
 40
2.0
 40
2.0
 40
3.0
 40
3.0
 40
3.0
 40
4.0
 40
4.0
 40
4.0
 40
5.0
 40
5.0
 40
5.0
 40
6.0
 40
6.0
 40
6.0
 40
7.0
 40
7.0
 40
7.0
 40
8.0
 40
8.0
 40
8.0
 40
9.0
 40
9.0
 40
9.0
 40
10.0
 40
10.0
 40
10.0
 40
10.0
 10
77.11474034300645
 20
162.1028681535246
 10
78.689837998863
 20
162.4258458552667
 10
81.55753548078464
 20
162.6682083226534
 10
84.34427321880355
 20
162.6682083226534
 10
88.01950108246776
 20
162.6682083226534
 10
90.28120626853396
 20
162.2239632598301
 10
92.13914626372984
 20
160.9315356885399
 10
93.83551128066621
 20
159.9217782018132
 10
94.96619161892554
 20
158.144797950521
 10
94.96619161892554
 20
155.8426128925038
 10
94.96619161892554
 20
153.3385452390483
 10
93.39109396306898
 20
151.0363601810314
 10
90.44278124679249
 20
149.9459874599489
 10
90.44278124679249
 20
149.9459874599489
 10
90.44278124679249
 20
149.8651999708198
 10
90.44278124679249
 20
149.8651999708198
 10
93.31047872871414
 20
149.1381125686584
 10
95.93564148847452
 20
146.8764073825916
 10
95.93564148847452
 20
143.1202197750243
 10
95.93564148847452
 20
140.6969396106996
 10
94.88557638457068
 20
138.7986919983269
 10
93.31047872871414
 20
137.5062644270348
 10
91.37192349916438
 20
135.8100716648714
 10
88.1810760607263
 20
134.9618891564042
 10
83.21324837099603
 20
134.9618891564042
 10
80.46681825015422
 20
134.9618891564042
 10
78.36668804234657
 20
135.1637717518385
 10
77.11474034300645
 20
135.325346730098
 10
77.11474034300645
 20
135.325346730098
 10
77.11474034300645
 20
162.1028681535246
 10
77.11474034300645
 20
162.1028681535246
 97
        0
 97
        0
 92
        1
 93
        1
 72
     4
 94
        3
 73
     0
 74
     1
 95
       20
 96
       16
 40
0.0
 40
0.0
 40
0.0
 40
0.0
 40
1.0
 40
1.0
 40
1.0
 40
2.0
 40
2.0
 40
2.0
 40
3.0
 40
3.0
 40
3.0
 40
4.0
 40
4.0
 40
4.0
 40
5.0
 40
5.0
 40
5.0
 40
5.0
 10
82.04191590601077
 20
151.3595101375466
 10
82.04191590601077
 20
151.3595101375466
 10
84.58646343141629
 20
151.3595101375466
 10
84.58646343141629
 20
151.3595101375466
 10
88.01950108246776
 20
151.3595101375466
 10
89.95805631201752
 20
152.9750876653542
 10
89.95805631201752
 20
155.2771004685984
 10
89.95805631201752
 20
157.8216479940036
 10
88.01950108246776
 20
158.9929804589902
 10
84.86930577075563
 20
158.9929804589902
 10
83.41513096643168
 20
158.9929804589902
 10
82.56729296751136
 20
158.9121929698614
 10
82.04191590601077
 20
158.7909256087806
 10
82.04191590601077
 20
158.7909256087806
 10
82.04191590601077
 20
151.3595101375466
 10
82.04191590601077
 20
151.3595101375466
 97
        0
 97
        0
 92
        1
 93
        1
 72
     4
 94
        3
 73
     0
 74
     1
 95
       20
 96
       16
 40
0.0
 40
0.0
 40
0.0
 40
0.0
 40
1.0
 40
1.0
 40
1.0
 40
2.0
 40
2.0
 40
2.0
 40
3.0
 40
3.0
 40
3.0
 40
4.0
 40
4.0
 40
4.0
 40
5.0
 40
5.0
 40
5.0
 40
5.0
 10
82.04191590601077
 20
138.8391718702786
 10
82.68821581904332
 20
138.7583843811501
 10
83.53639832751247
 20
138.7179045091978
 10
84.66742317532
 20
138.7179045091978
 10
87.85792610420923
 20
138.7179045091978
 10
90.68531596895409
 20
139.9295445913596
 10
90.68531596895409
 20
143.2817947532819
 10
90.68531596895409
 20
146.4321623197686
 10
87.93888584811292
 20
147.7245898910607
 10
84.50584819706145
 20
147.7245898910607
 10
84.50584819706145
 20
147.7245898910607
 10
82.04191590601077
 20
147.7245898910607
 10
82.04191590601077
 20
147.7245898910607
 10
82.04191590601077
 20
147.7245898910607
 10
82.04191590601077
 20
138.8391718702786
 10
82.04191590601077
 20
138.8391718702786
 97
        0
 97
        0
 75
     2
 76
     1
 98
        0
  0
ENDBLK
  5
53
330
50
100
AcDbEntity
  8
0
100
AcDbBlockEnd
  0
BLOCK
  5
5A
330
58
100
AcDbEntity
  8
0
100
AcDbBlockBegin
  2
block 6
 70
     0
 10
0.0
 20
0.0
 30
0.0
  3
block 6
  1

  0
SPLINE
  5
5C
330
58
100
AcDbEntity
  8
Layer 1
370
     0
100
AcDbSpline
210
0.0
220
0.0
230
1.0
 70
    11
 71
     3
 72
    17
 73
    13
 74
     0
 42
0.0000000001
 43
0.0000000001
 12
1.0
 22
0.0
 32
0.0
 13
1.0
 23
0.0
 33
0.0
 40
0.0
 40
0.0
 40
0.0
 40
0.0
 40
1.0
 40
1.0
 40
1.0
 40
2.0
 40
2.0
 40
2.0
 40
3.0
 40
3.0
 40
3.0
 40
4.0
 40
4.0
 40
4.0
 40
4.0
 10
118.1444495341379
 20
145.2608298547837
 30
0.0
 10
118.1444495341379
 20
138.0312969789869
 30
0.0
 10
113.0553544833269
 20
134.8003141781453
 30
0.0
 10
108.0472191764192
 20
134.8003141781453
 30
0.0
 10
102.473743700382
 20
134.8003141781453
 30
0.0
 10
98.19252354086201
 20
138.6371170200681
 30
0.0
 10
98.19252354086201
 20
144.9376798982672
 30
0.0
 10
98.19252354086201
 20
151.3999900094989
 30
0.0
 10
102.4334360832046
 20
155.3578879577282
 30
0.0
 10
108.3703691329356
 20
155.3578879577282
 30
0.0
 10
114.2266869483118
 20
155.3578879577282
 30
0.0
 10
118.1444495341379
 20
151.2384150312407
 30
0.0
 10
118.1444495341379
 20
145.2608298547837
 30
0.0
  0
ENDBLK
  5
5B
330
58
100
AcDbEntity
  8
0
100
AcDbBlockEnd
  0
BLOCK
  5
5F
330
5D
100
AcDbEntity
  8
0
100
AcDbBlockBegin
  2
block 7
 70
     0
 10
0.0
 20
0.0
 30
0.0
  3
block 7
  1

  0
SPLINE
  5
61
330
5D
100
AcDbEntity
  8
Layer 1
370
     0
100
AcDbSpline
210
0.0
220
0.0
230
1.0
 70
    11
 71
     3
 72
    17
 73
    13
 74
     0
 42
0.0000000001
 43
0.0000000001
 12
1.0
 22
0.0
 32
0.0
 13
1.0
 23
0.0
 33
0.0
 40
0.0
 40
0.0
 40
0.0
 40
0.0
 40
1.0
 40
1.0
 40
1.0
 40
2.0
 40
2.0
 40
2.0
 40
3.0
 40
3.0
 40
3.0
 40
4.0
 40
4.0
 40
4.0
 40
4.0
 10
103.3219262088505
 20
145.058947259348
 30
0.0
 10
103.3219262088505
 20
141.2624520346027
 30
0.0
 10
105.1795216944972
 20
138.394926807455
 30
0.0
 10
108.2087941546774
 20
138.394926807455
 30
0.0
 10
111.0358395098734
 20
138.394926807455
 30
0.0
 10
113.0150468661494
 20
141.1816645454736
 30
0.0
 10
113.0150468661494
 20
145.1397347484771
 30
0.0
 10
113.0150468661494
 20
148.2091425710605
 30
0.0
 10
111.6418318057288
 20
151.722967711241
 30
0.0
 10
108.2491017718548
 20
151.722967711241
 30
0.0
 10
104.7354488864485
 20
151.722967711241
 30
0.0
 10
103.3219262088505
 20
148.3304099321413
 30
0.0
 10
103.3219262088505
 20
145.058947259348
 30
0.0
  0
ENDBLK
  5
60
330
5D
100
AcDbEntity
  8
0
100
AcDbBlockEnd
  0
BLOCK
  5
64
330
62
100
AcDbEntity
  8
0
100
AcDbBlockBegin
  2
block 8
 70
     0
 10
0.0
 20
0.0
 30
0.0
  3
block 8
  1

  0
SPLINE
  5
66
330
62
100
AcDbEntity
  8
Layer 1
370
     0
100
AcDbSpline
210
0.0
220
0.0
230
1.0
 70
    11
 71
     3
 72
    17
 73
    13
 74
     0
 42
0.0000000001
 43
0.0000000001
 12
1.0
 22
0.0
 32
0.0
 13
1.0
 23
0.0
 33
0.0
 40
0.0
 40
0.0
 40
0.0
 40
0.0
 40
1.0
 40
1.0
 40
1.0
 40
2.0
 40
2.0
 40
2.0
 40
3.0
 40
3.0
 40
3.0
 40
4.0
 40
4.0
 40
4.0
 40
4.0
 10
118.1444495341379
 20
145.2608298547837
 30
0.0
 10
118.1444495341379
 20
138.0312969789862
 30
0.0
 10
113.0553544833269
 20
134.8003141781447
 30
0.0
 10
108.0472191764185
 20
134.8003141781447
 30
0.0
 10
102.473743700382
 20
134.8003141781447
 30
0.0
 10
98.19252354086201
 20
138.6371170200674
 30
0.0
 10
98.19252354086201
 20
144.9376798982666
 30
0.0
 10
98.19252354086201
 20
151.3999900094986
 30
0.0
 10
102.4334360832049
 20
155.3578879577288
 30
0.0
 10
108.3703691329362
 20
155.3578879577288
 30
0.0
 10
114.2266869483112
 20
155.3578879577288
 30
0.0
 10
118.1444495341379
 20
151.238415031241
 30
0.0
 10
118.1444495341379
 20
145.2608298547837
 30
0.0
  0
SPLINE
  5
67
330
62
100
AcDbEntity
  8
Layer 1
370
     0
100
AcDbSpline
210
0.0
220
0.0
230
1.0
 70
    11
 71
     3
 72
    17
 73
    13
 74
     0
 42
0.0000000001
 43
0.0000000001
 12
1.0
 22
0.0
 32
0.0
 13
1.0
 23
0.0
 33
0.0
 40
0.0
 40
0.0
 40
0.0
 40
0.0
 40
1.0
 40
1.0
 40
1.0
 40
2.0
 40
2.0
 40
2.0
 40
3.0
 40
3.0
 40
3.0
 40
4.0
 40
4.0
 40
4.0
 40
4.0
 10
103.3219262088508
 20
145.0589472593474
 30
0.0
 10
103.3219262088508
 20
141.2624520346033
 30
0.0
 10
105.1795216944972
 20
138.3949268074556
 30
0.0
 10
108.2087941546774
 20
138.3949268074556
 30
0.0
 10
111.0358395098734
 20
138.3949268074556
 30
0.0
 10
113.0150468661488
 20
141.181664545473
 30
0.0
 10
113.0150468661488
 20
145.1397347484778
 30
0.0
 10
113.0150468661488
 20
148.2091425710605
 30
0.0
 10
111.6418318057288
 20
151.7229677112407
 30
0.0
 10
108.2491017718555
 20
151.7229677112407
 30
0.0
 10
104.7354488864488
 20
151.7229677112407
 30
0.0
 10
103.3219262088508
 20
148.3304099321413
 30
0.0
 10
103.3219262088508
 20
145.0589472593474
 30
0.0
  0
HATCH
  5
68
330
62
100
AcDbEntity
  8
Layer 1
 62
   178
420
    65793
100
AcDbHatch
 10
0.0
 20
0.0
 30
0.0
210
0.0
220
0.0
230
1.0
  2
SOLID
 70
     1
 71
     0
 91
        2
 92
        1
 93
        1
 72
     4
 94
        3
 73
     0
 74
     1
 95
       17
 96
       13
 40
0.0
 40
0.0
 40
0.0
 40
0.0
 40
1.0
 40
1.0
 40
1.0
 40
2.0
 40
2.0
 40
2.0
 40
3.0
 40
3.0
 40
3.0
 40
4.0
 40
4.0
 40
4.0
 40
4.0
 10
118.1444495341379
 20
145.2608298547837
 10
118.1444495341379
 20
138.0312969789862
 10
113.0553544833269
 20
134.8003141781447
 10
108.0472191764185
 20
134.8003141781447
 10
102.473743700382
 20
134.8003141781447
 10
98.19252354086201
 20
138.6371170200674
 10
98.19252354086201
 20
144.9376798982666
 10
98.19252354086201
 20
151.3999900094986
 10
102.4334360832049
 20
155.3578879577288
 10
108.3703691329362
 20
155.3578879577288
 10
114.2266869483112
 20
155.3578879577288
 10
118.1444495341379
 20
151.238415031241
 10
118.1444495341379
 20
145.2608298547837
 97
        0
 97
        0
 92
        1
 93
        1
 72
     4
 94
        3
 73
     0
 74
     1
 95
       17
 96
       13
 40
0.0
 40
0.0
 40
0.0
 40
0.0
 40
1.0
 40
1.0
 40
1.0
 40
2.0
 40
2.0
 40
2.0
 40
3.0
 40
3.0
 40
3.0
 40
4.0
 40
4.0
 40
4.0
 40
4.0
 10
103.3219262088508
 20
145.0589472593474
 10
103.3219262088508
 20
141.2624520346033
 10
105.1795216944972
 20
138.3949268074556
 10
108.2087941546774
 20
138.3949268074556
 10
111.0358395098734
 20
138.3949268074556
 10
113.0150468661488
 20
141.181664545473
 10
113.0150468661488
 20
145.1397347484778
 10
113.0150468661488
 20
148.2091425710605
 10
111.6418318057288
 20
151.7229677112407
 10
108.2491017718555
 20
151.7229677112407
 10
104.7354488864488
 20
151.7229677112407
 10
103.3219262088508
 20
148.3304099321413
 10
103.3219262088508
 20
145.0589472593474
 97
        0
 97
        0
 75
     2
 76
     1
 98
        0
  0
ENDBLK
  5
65
330
62
100
AcDbEntity
  8
0
100
AcDbBlockEnd
  0
BLOCK
  5
6B
330
69
100
AcDbEntity
  8
0
100
AcDbBlockBegin
  2
block 9
 70
     0
 10
0.0
 20
0.0
 30
0.0
  3
block 9
  1

  0
SPLINE
  5
6D
330
69
100
AcDbEntity
  8
Layer 1
370
     0
100
AcDbSpline
210
0.0
220
0.0
230
1.0
 70
    11
 71
     3
 72
    47
 73
    43
 74
     0
 42
0.0000000001
 43
0.0000000001
 12
1.0
 22
0.0
 32
0.0
 13
1.0
 23
0.0
 33
0.0
 40
0.0
 40
0.0
 40
0.0
 40
0.0
 40
1.0
 40
1.0
 40
1.0
 40
2.0
 40
2.0
 40
2.0
 40
3.0
 40
3.0
 40
3.0
 40
4.0
 40
4.0
 40
4.0
 40
5.0
 40
5.0
 40
5.0
 40
6.0
 40
6.0
 40
6.0
 40
7.0
 40
7.0
 40
7.0
 40
8.0
 40
8.0
 40
8.0
 40
9.0
 40
9.0
 40
9.0
 40
10.0
 40
10.0
 40
10.0
 40
11.0
 40
11.0
 40
11.0
 40
12.0
 40
12.0
 40
12.0
 40
13.0
 40
13.0
 40
13.0
 40
14.0
 40
14.0
 40
14.0
 40
14.0
 10
132.5297902423471
 20
135.2445592409683
 30
0.0
 10
132.5297902423471
 20
135.2445592409683
 30
0.0
 10
132.2069847953792
 20
137.4254769379057
 30
0.0
 10
132.2069847953792
 20
137.4254769379057
 30
0.0
 10
132.2069847953792
 20
137.4254769379057
 30
0.0
 10
132.0857174342984
 20
137.4254769379057
 30
0.0
 10
132.0857174342984
 20
137.4254769379057
 30
0.0
 10
130.8740773521361
 20
135.8908591540012
 30
0.0
 10
128.8142547615052
 20
134.8003141781453
 30
0.0
 10
126.2697072360996
 20
134.8003141781453
 30
0.0
 10
122.3116370330961
 20
134.8003141781453
 30
0.0
 10
120.090239464207
 20
137.667839405293
 30
0.0
 10
120.090239464207
 20
140.6566319935215
 30
0.0
 10
120.090239464207
 20
145.6242874284775
 30
0.0
 10
124.4927269848078
 20
148.1285273367056
 30
0.0
 10
131.762567477782
 20
148.0880474647539
 30
0.0
 10
131.762567477782
 20
148.0880474647539
 30
0.0
 10
131.762567477782
 20
148.4111974212704
 30
0.0
 10
131.762567477782
 20
148.4111974212704
 30
0.0
 10
131.762567477782
 20
149.7036249925619
 30
0.0
 10
131.2375349258299
 20
151.8442350723219
 30
0.0
 10
127.764189657601
 20
151.8442350723219
 30
0.0
 10
125.8256344280509
 20
151.8442350723219
 30
0.0
 10
123.8061194545975
 20
151.2384150312407
 30
0.0
 10
122.4732120113543
 20
150.3902325227722
 30
0.0
 10
122.4732120113543
 20
150.3902325227722
 30
0.0
 10
121.503762141805
 20
153.6212153236137
 30
0.0
 10
121.503762141805
 20
153.6212153236137
 30
0.0
 10
122.957936946129
 20
154.5098777040339
 30
0.0
 10
125.5024844715345
 20
155.3578879577282
 30
0.0
 10
128.6123721660695
 20
155.3578879577282
 30
0.0
 10
134.9127627894945
 20
155.3578879577282
 30
0.0
 10
136.7303951675123
 20
151.3595101375472
 30
0.0
 10
136.7303951675123
 20
147.0782899780272
 30
0.0
 10
136.7303951675123
 20
147.0782899780272
 30
0.0
 10
136.7303951675123
 20
139.9700244633112
 30
0.0
 10
136.7303951675123
 20
139.9700244633112
 30
0.0
 10
136.7303951675123
 20
138.1928719572451
 30
0.0
 10
136.8110104018671
 20
136.4561993231306
 30
0.0
 10
137.0128929973027
 20
135.2445592409683
 30
0.0
 10
137.0128929973027
 20
135.2445592409683
 30
0.0
 10
132.5297902423471
 20
135.2445592409683
 30
0.0
 10
132.5297902423471
 20
135.2445592409683
 30
0.0
  0
ENDBLK
  5
6C
330
69
100
AcDbEntity
  8
0
100
AcDbBlockEnd
  0
BLOCK
  5
70
330
6E
100
AcDbEntity
  8
0
100
AcDbBlockBegin
  2
block 10
 70
     0
 10
0.0
 20
0.0
 30
0.0
  3
block 10
  1

  0
SPLINE
  5
72
330
6E
100
AcDbEntity
  8
Layer 1
370
     0
100
AcDbSpline
210
0.0
220
0.0
230
1.0
 70
    11
 71
     3
 72
    20
 73
    16
 74
     0
 42
0.0000000001
 43
0.0000000001
 12
1.0
 22
0.0
 32
0.0
 13
1.0
 23
0.0
 33
0.0
 40
0.0
 40
0.0
 40
0.0
 40
0.0
 40
1.0
 40
1.0
 40
1.0
 40
2.0
 40
2.0
 40
2.0
 40
3.0
 40
3.0
 40
3.0
 40
4.0
 40
4.0
 40
4.0
 40
5.0
 40
5.0
 40
5.0
 40
5.0
 10
131.8838348388628
 20
144.8570646639124
 30
0.0
 10
128.369837443908
 20
144.9376798982672
 30
0.0
 10
125.0177595367599
 20
144.1704571337021
 30
0.0
 10
125.0177595367599
 20
141.1816645454736
 30
0.0
 10
125.0177595367599
 20
139.2429370611493
 30
0.0
 10
126.2697072360996
 20
138.3544469355033
 30
0.0
 10
127.8448048919559
 20
138.3544469355033
 30
0.0
 10
129.8240122482319
 20
138.3544469355033
 30
0.0
 10
131.2778425430074
 20
139.6468745067948
 30
0.0
 10
131.7222598606046
 20
141.0605694391671
 30
0.0
 10
131.8431827121368
 20
141.4240270128609
 30
0.0
 10
131.8838348388628
 20
141.8277922037322
 30
0.0
 10
131.8838348388628
 20
142.1509421602486
 30
0.0
 10
131.8838348388628
 20
142.1509421602486
 30
0.0
 10
131.8838348388628
 20
144.8570646639124
 30
0.0
 10
131.8838348388628
 20
144.8570646639124
 30
0.0
  0
ENDBLK
  5
71
330
6E
100
AcDbEntity
  8
0
100
AcDbBlockEnd
  0
BLOCK
  5
75
330
73
100
AcDbEntity
  8
0
100
AcDbBlockBegin
  2
block 11
 70
     0
 10
0.0
 20
0.0
 30
0.0
  3
block 11
  1

  0
SPLINE
  5
77
330
73
100
AcDbEntity
  8
Layer 1
370
     0
100
AcDbSpline
210
0.0
220
0.0
230
1.0
 70
    11
 71
     3
 72
    47
 73
    43
 74
     0
 42
0.0000000001
 43
0.0000000001
 12
1.0
 22
0.0
 32
0.0
 13
1.0
 23
0.0
 33
0.0
 40
0.0
 40
0.0
 40
0.0
 40
0.0
 40
1.0
 40
1.0
 40
1.0
 40
2.0
 40
2.0
 40
2.0
 40
3.0
 40
3.0
 40
3.0
 40
4.0
 40
4.0
 40
4.0
 40
5.0
 40
5.0
 40
5.0
 40
6.0
 40
6.0
 40
6.0
 40
7.0
 40
7.0
 40
7.0
 40
8.0
 40
8.0
 40
8.0
 40
9.0
 40
9.0
 40
9.0
 40
10.0
 40
10.0
 40
10.0
 40
11.0
 40
11.0
 40
11.0
 40
12.0
 40
12.0
 40
12.0
 40
13.0
 40
13.0
 40
13.0
 40
14.0
 40
14.0
 40
14.0
 40
14.0
 10
132.5297902423465
 20
135.2445592409676
 30
0.0
 10
132.5297902423465
 20
135.2445592409676
 30
0.0
 10
132.2069847953792
 20
137.4254769379057
 30
0.0
 10
132.2069847953792
 20
137.4254769379057
 30
0.0
 10
132.2069847953792
 20
137.4254769379057
 30
0.0
 10
132.0857174342984
 20
137.4254769379057
 30
0.0
 10
132.0857174342984
 20
137.4254769379057
 30
0.0
 10
130.8740773521361
 20
135.8908591540018
 30
0.0
 10
128.8142547615045
 20
134.8003141781447
 30
0.0
 10
126.269707236099
 20
134.8003141781447
 30
0.0
 10
122.3116370330961
 20
134.8003141781447
 30
0.0
 10
120.0902394642064
 20
137.6678394052924
 30
0.0
 10
120.0902394642064
 20
140.6566319935209
 30
0.0
 10
120.0902394642064
 20
145.6242874284782
 30
0.0
 10
124.4927269848078
 20
148.1285273367063
 30
0.0
 10
131.762567477782
 20
148.0880474647546
 30
0.0
 10
131.762567477782
 20
148.0880474647546
 30
0.0
 10
131.762567477782
 20
148.4111974212701
 30
0.0
 10
131.762567477782
 20
148.4111974212701
 30
0.0
 10
131.762567477782
 20
149.7036249925622
 30
0.0
 10
131.2375349258293
 20
151.8442350723215
 30
0.0
 10
127.764189657601
 20
151.8442350723215
 30
0.0
 10
125.8256344280509
 20
151.8442350723215
 30
0.0
 10
123.8061194545975
 20
151.238415031241
 30
0.0
 10
122.4732120113543
 20
150.3902325227718
 30
0.0
 10
122.4732120113543
 20
150.3902325227718
 30
0.0
 10
121.5037621418044
 20
153.6212153236137
 30
0.0
 10
121.5037621418044
 20
153.6212153236137
 30
0.0
 10
122.9579369461296
 20
154.5098777040349
 30
0.0
 10
125.5024844715352
 20
155.3578879577288
 30
0.0
 10
128.6123721660689
 20
155.3578879577288
 30
0.0
 10
134.9127627894945
 20
155.3578879577288
 30
0.0
 10
136.7303951675123
 20
151.3595101375466
 30
0.0
 10
136.7303951675123
 20
147.0782899780279
 30
0.0
 10
136.7303951675123
 20
147.0782899780279
 30
0.0
 10
136.7303951675123
 20
139.9700244633112
 30
0.0
 10
136.7303951675123
 20
139.9700244633112
 30
0.0
 10
136.7303951675123
 20
138.1928719572444
 30
0.0
 10
136.8110104018671
 20
136.4561993231306
 30
0.0
 10
137.0128929973027
 20
135.2445592409676
 30
0.0
 10
137.0128929973027
 20
135.2445592409676
 30
0.0
 10
132.5297902423465
 20
135.2445592409676
 30
0.0
 10
132.5297902423465
 20
135.2445592409676
 30
0.0
  0
SPLINE
  5
78
330
73
100
AcDbEntity
  8
Layer 1
370
     0
100
AcDbSpline
210
0.0
220
0.0
230
1.0
 70
    11
 71
     3
 72
    20
 73
    16
 74
     0
 42
0.0000000001
 43
0.0000000001
 12
1.0
 22
0.0
 32
0.0
 13
1.0
 23
0.0
 33
0.0
 40
0.0
 40
0.0
 40
0.0
 40
0.0
 40
1.0
 40
1.0
 40
1.0
 40
2.0
 40
2.0
 40
2.0
 40
3.0
 40
3.0
 40
3.0
 40
4.0
 40
4.0
 40
4.0
 40
5.0
 40
5.0
 40
5.0
 40
5.0
 10
131.8838348388628
 20
144.8570646639124
 30
0.0
 10
128.369837443908
 20
144.9376798982666
 30
0.0
 10
125.0177595367599
 20
144.1704571337015
 30
0.0
 10
125.0177595367599
 20
141.181664545473
 30
0.0
 10
125.0177595367599
 20
139.2429370611499
 30
0.0
 10
126.269707236099
 20
138.354446935504
 30
0.0
 10
127.8448048919559
 20
138.354446935504
 30
0.0
 10
129.8240122482319
 20
138.354446935504
 30
0.0
 10
131.2778425430074
 20
139.6468745067941
 30
0.0
 10
131.7222598606046
 20
141.0605694391671
 30
0.0
 10
131.8431827121368
 20
141.4240270128609
 30
0.0
 10
131.8838348388628
 20
141.8277922037322
 30
0.0
 10
131.8838348388628
 20
142.1509421602493
 30
0.0
 10
131.8838348388628
 20
142.1509421602493
 30
0.0
 10
131.8838348388628
 20
144.8570646639124
 30
0.0
 10
131.8838348388628
 20
144.8570646639124
 30
0.0
  0
HATCH
  5
79
330
73
100
AcDbEntity
  8
Layer 1
 62
   178
420
    65793
100
AcDbHatch
 10
0.0
 20
0.0
 30
0.0
210
0.0
220
0.0
230
1.0
  2
SOLID
 70
     1
 71
     0
 91
        2
 92
        1
 93
        1
 72
     4
 94
        3
 73
     0
 74
     1
 95
       47
 96
       43
 40
0.0
 40
0.0
 40
0.0
 40
0.0
 40
1.0
 40
1.0
 40
1.0
 40
2.0
 40
2.0
 40
2.0
 40
3.0
 40
3.0
 40
3.0
 40
4.0
 40
4.0
 40
4.0
 40
5.0
 40
5.0
 40
5.0
 40
6.0
 40
6.0
 40
6.0
 40
7.0
 40
7.0
 40
7.0
 40
8.0
 40
8.0
 40
8.0
 40
9.0
 40
9.0
 40
9.0
 40
10.0
 40
10.0
 40
10.0
 40
11.0
 40
11.0
 40
11.0
 40
12.0
 40
12.0
 40
12.0
 40
13.0
 40
13.0
 40
13.0
 40
14.0
 40
14.0
 40
14.0
 40
14.0
 10
132.5297902423465
 20
135.2445592409676
 10
132.5297902423465
 20
135.2445592409676
 10
132.2069847953792
 20
137.4254769379057
 10
132.2069847953792
 20
137.4254769379057
 10
132.2069847953792
 20
137.4254769379057
 10
132.0857174342984
 20
137.4254769379057
 10
132.0857174342984
 20
137.4254769379057
 10
130.8740773521361
 20
135.8908591540018
 10
128.8142547615045
 20
134.8003141781447
 10
126.269707236099
 20
134.8003141781447
 10
122.3116370330961
 20
134.8003141781447
 10
120.0902394642064
 20
137.6678394052924
 10
120.0902394642064
 20
140.6566319935209
 10
120.0902394642064
 20
145.6242874284782
 10
124.4927269848078
 20
148.1285273367063
 10
131.762567477782
 20
148.0880474647546
 10
131.762567477782
 20
148.0880474647546
 10
131.762567477782
 20
148.4111974212701
 10
131.762567477782
 20
148.4111974212701
 10
131.762567477782
 20
149.7036249925622
 10
131.2375349258293
 20
151.8442350723215
 10
127.764189657601
 20
151.8442350723215
 10
125.8256344280509
 20
151.8442350723215
 10
123.8061194545975
 20
151.238415031241
 10
122.4732120113543
 20
150.3902325227718
 10
122.4732120113543
 20
150.3902325227718
 10
121.5037621418044
 20
153.6212153236137
 10
121.5037621418044
 20
153.6212153236137
 10
122.9579369461296
 20
154.5098777040349
 10
125.5024844715352
 20
155.3578879577288
 10
128.6123721660689
 20
155.3578879577288
 10
134.9127627894945
 20
155.3578879577288
 10
136.7303951675123
 20
151.3595101375466
 10
136.7303951675123
 20
147.0782899780279
 10
136.7303951675123
 20
147.0782899780279
 10
136.7303951675123
 20
139.9700244633112
 10
136.7303951675123
 20
139.9700244633112
 10
136.7303951675123
 20
138.1928719572444
 10
136.8110104018671
 20
136.4561993231306
 10
137.0128929973027
 20
135.2445592409676
 10
137.0128929973027
 20
135.2445592409676
 10
132.5297902423465
 20
135.2445592409676
 10
132.5297902423465
 20
135.2445592409676
 97
        0
 97
        0
 92
        1
 93
        1
 72
     4
 94
        3
 73
     0
 74
     1
 95
       20
 96
       16
 40
0.0
 40
0.0
 40
0.0
 40
0.0
 40
1.0
 40
1.0
 40
1.0
 40
2.0
 40
2.0
 40
2.0
 40
3.0
 40
3.0
 40
3.0
 40
4.0
 40
4.0
 40
4.0
 40
5.0
 40
5.0
 40
5.0
 40
5.0
 10
131.8838348388628
 20
144.8570646639124
 10
128.369837443908
 20
144.9376798982666
 10
125.0177595367599
 20
144.1704571337015
 10
125.0177595367599
 20
141.181664545473
 10
125.0177595367599
 20
139.2429370611499
 10
126.269707236099
 20
138.354446935504
 10
127.8448048919559
 20
138.354446935504
 10
129.8240122482319
 20
138.354446935504
 10
131.2778425430074
 20
139.6468745067941
 10
131.7222598606046
 20
141.0605694391671
 10
131.8431827121368
 20
141.4240270128609
 10
131.8838348388628
 20
141.8277922037322
 10
131.8838348388628
 20
142.1509421602493
 10
131.8838348388628
 20
142.1509421602493
 10
131.8838348388628
 20
144.8570646639124
 10
131.8838348388628
 20
144.8570646639124
 97
        0
 97
        0
 75
     2
 76
     1
 98
        0
  0
ENDBLK
  5
76
330
73
100
AcDbEntity
  8
0
100
AcDbBlockEnd
  0
BLOCK
  5
7C
330
7A
100
AcDbEntity
  8
0
100
AcDbBlockBegin
  2
block 12
 70
     0
 10
0.0
 20
0.0
 30
0.0
  3
block 12
  1

  0
SPLINE
  5
7E
330
7A
100
AcDbEntity
  8
Layer 1
370
     0
100
AcDbSpline
210
0.0
220
0.0
230
1.0
 70
    11
 71
     3
 72
    44
 73
    40
 74
     0
 42
0.0000000001
 43
0.0000000001
 12
1.0
 22
0.0
 32
0.0
 13
1.0
 23
0.0
 33
0.0
 40
0.0
 40
0.0
 40
0.0
 40
0.0
 40
1.0
 40
1.0
 40
1.0
 40
2.0
 40
2.0
 40
2.0
 40
3.0
 40
3.0
 40
3.0
 40
4.0
 40
4.0
 40
4.0
 40
5.0
 40
5.0
 40
5.0
 40
6.0
 40
6.0
 40
6.0
 40
7.0
 40
7.0
 40
7.0
 40
8.0
 40
8.0
 40
8.0
 40
9.0
 40
9.0
 40
9.0
 40
10.0
 40
10.0
 40
10.0
 40
11.0
 40
11.0
 40
11.0
 40
12.0
 40
12.0
 40
12.0
 40
13.0
 40
13.0
 40
13.0
 40
13.0
 10
140.9988684737368
 20
148.5727723995286
 30
0.0
 10
140.9988684737368
 20
151.2384150312407
 30
0.0
 10
140.9582163470109
 20
153.1366626436133
 30
0.0
 10
140.8372934954786
 20
154.9136428949052
 30
0.0
 10
140.8372934954786
 20
154.9136428949052
 30
0.0
 10
145.158821272176
 20
154.9136428949052
 30
0.0
 10
145.158821272176
 20
154.9136428949052
 30
0.0
 10
145.158821272176
 20
154.9136428949052
 30
0.0
 10
145.3203962504342
 20
151.1576275421116
 30
0.0
 10
145.3203962504342
 20
151.1576275421116
 30
0.0
 10
145.3203962504342
 20
151.1576275421116
 30
0.0
 10
145.4819712286924
 20
151.1576275421116
 30
0.0
 10
145.4819712286924
 20
151.1576275421116
 30
0.0
 10
146.4510765886932
 20
153.9443652801301
 30
0.0
 10
148.7534339014857
 20
155.3578879577282
 30
0.0
 10
150.853564109294
 20
155.3578879577282
 30
0.0
 10
151.3382890440686
 20
155.3578879577282
 30
0.0
 10
151.6207868738591
 20
155.3175803405507
 30
0.0
 10
152.0248965742789
 20
155.2367928514216
 30
0.0
 10
152.0248965742789
 20
155.2367928514216
 30
0.0
 10
152.0248965742789
 20
150.5518075010304
 30
0.0
 10
152.0248965742789
 20
150.5518075010304
 30
0.0
 10
151.6207868738591
 20
150.6325949901595
 30
0.0
 10
151.1767140658104
 20
150.7133824792886
 30
0.0
 10
150.570721769955
 20
150.7133824792886
 30
0.0
 10
148.1877492228076
 20
150.7133824792886
 30
0.0
 10
146.572343949774
 20
149.1785924406098
 30
0.0
 10
146.1279266321768
 20
146.9571948717207
 30
0.0
 10
146.0473113978219
 20
146.5129498088977
 30
0.0
 10
145.9666961634671
 20
145.9879172569457
 30
0.0
 10
145.9666961634671
 20
145.4224048330419
 30
0.0
 10
145.9666961634671
 20
145.4224048330419
 30
0.0
 10
145.9666961634671
 20
135.2445592409683
 30
0.0
 10
145.9666961634671
 20
135.2445592409683
 30
0.0
 10
145.9666961634671
 20
135.2445592409683
 30
0.0
 10
140.9988684737368
 20
135.2445592409683
 30
0.0
 10
140.9988684737368
 20
135.2445592409683
 30
0.0
 10
140.9988684737368
 20
135.2445592409683
 30
0.0
 10
140.9988684737368
 20
148.5727723995286
 30
0.0
 10
140.9988684737368
 20
148.5727723995286
 30
0.0
  0
ENDBLK
  5
7D
330
7A
100
AcDbEntity
  8
0
100
AcDbBlockEnd
  0
BLOCK
  5
81
330
7F
100
AcDbEntity
  8
0
100
AcDbBlockBegin
  2
block 13
 70
     0
 10
0.0
 20
0.0
 30
0.0
  3
block 13
  1

  0
SPLINE
  5
83
330
7F
100
AcDbEntity
  8
Layer 1
370
     0
100
AcDbSpline
210
0.0
220
0.0
230
1.0
 70
    11
 71
     3
 72
    44
 73
    40
 74
     0
 42
0.0000000001
 43
0.0000000001
 12
1.0
 22
0.0
 32
0.0
 13
1.0
 23
0.0
 33
0.0
 40
0.0
 40
0.0
 40
0.0
 40
0.0
 40
1.0
 40
1.0
 40
1.0
 40
2.0
 40
2.0
 40
2.0
 40
3.0
 40
3.0
 40
3.0
 40
4.0
 40
4.0
 40
4.0
 40
5.0
 40
5.0
 40
5.0
 40
6.0
 40
6.0
 40
6.0
 40
7.0
 40
7.0
 40
7.0
 40
8.0
 40
8.0
 40
8.0
 40
9.0
 40
9.0
 40
9.0
 40
10.0
 40
10.0
 40
10.0
 40
11.0
 40
11.0
 40
11.0
 40
12.0
 40
12.0
 40
12.0
 40
13.0
 40
13.0
 40
13.0
 40
13.0
 10
140.9988684737368
 20
148.5727723995277
 30
0.0
 10
140.9988684737368
 20
151.238415031241
 30
0.0
 10
140.9582163470109
 20
153.1366626436136
 30
0.0
 10
140.837293495478
 20
154.9136428949058
 30
0.0
 10
140.837293495478
 20
154.9136428949058
 30
0.0
 10
145.158821272176
 20
154.9136428949058
 30
0.0
 10
145.158821272176
 20
154.9136428949058
 30
0.0
 10
145.158821272176
 20
154.9136428949058
 30
0.0
 10
145.3203962504342
 20
151.1576275421122
 30
0.0
 10
145.3203962504342
 20
151.1576275421122
 30
0.0
 10
145.3203962504342
 20
151.1576275421122
 30
0.0
 10
145.4819712286924
 20
151.1576275421122
 30
0.0
 10
145.4819712286924
 20
151.1576275421122
 30
0.0
 10
146.4510765886932
 20
153.9443652801311
 30
0.0
 10
148.7534339014857
 20
155.3578879577288
 30
0.0
 10
150.8535641092933
 20
155.3578879577288
 30
0.0
 10
151.3382890440686
 20
155.3578879577288
 30
0.0
 10
151.6207868738591
 20
155.3175803405501
 30
0.0
 10
152.0248965742789
 20
155.2367928514213
 30
0.0
 10
152.0248965742789
 20
155.2367928514213
 30
0.0
 10
152.0248965742789
 20
150.5518075010313
 30
0.0
 10
152.0248965742789
 20
150.5518075010313
 30
0.0
 10
151.6207868738591
 20
150.6325949901601
 30
0.0
 10
151.1767140658104
 20
150.7133824792889
 30
0.0
 10
150.570721769955
 20
150.7133824792889
 30
0.0
 10
148.187749222807
 20
150.7133824792889
 30
0.0
 10
146.572343949774
 20
149.1785924406104
 30
0.0
 10
146.1279266321768
 20
146.95719487172
 30
0.0
 10
146.0473113978219
 20
146.5129498088971
 30
0.0
 10
145.9666961634671
 20
145.987917256945
 30
0.0
 10
145.9666961634671
 20
145.4224048330412
 30
0.0
 10
145.9666961634671
 20
145.4224048330412
 30
0.0
 10
145.9666961634671
 20
135.2445592409676
 30
0.0
 10
145.9666961634671
 20
135.2445592409676
 30
0.0
 10
145.9666961634671
 20
135.2445592409676
 30
0.0
 10
140.9988684737368
 20
135.2445592409676
 30
0.0
 10
140.9988684737368
 20
135.2445592409676
 30
0.0
 10
140.9988684737368
 20
135.2445592409676
 30
0.0
 10
140.9988684737368
 20
148.5727723995277
 30
0.0
 10
140.9988684737368
 20
148.5727723995277
 30
0.0
  0
HATCH
  5
84
330
7F
100
AcDbEntity
  8
Layer 1
 62
   178
420
    65793
100
AcDbHatch
 10
0.0
 20
0.0
 30
0.0
210
0.0
220
0.0
230
1.0
  2
SOLID
 70
     1
 71
     0
 91
        1
 92
        1
 93
        1
 72
     4
 94
        3
 73
     0
 74
     1
 95
       44
 96
       40
 40
0.0
 40
0.0
 40
0.0
 40
0.0
 40
1.0
 40
1.0
 40
1.0
 40
2.0
 40
2.0
 40
2.0
 40
3.0
 40
3.0
 40
3.0
 40
4.0
 40
4.0
 40
4.0
 40
5.0
 40
5.0
 40
5.0
 40
6.0
 40
6.0
 40
6.0
 40
7.0
 40
7.0
 40
7.0
 40
8.0
 40
8.0
 40
8.0
 40
9.0
 40
9.0
 40
9.0
 40
10.0
 40
10.0
 40
10.0
 40
11.0
 40
11.0
 40
11.0
 40
12.0
 40
12.0
 40
12.0
 40
13.0
 40
13.0
 40
13.0
 40
13.0
 10
140.9988684737368
 20
148.5727723995277
 10
140.9988684737368
 20
151.238415031241
 10
140.9582163470109
 20
153.1366626436136
 10
140.837293495478
 20
154.9136428949058
 10
140.837293495478
 20
154.9136428949058
 10
145.158821272176
 20
154.9136428949058
 10
145.158821272176
 20
154.9136428949058
 10
145.158821272176
 20
154.9136428949058
 10
145.3203962504342
 20
151.1576275421122
 10
145.3203962504342
 20
151.1576275421122
 10
145.3203962504342
 20
151.1576275421122
 10
145.4819712286924
 20
151.1576275421122
 10
145.4819712286924
 20
151.1576275421122
 10
146.4510765886932
 20
153.9443652801311
 10
148.7534339014857
 20
155.3578879577288
 10
150.8535641092933
 20
155.3578879577288
 10
151.3382890440686
 20
155.3578879577288
 10
151.6207868738591
 20
155.3175803405501
 10
152.0248965742789
 20
155.2367928514213
 10
152.0248965742789
 20
155.2367928514213
 10
152.0248965742789
 20
150.5518075010313
 10
152.0248965742789
 20
150.5518075010313
 10
151.6207868738591
 20
150.6325949901601
 10
151.1767140658104
 20
150.7133824792889
 10
150.570721769955
 20
150.7133824792889
 10
148.187749222807
 20
150.7133824792889
 10
146.572343949774
 20
149.1785924406104
 10
146.1279266321768
 20
146.95719487172
 10
146.0473113978219
 20
146.5129498088971
 10
145.9666961634671
 20
145.987917256945
 10
145.9666961634671
 20
145.4224048330412
 10
145.9666961634671
 20
145.4224048330412
 10
145.9666961634671
 20
135.2445592409676
 10
145.9666961634671
 20
135.2445592409676
 10
145.9666961634671
 20
135.2445592409676
 10
140.9988684737368
 20
135.2445592409676
 10
140.9988684737368
 20
135.2445592409676
 10
140.9988684737368
 20
135.2445592409676
 10
140.9988684737368
 20
148.5727723995277
 10
140.9988684737368
 20
148.5727723995277
 97
        0
 97
        0
 75
     2
 76
     1
 98
        0
  0
ENDBLK
  5
82
330
7F
100
AcDbEntity
  8
0
100
AcDbBlockEnd
  0
BLOCK
  5
87
330
85
100
AcDbEntity
  8
0
100
AcDbBlockBegin
  2
block 14
 70
     0
 10
0.0
 20
0.0
 30
0.0
  3
block 14
  1

  0
SPLINE
  5
89
330
85
100
AcDbEntity
  8
Layer 1
370
     0
100
AcDbSpline
210
0.0
220
0.0
230
1.0
 70
    11
 71
     3
 72
    41
 73
    37
 74
     0
 42
0.0000000001
 43
0.0000000001
 12
1.0
 22
0.0
 32
0.0
 13
1.0
 23
0.0
 33
0.0
 40
0.0
 40
0.0
 40
0.0
 40
0.0
 40
1.0
 40
1.0
 40
1.0
 40
2.0
 40
2.0
 40
2.0
 40
3.0
 40
3.0
 40
3.0
 40
4.0
 40
4.0
 40
4.0
 40
5.0
 40
5.0
 40
5.0
 40
6.0
 40
6.0
 40
6.0
 40
7.0
 40
7.0
 40
7.0
 40
8.0
 40
8.0
 40
8.0
 40
9.0
 40
9.0
 40
9.0
 40
10.0
 40
10.0
 40
10.0
 40
11.0
 40
11.0
 40
11.0
 40
12.0
 40
12.0
 40
12.0
 40
12.0
 10
172.682378122934
 20
163.9203282767681
 30
0.0
 10
172.682378122934
 20
163.9203282767681
 30
0.0
 10
172.682378122934
 20
140.7777270998281
 30
0.0
 10
172.682378122934
 20
140.7777270998281
 30
0.0
 10
172.682378122934
 20
138.7583843811489
 30
0.0
 10
172.7633378668374
 20
136.5772944294372
 30
0.0
 10
172.8439531011922
 20
135.2445592409683
 30
0.0
 10
172.8439531011922
 20
135.2445592409683
 30
0.0
 10
168.4015024729625
 20
135.2445592409683
 30
0.0
 10
168.4015024729625
 20
135.2445592409683
 30
0.0
 10
168.4015024729625
 20
135.2445592409683
 30
0.0
 10
168.1992753679784
 20
138.3544469355033
 30
0.0
 10
168.1992753679784
 20
138.3544469355033
 30
0.0
 10
168.1992753679784
 20
138.3544469355033
 30
0.0
 10
168.1186601336235
 20
138.3544469355033
 30
0.0
 10
168.1186601336235
 20
138.3544469355033
 30
0.0
 10
166.9473276686386
 20
136.1735292385659
 30
0.0
 10
164.5643551214913
 20
134.8003141781453
 30
0.0
 10
161.6970021491178
 20
134.8003141781453
 30
0.0
 10
157.0120167987266
 20
134.8003141781453
 30
0.0
 10
153.2961368083361
 20
138.7986919983263
 30
0.0
 10
153.2961368083361
 20
144.8570646639124
 30
0.0
 10
153.2558291911587
 20
151.4402976266763
 30
0.0
 10
157.3754743724204
 20
155.3578879577282
 30
0.0
 10
162.1007673399891
 20
155.3578879577282
 30
0.0
 10
164.8068898436529
 20
155.3578879577282
 30
0.0
 10
166.7454450732029
 20
154.2270353646949
 30
0.0
 10
167.6339351988489
 20
152.7730328151452
 30
0.0
 10
167.6339351988489
 20
152.7730328151452
 30
0.0
 10
167.7148949427522
 20
152.7730328151452
 30
0.0
 10
167.7148949427522
 20
152.7730328151452
 30
0.0
 10
167.7148949427522
 20
152.7730328151452
 30
0.0
 10
167.7148949427522
 20
163.9203282767681
 30
0.0
 10
167.7148949427522
 20
163.9203282767681
 30
0.0
 10
167.7148949427522
 20
163.9203282767681
 30
0.0
 10
172.682378122934
 20
163.9203282767681
 30
0.0
 10
172.682378122934
 20
163.9203282767681
 30
0.0
  0
ENDBLK
  5
88
330
85
100
AcDbEntity
  8
0
100
AcDbBlockEnd
  0
BLOCK
  5
8C
330
8A
100
AcDbEntity
  8
0
100
AcDbBlockBegin
  2
block 15
 70
     0
 10
0.0
 20
0.0
 30
0.0
  3
block 15
  1

  0
SPLINE
  5
8E
330
8A
100
AcDbEntity
  8
Layer 1
370
     0
100
AcDbSpline
210
0.0
220
0.0
230
1.0
 70
    11
 71
     3
 72
    26
 73
    22
 74
     0
 42
0.0000000001
 43
0.0000000001
 12
1.0
 22
0.0
 32
0.0
 13
1.0
 23
0.0
 33
0.0
 40
0.0
 40
0.0
 40
0.0
 40
0.0
 40
1.0
 40
1.0
 40
1.0
 40
2.0
 40
2.0
 40
2.0
 40
3.0
 40
3.0
 40
3.0
 40
4.0
 40
4.0
 40
4.0
 40
5.0
 40
5.0
 40
5.0
 40
6.0
 40
6.0
 40
6.0
 40
7.0
 40
7.0
 40
7.0
 40
7.0
 10
167.7148949427522
 20
146.7148324043334
 30
0.0
 10
167.7148949427522
 20
147.1187698499789
 30
0.0
 10
167.6742428160263
 20
147.6033225299793
 30
0.0
 10
167.5936275816715
 20
148.0072599756248
 30
0.0
 10
167.1492102640742
 20
149.9459874599492
 30
0.0
 10
165.574112608218
 20
151.5210851158054
 30
0.0
 10
163.3124074221515
 20
151.5210851158054
 30
0.0
 10
160.1219044932616
 20
151.5210851158054
 30
0.0
 10
158.3445797324212
 20
148.6938675058351
 30
0.0
 10
158.3445797324212
 20
145.0184673873964
 30
0.0
 10
158.3445797324212
 20
141.4240270128609
 30
0.0
 10
160.1219044932616
 20
138.7986919983263
 30
0.0
 10
163.2720998049741
 20
138.7986919983263
 30
0.0
 10
165.2916147784275
 20
138.7986919983263
 30
0.0
 10
167.0685950297194
 20
140.1719070587469
 30
0.0
 10
167.553319964494
 20
142.3125171385068
 30
0.0
 10
167.6742428160263
 20
142.7567622013298
 30
0.0
 10
167.7148949427522
 20
143.2414871361045
 30
0.0
 10
167.7148949427522
 20
143.7665196880565
 30
0.0
 10
167.7148949427522
 20
143.7665196880565
 30
0.0
 10
167.7148949427522
 20
146.7148324043334
 30
0.0
 10
167.7148949427522
 20
146.7148324043334
 30
0.0
  0
ENDBLK
  5
8D
330
8A
100
AcDbEntity
  8
0
100
AcDbBlockEnd
  0
BLOCK
  5
91
330
8F
100
AcDbEntity
  8
0
100
AcDbBlockBegin
  2
block 16
 70
     0
 10
0.0
 20
0.0
 30
0.0
  3
block 16
  1

  0
SPLINE
  5
93
330
8F
100
AcDbEntity
  8
Layer 1
370
     0
100
AcDbSpline
210
0.0
220
0.0
230
1.0
 70
    11
 71
     3
 72
    41
 73
    37
 74
     0
 42
0.0000000001
 43
0.0000000001
 12
1.0
 22
0.0
 32
0.0
 13
1.0
 23
0.0
 33
0.0
 40
0.0
 40
0.0
 40
0.0
 40
0.0
 40
1.0
 40
1.0
 40
1.0
 40
2.0
 40
2.0
 40
2.0
 40
3.0
 40
3.0
 40
3.0
 40
4.0
 40
4.0
 40
4.0
 40
5.0
 40
5.0
 40
5.0
 40
6.0
 40
6.0
 40
6.0
 40
7.0
 40
7.0
 40
7.0
 40
8.0
 40
8.0
 40
8.0
 40
9.0
 40
9.0
 40
9.0
 40
10.0
 40
10.0
 40
10.0
 40
11.0
 40
11.0
 40
11.0
 40
12.0
 40
12.0
 40
12.0
 40
12.0
 10
172.6823781229334
 20
163.9203282767684
 30
0.0
 10
172.6823781229334
 20
163.9203282767684
 30
0.0
 10
172.6823781229334
 20
140.7777270998287
 30
0.0
 10
172.6823781229334
 20
140.7777270998287
 30
0.0
 10
172.6823781229334
 20
138.7583843811501
 30
0.0
 10
172.7633378668374
 20
136.5772944294366
 30
0.0
 10
172.8439531011922
 20
135.2445592409676
 30
0.0
 10
172.8439531011922
 20
135.2445592409676
 30
0.0
 10
168.4015024729625
 20
135.2445592409676
 30
0.0
 10
168.4015024729625
 20
135.2445592409676
 30
0.0
 10
168.4015024729625
 20
135.2445592409676
 30
0.0
 10
168.1992753679784
 20
138.354446935504
 30
0.0
 10
168.1992753679784
 20
138.354446935504
 30
0.0
 10
168.1992753679784
 20
138.354446935504
 30
0.0
 10
168.1186601336235
 20
138.354446935504
 30
0.0
 10
168.1186601336235
 20
138.354446935504
 30
0.0
 10
166.9473276686392
 20
136.1735292385653
 30
0.0
 10
164.5643551214913
 20
134.8003141781447
 30
0.0
 10
161.6970021491172
 20
134.8003141781447
 30
0.0
 10
157.0120167987266
 20
134.8003141781447
 30
0.0
 10
153.2961368083367
 20
138.7986919983269
 30
0.0
 10
153.2961368083367
 20
144.8570646639124
 30
0.0
 10
153.2558291911587
 20
151.4402976266757
 30
0.0
 10
157.3754743724204
 20
155.3578879577288
 30
0.0
 10
162.1007673399897
 20
155.3578879577288
 30
0.0
 10
164.8068898436529
 20
155.3578879577288
 30
0.0
 10
166.7454450732023
 20
154.2270353646946
 30
0.0
 10
167.6339351988489
 20
152.7730328151446
 30
0.0
 10
167.6339351988489
 20
152.7730328151446
 30
0.0
 10
167.7148949427522
 20
152.7730328151446
 30
0.0
 10
167.7148949427522
 20
152.7730328151446
 30
0.0
 10
167.7148949427522
 20
152.7730328151446
 30
0.0
 10
167.7148949427522
 20
163.9203282767684
 30
0.0
 10
167.7148949427522
 20
163.9203282767684
 30
0.0
 10
167.7148949427522
 20
163.9203282767684
 30
0.0
 10
172.6823781229334
 20
163.9203282767684
 30
0.0
 10
172.6823781229334
 20
163.9203282767684
 30
0.0
  0
SPLINE
  5
94
330
8F
100
AcDbEntity
  8
Layer 1
370
     0
100
AcDbSpline
210
0.0
220
0.0
230
1.0
 70
    11
 71
     3
 72
    26
 73
    22
 74
     0
 42
0.0000000001
 43
0.0000000001
 12
1.0
 22
0.0
 32
0.0
 13
1.0
 23
0.0
 33
0.0
 40
0.0
 40
0.0
 40
0.0
 40
0.0
 40
1.0
 40
1.0
 40
1.0
 40
2.0
 40
2.0
 40
2.0
 40
3.0
 40
3.0
 40
3.0
 40
4.0
 40
4.0
 40
4.0
 40
5.0
 40
5.0
 40
5.0
 40
6.0
 40
6.0
 40
6.0
 40
7.0
 40
7.0
 40
7.0
 40
7.0
 10
167.7148949427522
 20
146.7148324043334
 30
0.0
 10
167.7148949427522
 20
147.1187698499795
 30
0.0
 10
167.6742428160263
 20
147.6033225299799
 30
0.0
 10
167.5936275816715
 20
148.0072599756261
 30
0.0
 10
167.1492102640742
 20
149.9459874599489
 30
0.0
 10
165.574112608218
 20
151.521085115806
 30
0.0
 10
163.3124074221521
 20
151.521085115806
 30
0.0
 10
160.1219044932616
 20
151.521085115806
 30
0.0
 10
158.3445797324219
 20
148.6938675058354
 30
0.0
 10
158.3445797324219
 20
145.018467387397
 30
0.0
 10
158.3445797324219
 20
141.4240270128609
 30
0.0
 10
160.1219044932616
 20
138.7986919983269
 30
0.0
 10
163.2720998049741
 20
138.7986919983269
 30
0.0
 10
165.2916147784275
 20
138.7986919983269
 30
0.0
 10
167.06859502972
 20
140.1719070587475
 30
0.0
 10
167.553319964494
 20
142.3125171385068
 30
0.0
 10
167.6742428160263
 20
142.7567622013305
 30
0.0
 10
167.7148949427522
 20
143.2414871361051
 30
0.0
 10
167.7148949427522
 20
143.7665196880572
 30
0.0
 10
167.7148949427522
 20
143.7665196880572
 30
0.0
 10
167.7148949427522
 20
146.7148324043334
 30
0.0
 10
167.7148949427522
 20
146.7148324043334
 30
0.0
  0
HATCH
  5
95
330
8F
100
AcDbEntity
  8
Layer 1
 62
   178
420
    65793
100
AcDbHatch
 10
0.0
 20
0.0
 30
0.0
210
0.0
220
0.0
230
1.0
  2
SOLID
 70
     1
 71
     0
 91
        2
 92
        1
 93
        1
 72
     4
 94
        3
 73
     0
 74
     1
 95
       41
 96
       37
 40
0.0
 40
0.0
 40
0.0
 40
0.0
 40
1.0
 40
1.0
 40
1.0
 40
2.0
 40
2.0
 40
2.0
 40
3.0
 40
3.0
 40
3.0
 40
4.0
 40
4.0
 40
4.0
 40
5.0
 40
5.0
 40
5.0
 40
6.0
 40
6.0
 40
6.0
 40
7.0
 40
7.0
 40
7.0
 40
8.0
 40
8.0
 40
8.0
 40
9.0
 40
9.0
 40
9.0
 40
10.0
 40
10.0
 40
10.0
 40
11.0
 40
11.0
 40
11.0
 40
12.0
 40
12.0
 40
12.0
 40
12.0
 10
172.6823781229334
 20
163.9203282767684
 10
172.6823781229334
 20
163.9203282767684
 10
172.6823781229334
 20
140.7777270998287
 10
172.6823781229334
 20
140.7777270998287
 10
172.6823781229334
 20
138.7583843811501
 10
172.7633378668374
 20
136.5772944294366
 10
172.8439531011922
 20
135.2445592409676
 10
172.8439531011922
 20
135.2445592409676
 10
168.4015024729625
 20
135.2445592409676
 10
168.4015024729625
 20
135.2445592409676
 10
168.4015024729625
 20
135.2445592409676
 10
168.1992753679784
 20
138.354446935504
 10
168.1992753679784
 20
138.354446935504
 10
168.1992753679784
 20
138.354446935504
 10
168.1186601336235
 20
138.354446935504
 10
168.1186601336235
 20
138.354446935504
 10
166.9473276686392
 20
136.1735292385653
 10
164.5643551214913
 20
134.8003141781447
 10
161.6970021491172
 20
134.8003141781447
 10
157.0120167987266
 20
134.8003141781447
 10
153.2961368083367
 20
138.7986919983269
 10
153.2961368083367
 20
144.8570646639124
 10
153.2558291911587
 20
151.4402976266757
 10
157.3754743724204
 20
155.3578879577288
 10
162.1007673399897
 20
155.3578879577288
 10
164.8068898436529
 20
155.3578879577288
 10
166.7454450732023
 20
154.2270353646946
 10
167.6339351988489
 20
152.7730328151446
 10
167.6339351988489
 20
152.7730328151446
 10
167.7148949427522
 20
152.7730328151446
 10
167.7148949427522
 20
152.7730328151446
 10
167.7148949427522
 20
152.7730328151446
 10
167.7148949427522
 20
163.9203282767684
 10
167.7148949427522
 20
163.9203282767684
 10
167.7148949427522
 20
163.9203282767684
 10
172.6823781229334
 20
163.9203282767684
 10
172.6823781229334
 20
163.9203282767684
 97
        0
 97
        0
 92
        1
 93
        1
 72
     4
 94
        3
 73
     0
 74
     1
 95
       26
 96
       22
 40
0.0
 40
0.0
 40
0.0
 40
0.0
 40
1.0
 40
1.0
 40
1.0
 40
2.0
 40
2.0
 40
2.0
 40
3.0
 40
3.0
 40
3.0
 40
4.0
 40
4.0
 40
4.0
 40
5.0
 40
5.0
 40
5.0
 40
6.0
 40
6.0
 40
6.0
 40
7.0
 40
7.0
 40
7.0
 40
7.0
 10
167.7148949427522
 20
146.7148324043334
 10
167.7148949427522
 20
147.1187698499795
 10
167.6742428160263
 20
147.6033225299799
 10
167.5936275816715
 20
148.0072599756261
 10
167.1492102640742
 20
149.9459874599489
 10
165.574112608218
 20
151.521085115806
 10
163.3124074221521
 20
151.521085115806
 10
160.1219044932616
 20
151.521085115806
 10
158.3445797324219
 20
148.6938675058354
 10
158.3445797324219
 20
145.018467387397
 10
158.3445797324219
 20
141.4240270128609
 10
160.1219044932616
 20
138.7986919983269
 10
163.2720998049741
 20
138.7986919983269
 10
165.2916147784275
 20
138.7986919983269
 10
167.06859502972
 20
140.1719070587475
 10
167.553319964494
 20
142.3125171385068
 10
167.6742428160263
 20
142.7567622013305
 10
167.7148949427522
 20
143.2414871361051
 10
167.7148949427522
 20
143.7665196880572
 10
167.7148949427522
 20
143.7665196880572
 10
167.7148949427522
 20
146.7148324043334
 10
167.7148949427522
 20
146.7148324043334
 97
        0
 97
        0
 75
     2
 76
     1
 98
        0
  0
ENDBLK
  5
92
330
8F
100
AcDbEntity
  8
0
100
AcDbBlockEnd
  0
BLOCK
  5
98
330
96
100
AcDbEntity
  8
0
100
AcDbBlockBegin
  2
block 17
 70
     0
 10
0.0
 20
0.0
 30
0.0
  3
block 17
  1

  0
SPLINE
  5
9A
330
96
100
AcDbEntity
  8
Layer 1
370
     0
100
AcDbSpline
210
0.0
220
0.0
230
1.0
 70
    11
 71
     3
 72
    47
 73
    43
 74
     0
 42
0.0000000001
 43
0.0000000001
 12
1.0
 22
0.0
 32
0.0
 13
1.0
 23
0.0
 33
0.0
 40
0.0
 40
0.0
 40
0.0
 40
0.0
 40
1.0
 40
1.0
 40
1.0
 40
2.0
 40
2.0
 40
2.0
 40
3.0
 40
3.0
 40
3.0
 40
4.0
 40
4.0
 40
4.0
 40
5.0
 40
5.0
 40
5.0
 40
6.0
 40
6.0
 40
6.0
 40
7.0
 40
7.0
 40
7.0
 40
8.0
 40
8.0
 40
8.0
 40
9.0
 40
9.0
 40
9.0
 40
10.0
 40
10.0
 40
10.0
 40
11.0
 40
11.0
 40
11.0
 40
12.0
 40
12.0
 40
12.0
 40
13.0
 40
13.0
 40
13.0
 40
14.0
 40
14.0
 40
14.0
 40
14.0
 10
176.854044246023
 20
139.808449485053
 30
0.0
 10
177.984724584282
 20
139.1218419548427
 30
0.0
 10
180.1255069188163
 20
138.394926807455
 30
0.0
 10
181.9024871701081
 20
138.394926807455
 30
0.0
 10
184.0835771218198
 20
138.394926807455
 30
0.0
 10
185.0526824818206
 20
139.2834169331009
 30
0.0
 10
185.0526824818206
 20
140.5758445043924
 30
0.0
 10
185.0526824818206
 20
141.9085796928613
 30
0.0
 10
184.245152100078
 20
142.5951872230716
 30
0.0
 10
181.8218719357533
 20
143.4433697315401
 30
0.0
 10
177.984724584282
 20
144.7762771747833
 30
0.0
 10
176.3693193112484
 20
146.8764073825916
 30
0.0
 10
176.4096269284258
 20
149.1785924406098
 30
0.0
 10
176.4096269284258
 20
152.6519377088387
 30
0.0
 10
179.2773244103477
 20
155.3578879577282
 30
0.0
 10
183.8410423996582
 20
155.3578879577282
 30
0.0
 10
186.0221323513699
 20
155.3578879577282
 30
0.0
 10
187.9203799637425
 20
154.7925477885987
 30
0.0
 10
189.0514048115501
 20
154.1867277475175
 30
0.0
 10
189.0514048115501
 20
154.1867277475175
 30
0.0
 10
188.0819549420007
 20
150.6729026073369
 30
0.0
 10
188.0819549420007
 20
150.6729026073369
 30
0.0
 10
187.2337724335323
 20
151.1576275421116
 30
0.0
 10
185.658674777676
 20
151.8037552003701
 30
0.0
 10
183.9220021435616
 20
151.8037552003701
 30
0.0
 10
182.1450218922697
 20
151.8037552003701
 30
0.0
 10
181.1755720227204
 20
150.9555726919016
 30
0.0
 10
181.1755720227204
 20
149.7439326097393
 30
0.0
 10
181.1755720227204
 20
148.4919849103995
 30
0.0
 10
182.1043697655438
 20
147.8861648693183
 30
0.0
 10
184.6086096737719
 20
146.9975024888981
 30
0.0
 10
188.1625701763556
 20
145.7050749176066
 30
0.0
 10
189.8186275761152
 20
143.8876147943631
 30
0.0
 10
189.8589351932926
 20
140.979781950038
 30
0.0
 10
189.8589351932926
 20
137.4254769379057
 30
0.0
 10
187.072197455274
 20
134.8406217953228
 30
0.0
 10
181.8621795529307
 20
134.8406217953228
 30
0.0
 10
179.4792070057834
 20
134.8406217953228
 30
0.0
 10
177.3387691807977
 20
135.4061342192265
 30
0.0
 10
175.8845943764737
 20
136.2138368557433
 30
0.0
 10
175.8845943764737
 20
136.2138368557433
 30
0.0
 10
176.854044246023
 20
139.808449485053
 30
0.0
 10
176.854044246023
 20
139.808449485053
 30
0.0
  0
ENDBLK
  5
99
330
96
100
AcDbEntity
  8
0
100
AcDbBlockEnd
  0
BLOCK
  5
9D
330
9B
100
AcDbEntity
  8
0
100
AcDbBlockBegin
  2
block 18
 70
     0
 10
0.0
 20
0.0
 30
0.0
  3
block 18
  1

  0
SPLINE
  5
9F
330
9B
100
AcDbEntity
  8
Layer 1
370
     0
100
AcDbSpline
210
0.0
220
0.0
230
1.0
 70
    11
 71
     3
 72
    47
 73
    43
 74
     0
 42
0.0000000001
 43
0.0000000001
 12
1.0
 22
0.0
 32
0.0
 13
1.0
 23
0.0
 33
0.0
 40
0.0
 40
0.0
 40
0.0
 40
0.0
 40
1.0
 40
1.0
 40
1.0
 40
2.0
 40
2.0
 40
2.0
 40
3.0
 40
3.0
 40
3.0
 40
4.0
 40
4.0
 40
4.0
 40
5.0
 40
5.0
 40
5.0
 40
6.0
 40
6.0
 40
6.0
 40
7.0
 40
7.0
 40
7.0
 40
8.0
 40
8.0
 40
8.0
 40
9.0
 40
9.0
 40
9.0
 40
10.0
 40
10.0
 40
10.0
 40
11.0
 40
11.0
 40
11.0
 40
12.0
 40
12.0
 40
12.0
 40
13.0
 40
13.0
 40
13.0
 40
14.0
 40
14.0
 40
14.0
 40
14.0
 10
176.854044246023
 20
139.8084494850536
 30
0.0
 10
177.9847245842814
 20
139.1218419548421
 30
0.0
 10
180.1255069188163
 20
138.3949268074556
 30
0.0
 10
181.9024871701081
 20
138.3949268074556
 30
0.0
 10
184.0835771218192
 20
138.3949268074556
 30
0.0
 10
185.0526824818206
 20
139.2834169331016
 30
0.0
 10
185.0526824818206
 20
140.5758445043918
 30
0.0
 10
185.0526824818206
 20
141.9085796928613
 30
0.0
 10
184.245152100078
 20
142.595187223071
 30
0.0
 10
181.8218719357533
 20
143.4433697315401
 30
0.0
 10
177.9847245842814
 20
144.7762771747839
 30
0.0
 10
176.3693193112484
 20
146.8764073825916
 30
0.0
 10
176.4096269284258
 20
149.1785924406104
 30
0.0
 10
176.4096269284258
 20
152.6519377088387
 30
0.0
 10
179.2773244103477
 20
155.3578879577288
 30
0.0
 10
183.8410423996582
 20
155.3578879577288
 30
0.0
 10
186.0221323513699
 20
155.3578879577288
 30
0.0
 10
187.9203799637419
 20
154.7925477885983
 30
0.0
 10
189.0514048115494
 20
154.1867277475175
 30
0.0
 10
189.0514048115494
 20
154.1867277475175
 30
0.0
 10
188.0819549420007
 20
150.6729026073372
 30
0.0
 10
188.0819549420007
 20
150.6729026073372
 30
0.0
 10
187.2337724335323
 20
151.1576275421122
 30
0.0
 10
185.658674777676
 20
151.8037552003698
 30
0.0
 10
183.9220021435616
 20
151.8037552003698
 30
0.0
 10
182.1450218922697
 20
151.8037552003698
 30
0.0
 10
181.1755720227204
 20
150.9555726919023
 30
0.0
 10
181.1755720227204
 20
149.7439326097393
 30
0.0
 10
181.1755720227204
 20
148.4919849103989
 30
0.0
 10
182.1043697655438
 20
147.8861648693183
 30
0.0
 10
184.6086096737719
 20
146.9975024888988
 30
0.0
 10
188.1625701763556
 20
145.7050749176066
 30
0.0
 10
189.8186275761152
 20
143.8876147943631
 30
0.0
 10
189.8589351932926
 20
140.979781950038
 30
0.0
 10
189.8589351932926
 20
137.4254769379057
 30
0.0
 10
187.072197455274
 20
134.8406217953234
 30
0.0
 10
181.8621795529313
 20
134.8406217953234
 30
0.0
 10
179.4792070057834
 20
134.8406217953234
 30
0.0
 10
177.3387691807977
 20
135.4061342192271
 30
0.0
 10
175.8845943764744
 20
136.2138368557446
 30
0.0
 10
175.8845943764744
 20
136.2138368557446
 30
0.0
 10
176.854044246023
 20
139.8084494850536
 30
0.0
 10
176.854044246023
 20
139.8084494850536
 30
0.0
  0
HATCH
  5
A0
330
9B
100
AcDbEntity
  8
Layer 1
 62
   178
420
    65793
100
AcDbHatch
 10
0.0
 20
0.0
 30
0.0
210
0.0
220
0.0
230
1.0
  2
SOLID
 70
     1
 71
     0
 91
        1
 92
        1
 93
        1
 72
     4
 94
        3
 73
     0
 74
     1
 95
       47
 96
       43
 40
0.0
 40
0.0
 40
0.0
 40
0.0
 40
1.0
 40
1.0
 40
1.0
 40
2.0
 40
2.0
 40
2.0
 40
3.0
 40
3.0
 40
3.0
 40
4.0
 40
4.0
 40
4.0
 40
5.0
 40
5.0
 40
5.0
 40
6.0
 40
6.0
 40
6.0
 40
7.0
 40
7.0
 40
7.0
 40
8.0
 40
8.0
 40
8.0
 40
9.0
 40
9.0
 40
9.0
 40
10.0
 40
10.0
 40
10.0
 40
11.0
 40
11.0
 40
11.0
 40
12.0
 40
12.0
 40
12.0
 40
13.0
 40
13.0
 40
13.0
 40
14.0
 40
14.0
 40
14.0
 40
14.0
 10
176.854044246023
 20
139.8084494850536
 10
177.9847245842814
 20
139.1218419548421
 10
180.1255069188163
 20
138.3949268074556
 10
181.9024871701081
 20
138.3949268074556
 10
184.0835771218192
 20
138.3949268074556
 10
185.0526824818206
 20
139.2834169331016
 10
185.0526824818206
 20
140.5758445043918
 10
185.0526824818206
 20
141.9085796928613
 10
184.245152100078
 20
142.595187223071
 10
181.8218719357533
 20
143.4433697315401
 10
177.9847245842814
 20
144.7762771747839
 10
176.3693193112484
 20
146.8764073825916
 10
176.4096269284258
 20
149.1785924406104
 10
176.4096269284258
 20
152.6519377088387
 10
179.2773244103477
 20
155.3578879577288
 10
183.8410423996582
 20
155.3578879577288
 10
186.0221323513699
 20
155.3578879577288
 10
187.9203799637419
 20
154.7925477885983
 10
189.0514048115494
 20
154.1867277475175
 10
189.0514048115494
 20
154.1867277475175
 10
188.0819549420007
 20
150.6729026073372
 10
188.0819549420007
 20
150.6729026073372
 10
187.2337724335323
 20
151.1576275421122
 10
185.658674777676
 20
151.8037552003698
 10
183.9220021435616
 20
151.8037552003698
 10
182.1450218922697
 20
151.8037552003698
 10
181.1755720227204
 20
150.9555726919023
 10
181.1755720227204
 20
149.7439326097393
 10
181.1755720227204
 20
148.4919849103989
 10
182.1043697655438
 20
147.8861648693183
 10
184.6086096737719
 20
146.9975024888988
 10
188.1625701763556
 20
145.7050749176066
 10
189.8186275761152
 20
143.8876147943631
 10
189.8589351932926
 20
140.979781950038
 10
189.8589351932926
 20
137.4254769379057
 10
187.072197455274
 20
134.8406217953234
 10
181.8621795529313
 20
134.8406217953234
 10
179.4792070057834
 20
134.8406217953234
 10
177.3387691807977
 20
135.4061342192271
 10
175.8845943764744
 20
136.2138368557446
 10
175.8845943764744
 20
136.2138368557446
 10
176.854044246023
 20
139.8084494850536
 10
176.854044246023
 20
139.8084494850536
 97
        0
 97
        0
 75
     2
 76
     1
 98
        0
  0
ENDBLK
  5
9E
330
9B
100
AcDbEntity
  8
0
100
AcDbBlockEnd
  0
BLOCK
  5
A3
330
A1
100
AcDbEntity
  8
0
100
AcDbBlockBegin
  2
block 19
 70
     0
 10
0.0
 20
0.0
 30
0.0
  3
block 19
  1

  0
SPLINE
  5
A5
330
A1
100
AcDbEntity
  8
Layer 1
370
     0
100
AcDbSpline
210
0.0
220
0.0
230
1.0
 70
    11
 71
     3
 72
    62
 73
    58
 74
     0
 42
0.0000000001
 43
0.0000000001
 12
1.0
 22
0.0
 32
0.0
 13
1.0
 23
0.0
 33
0.0
 40
0.0
 40
0.0
 40
0.0
 40
0.0
 40
1.0
 40
1.0
 40
1.0
 40
2.0
 40
2.0
 40
2.0
 40
3.0
 40
3.0
 40
3.0
 40
4.0
 40
4.0
 40
4.0
 40
5.0
 40
5.0
 40
5.0
 40
6.0
 40
6.0
 40
6.0
 40
7.0
 40
7.0
 40
7.0
 40
8.0
 40
8.0
 40
8.0
 40
9.0
 40
9.0
 40
9.0
 40
10.0
 40
10.0
 40
10.0
 40
11.0
 40
11.0
 40
11.0
 40
12.0
 40
12.0
 40
12.0
 40
13.0
 40
13.0
 40
13.0
 40
14.0
 40
14.0
 40
14.0
 40
15.0
 40
15.0
 40
15.0
 40
16.0
 40
16.0
 40
16.0
 40
17.0
 40
17.0
 40
17.0
 40
18.0
 40
18.0
 40
18.0
 40
19.0
 40
19.0
 40
19.0
 40
19.0
 10
63.90314366662185
 20
160.1891176114683
 30
0.0
 10
61.45936518415988
 20
162.2968270293441
 30
0.0
 10
58.24371305822768
 20
163.6199159504543
 30
0.0
 10
54.34748231918437
 20
164.1201438149126
 30
0.0
 10
54.34748231918437
 20
164.1201438149126
 30
0.0
 10
53.08795540977703
 20
164.3161191145398
 30
0.0
 10
53.08795540977703
 20
164.3161191145398
 30
0.0
 10
53.08795540977703
 20
164.3161191145398
 30
0.0
 10
64.63350390949482
 20
178.5055555109292
 30
0.0
 10
64.63350390949482
 20
178.5055555109292
 30
0.0
 10
64.63350390949482
 20
178.5055555109292
 30
0.0
 10
53.79988439180391
 20
178.5055555109292
 30
0.0
 10
53.79988439180391
 20
178.5055555109292
 30
0.0
 10
53.79988439180391
 20
178.5055555109292
 30
0.0
 10
44.52103646660626
 20
167.0403283695012
 30
0.0
 10
44.52103646660626
 20
167.0403283695012
 30
0.0
 10
43.76733570182265
 20
166.1119181999199
 30
0.0
 10
43.07241687875131
 20
165.2071537830011
 30
0.0
 10
42.43468664073896
 20
164.3598325484039
 30
0.0
 10
44.7339003039021
 20
163.5696998988619
 30
0.0
 10
46.78403356348168
 20
162.2839383265971
 30
0.0
 10
48.56368376377269
 20
160.5232361514731
 30
0.0
 10
49.95558846720267
 20
159.1246781073891
 30
0.0
 10
51.05595196519148
 20
157.5298743749887
 30
0.0
 10
51.86968351880748
 20
155.7592675503445
 30
0.0
 10
52.05546029284766
 20
155.774189120165
 30
0.0
 10
52.24244285031152
 20
155.7838008713845
 30
0.0
 10
52.43321501280531
 20
155.7838008713845
 30
0.0
 10
54.21553516209931
 20
155.7838008713845
 30
0.0
 10
55.78115880537109
 20
155.1301305746058
 30
0.0
 10
57.08633322995799
 20
153.8426983917679
 30
0.0
 10
58.39443598570736
 20
152.5525101325418
 30
0.0
 10
59.05778912139222
 20
150.9759665968781
 30
0.0
 10
59.05778912139222
 20
149.1579897093117
 30
0.0
 10
59.05778912139222
 20
147.3718799549839
 30
0.0
 10
58.39460824048162
 20
145.8119067984561
 30
0.0
 10
57.08650548473226
 20
144.5213740296815
 30
0.0
 10
55.92025453558998
 20
143.3711212426969
 30
0.0
 10
54.54441258985901
 20
142.7314792417634
 30
0.0
 10
52.99244013745041
 20
142.6078003138429
 30
0.0
 10
52.64831816216655
 20
141.2143453174465
 30
0.0
 10
52.15622933579122
 20
139.8467200569877
 30
0.0
 10
51.50734560114441
 20
138.5154920977936
 30
0.0
 10
50.82797277145314
 20
137.1364849705885
 30
0.0
 10
49.84594830338268
 20
135.5391622087515
 30
0.0
 10
48.57470806932548
 20
133.7403917285155
 30
0.0
 10
49.73639426695173
 20
133.4985029617574
 30
0.0
 10
50.95729304323167
 20
133.3728086861123
 30
0.0
 10
52.23908388221147
 20
133.3728086861123
 30
0.0
 10
56.80176834287636
 20
133.3728086861123
 30
0.0
 10
60.61945090485597
 20
134.8169216750018
 30
0.0
 10
63.58619488197886
 20
137.6649821126578
 30
0.0
 10
66.68988140464045
 20
140.7256049417538
 30
0.0
 10
68.26687386301356
 20
144.8903561205321
 30
0.0
 10
68.26687386301356
 20
150.0368120111725
 30
0.0
 10
68.26687386301356
 20
154.317687661144
 30
0.0
 10
66.83957080347454
 20
157.6385411689635
 30
0.0
 10
63.90314366662185
 20
160.1891176114683
 30
0.0
  0
ENDBLK
  5
A4
330
A1
100
AcDbEntity
  8
0
100
AcDbBlockEnd
  0
BLOCK
  5
A8
330
A6
100
AcDbEntity
  8
0
100
AcDbBlockBegin
  2
block 20
 70
     0
 10
0.0
 20
0.0
 30
0.0
  3
block 20
  1

  0
SPLINE
  5
AA
330
A6
100
AcDbEntity
  8
Layer 1
370
     0
100
AcDbSpline
210
0.0
220
0.0
230
1.0
 70
    11
 71
     3
 72
    62
 73
    58
 74
     0
 42
0.0000000001
 43
0.0000000001
 12
1.0
 22
0.0
 32
0.0
 13
1.0
 23
0.0
 33
0.0
 40
0.0
 40
0.0
 40
0.0
 40
0.0
 40
1.0
 40
1.0
 40
1.0
 40
2.0
 40
2.0
 40
2.0
 40
3.0
 40
3.0
 40
3.0
 40
4.0
 40
4.0
 40
4.0
 40
5.0
 40
5.0
 40
5.0
 40
6.0
 40
6.0
 40
6.0
 40
7.0
 40
7.0
 40
7.0
 40
8.0
 40
8.0
 40
8.0
 40
9.0
 40
9.0
 40
9.0
 40
10.0
 40
10.0
 40
10.0
 40
11.0
 40
11.0
 40
11.0
 40
12.0
 40
12.0
 40
12.0
 40
13.0
 40
13.0
 40
13.0
 40
14.0
 40
14.0
 40
14.0
 40
15.0
 40
15.0
 40
15.0
 40
16.0
 40
16.0
 40
16.0
 40
17.0
 40
17.0
 40
17.0
 40
18.0
 40
18.0
 40
18.0
 40
19.0
 40
19.0
 40
19.0
 40
19.0
 10
63.90314366662153
 20
160.1891176114676
 30
0.0
 10
61.4593651841602
 20
162.2968270293441
 30
0.0
 10
58.243713058228
 20
163.619915950454
 30
0.0
 10
54.34748231918405
 20
164.1201438149126
 30
0.0
 10
54.34748231918405
 20
164.1201438149126
 30
0.0
 10
53.08795540977671
 20
164.3161191145392
 30
0.0
 10
53.08795540977671
 20
164.3161191145392
 30
0.0
 10
53.08795540977671
 20
164.3161191145392
 30
0.0
 10
64.63350390949513
 20
178.5055555109282
 30
0.0
 10
64.63350390949513
 20
178.5055555109282
 30
0.0
 10
64.63350390949513
 20
178.5055555109282
 30
0.0
 10
53.79988439180359
 20
178.5055555109282
 30
0.0
 10
53.79988439180359
 20
178.5055555109282
 30
0.0
 10
53.79988439180359
 20
178.5055555109282
 30
0.0
 10
44.52103646660594
 20
167.0403283695012
 30
0.0
 10
44.52103646660594
 20
167.0403283695012
 30
0.0
 10
43.76733570182233
 20
166.1119181999202
 30
0.0
 10
43.07241687875131
 20
165.2071537830014
 30
0.0
 10
42.43468664073896
 20
164.3598325484036
 30
0.0
 10
44.73390030390178
 20
163.5696998988625
 30
0.0
 10
46.78403356348136
 20
162.2839383265965
 30
0.0
 10
48.56368376377269
 20
160.5232361514737
 30
0.0
 10
49.955588467203
 20
159.1246781073894
 30
0.0
 10
51.05595196519116
 20
157.529874374988
 30
0.0
 10
51.86968351880716
 20
155.7592675503438
 30
0.0
 10
52.05546029284734
 20
155.7741891201656
 30
0.0
 10
52.2424428503112
 20
155.7838008713842
 30
0.0
 10
52.43321501280531
 20
155.7838008713842
 30
0.0
 10
54.21553516209899
 20
155.7838008713842
 30
0.0
 10
55.78115880537142
 20
155.1301305746054
 30
0.0
 10
57.08633322995831
 20
153.8426983917689
 30
0.0
 10
58.39443598570736
 20
152.5525101325418
 30
0.0
 10
59.05778912139189
 20
150.9759665968778
 30
0.0
 10
59.05778912139189
 20
149.1579897093124
 30
0.0
 10
59.05778912139189
 20
147.3718799549839
 30
0.0
 10
58.3946082404813
 20
145.8119067984574
 30
0.0
 10
57.08650548473226
 20
144.5213740296822
 30
0.0
 10
55.92025453558966
 20
143.3711212426969
 30
0.0
 10
54.54441258985901
 20
142.7314792417634
 30
0.0
 10
52.99244013745041
 20
142.6078003138429
 30
0.0
 10
52.64831816216655
 20
141.2143453174465
 30
0.0
 10
52.15622933579154
 20
139.8467200569884
 30
0.0
 10
51.50734560114473
 20
138.515492097793
 30
0.0
 10
50.82797277145314
 20
137.1364849705878
 30
0.0
 10
49.84594830338268
 20
135.5391622087515
 30
0.0
 10
48.57470806932581
 20
133.7403917285155
 30
0.0
 10
49.73639426695205
 20
133.498502961758
 30
0.0
 10
50.95729304323199
 20
133.3728086861117
 30
0.0
 10
52.23908388221147
 20
133.3728086861117
 30
0.0
 10
56.80176834287668
 20
133.3728086861117
 30
0.0
 10
60.61945090485597
 20
134.8169216750011
 30
0.0
 10
63.58619488197886
 20
137.6649821126572
 30
0.0
 10
66.68988140464045
 20
140.7256049417538
 30
0.0
 10
68.26687386301323
 20
144.8903561205314
 30
0.0
 10
68.26687386301323
 20
150.0368120111725
 30
0.0
 10
68.26687386301323
 20
154.3176876611433
 30
0.0
 10
66.83957080347454
 20
157.6385411689642
 30
0.0
 10
63.90314366662153
 20
160.1891176114676
 30
0.0
  0
HATCH
  5
AB
330
A6
100
AcDbEntity
  8
Layer 1
 62
   178
420
    65793
100
AcDbHatch
 10
0.0
 20
0.0
 30
0.0
210
0.0
220
0.0
230
1.0
  2
SOLID
 70
     1
 71
     0
 91
        1
 92
        1
 93
        1
 72
     4
 94
        3
 73
     0
 74
     1
 95
       62
 96
       58
 40
0.0
 40
0.0
 40
0.0
 40
0.0
 40
1.0
 40
1.0
 40
1.0
 40
2.0
 40
2.0
 40
2.0
 40
3.0
 40
3.0
 40
3.0
 40
4.0
 40
4.0
 40
4.0
 40
5.0
 40
5.0
 40
5.0
 40
6.0
 40
6.0
 40
6.0
 40
7.0
 40
7.0
 40
7.0
 40
8.0
 40
8.0
 40
8.0
 40
9.0
 40
9.0
 40
9.0
 40
10.0
 40
10.0
 40
10.0
 40
11.0
 40
11.0
 40
11.0
 40
12.0
 40
12.0
 40
12.0
 40
13.0
 40
13.0
 40
13.0
 40
14.0
 40
14.0
 40
14.0
 40
15.0
 40
15.0
 40
15.0
 40
16.0
 40
16.0
 40
16.0
 40
17.0
 40
17.0
 40
17.0
 40
18.0
 40
18.0
 40
18.0
 40
19.0
 40
19.0
 40
19.0
 40
19.0
 10
63.90314366662153
 20
160.1891176114676
 10
61.4593651841602
 20
162.2968270293441
 10
58.243713058228
 20
163.619915950454
 10
54.34748231918405
 20
164.1201438149126
 10
54.34748231918405
 20
164.1201438149126
 10
53.08795540977671
 20
164.3161191145392
 10
53.08795540977671
 20
164.3161191145392
 10
53.08795540977671
 20
164.3161191145392
 10
64.63350390949513
 20
178.5055555109282
 10
64.63350390949513
 20
178.5055555109282
 10
64.63350390949513
 20
178.5055555109282
 10
53.79988439180359
 20
178.5055555109282
 10
53.79988439180359
 20
178.5055555109282
 10
53.79988439180359
 20
178.5055555109282
 10
44.52103646660594
 20
167.0403283695012
 10
44.52103646660594
 20
167.0403283695012
 10
43.76733570182233
 20
166.1119181999202
 10
43.07241687875131
 20
165.2071537830014
 10
42.43468664073896
 20
164.3598325484036
 10
44.73390030390178
 20
163.5696998988625
 10
46.78403356348136
 20
162.2839383265965
 10
48.56368376377269
 20
160.5232361514737
 10
49.955588467203
 20
159.1246781073894
 10
51.05595196519116
 20
157.529874374988
 10
51.86968351880716
 20
155.7592675503438
 10
52.05546029284734
 20
155.7741891201656
 10
52.2424428503112
 20
155.7838008713842
 10
52.43321501280531
 20
155.7838008713842
 10
54.21553516209899
 20
155.7838008713842
 10
55.78115880537142
 20
155.1301305746054
 10
57.08633322995831
 20
153.8426983917689
 10
58.39443598570736
 20
152.5525101325418
 10
59.05778912139189
 20
150.9759665968778
 10
59.05778912139189
 20
149.1579897093124
 10
59.05778912139189
 20
147.3718799549839
 10
58.3946082404813
 20
145.8119067984574
 10
57.08650548473226
 20
144.5213740296822
 10
55.92025453558966
 20
143.3711212426969
 10
54.54441258985901
 20
142.7314792417634
 10
52.99244013745041
 20
142.6078003138429
 10
52.64831816216655
 20
141.2143453174465
 10
52.15622933579154
 20
139.8467200569884
 10
51.50734560114473
 20
138.515492097793
 10
50.82797277145314
 20
137.1364849705878
 10
49.84594830338268
 20
135.5391622087515
 10
48.57470806932581
 20
133.7403917285155
 10
49.73639426695205
 20
133.498502961758
 10
50.95729304323199
 20
133.3728086861117
 10
52.23908388221147
 20
133.3728086861117
 10
56.80176834287668
 20
133.3728086861117
 10
60.61945090485597
 20
134.8169216750011
 10
63.58619488197886
 20
137.6649821126572
 10
66.68988140464045
 20
140.7256049417538
 10
68.26687386301323
 20
144.8903561205314
 10
68.26687386301323
 20
150.0368120111725
 10
68.26687386301323
 20
154.3176876611433
 10
66.83957080347454
 20
157.6385411689642
 10
63.90314366662153
 20
160.1891176114676
 97
        0
 97
        0
 75
     2
 76
     1
 98
        0
  0
ENDBLK
  5
A9
330
A6
100
AcDbEntity
  8
0
100
AcDbBlockEnd
  0
BLOCK
  5
AE
330
AC
100
AcDbEntity
  8
0
100
AcDbBlockBegin
  2
block 21
 70
     0
 10
0.0
 20
0.0
 30
0.0
  3
block 21
  1

  0
SPLINE
  5
B0
330
AC
100
AcDbEntity
  8
Layer 1
370
     0
100
AcDbSpline
210
0.0
220
0.0
230
1.0
 70
    11
 71
     3
 72
    23
 73
    19
 74
     0
 42
0.0000000001
 43
0.0000000001
 12
1.0
 22
0.0
 32
0.0
 13
1.0
 23
0.0
 33
0.0
 40
0.0
 40
0.0
 40
0.0
 40
0.0
 40
1.0
 40
1.0
 40
1.0
 40
2.0
 40
2.0
 40
2.0
 40
3.0
 40
3.0
 40
3.0
 40
4.0
 40
4.0
 40
4.0
 40
5.0
 40
5.0
 40
5.0
 40
6.0
 40
6.0
 40
6.0
 40
6.0
 10
41.44525521737521
 20
148.0775399235239
 30
0.0
 10
41.44525521737521
 20
149.4860672126683
 30
0.0
 10
40.93693137852659
 20
150.6770367219192
 30
0.0
 10
39.89134489875327
 20
151.7184890871102
 30
0.0
 10
38.99071081152375
 20
152.6156996107032
 30
0.0
 10
37.97699146498899
 20
153.113494376475
 30
0.0
 10
36.80819975792153
 20
153.2350201197172
 30
0.0
 10
36.60722150005365
 20
152.1415898763925
 30
0.0
 10
36.50205996036448
 20
151.0329796810859
 30
0.0
 10
36.50205996036448
 20
149.9127422885165
 30
0.0
 10
36.50205996036448
 20
147.3945928072667
 30
0.0
 10
36.88756614516394
 20
145.1132721087811
 30
0.0
 10
37.65298023460124
 20
143.0827758934684
 30
0.0
 10
38.47424793458836
 20
143.3165471539893
 30
0.0
 10
39.21507265499873
 20
143.762902337797
 30
0.0
 10
39.89134489875327
 20
144.4365907599376
 30
0.0
 10
40.93693137852659
 20
145.4780431251287
 30
0.0
 10
41.44525521737521
 20
146.6690126343795
 30
0.0
 10
41.44525521737521
 20
148.0775399235239
 30
0.0
  0
ENDBLK
  5
AF
330
AC
100
AcDbEntity
  8
0
100
AcDbBlockEnd
  0
BLOCK
  5
B3
330
B1
100
AcDbEntity
  8
0
100
AcDbBlockBegin
  2
block 22
 70
     0
 10
0.0
 20
0.0
 30
0.0
  3
block 22
  1

  0
SPLINE
  5
B5
330
B1
100
AcDbEntity
  8
Layer 1
370
     0
100
AcDbSpline
210
0.0
220
0.0
230
1.0
 70
    11
 71
     3
 72
    23
 73
    19
 74
     0
 42
0.0000000001
 43
0.0000000001
 12
1.0
 22
0.0
 32
0.0
 13
1.0
 23
0.0
 33
0.0
 40
0.0
 40
0.0
 40
0.0
 40
0.0
 40
1.0
 40
1.0
 40
1.0
 40
2.0
 40
2.0
 40
2.0
 40
3.0
 40
3.0
 40
3.0
 40
4.0
 40
4.0
 40
4.0
 40
5.0
 40
5.0
 40
5.0
 40
6.0
 40
6.0
 40
6.0
 40
6.0
 10
41.44525521737489
 20
148.0775399235246
 30
0.0
 10
41.44525521737489
 20
149.4860672126686
 30
0.0
 10
40.93693137852691
 20
150.6770367219195
 30
0.0
 10
39.89134489875359
 20
151.7184890871102
 30
0.0
 10
38.99071081152344
 20
152.6156996107038
 30
0.0
 10
37.97699146498899
 20
153.1134943764753
 30
0.0
 10
36.80819975792153
 20
153.2350201197169
 30
0.0
 10
36.60722150005365
 20
152.1415898763934
 30
0.0
 10
36.50205996036448
 20
151.0329796810855
 30
0.0
 10
36.50205996036448
 20
149.9127422885159
 30
0.0
 10
36.50205996036448
 20
147.3945928072661
 30
0.0
 10
36.88756614516426
 20
145.1132721087817
 30
0.0
 10
37.65298023460092
 20
143.0827758934684
 30
0.0
 10
38.47424793458803
 20
143.3165471539887
 30
0.0
 10
39.21507265499841
 20
143.7629023377977
 30
0.0
 10
39.89134489875359
 20
144.4365907599383
 30
0.0
 10
40.93693137852691
 20
145.4780431251293
 30
0.0
 10
41.44525521737489
 20
146.6690126343802
 30
0.0
 10
41.44525521737489
 20
148.0775399235246
 30
0.0
  0
HATCH
  5
B6
330
B1
100
AcDbEntity
  8
Layer 1
 62
   178
420
    65793
100
AcDbHatch
 10
0.0
 20
0.0
 30
0.0
210
0.0
220
0.0
230
1.0
  2
SOLID
 70
     1
 71
     0
 91
        1
 92
        1
 93
        1
 72
     4
 94
        3
 73
     0
 74
     1
 95
       23
 96
       19
 40
0.0
 40
0.0
 40
0.0
 40
0.0
 40
1.0
 40
1.0
 40
1.0
 40
2.0
 40
2.0
 40
2.0
 40
3.0
 40
3.0
 40
3.0
 40
4.0
 40
4.0
 40
4.0
 40
5.0
 40
5.0
 40
5.0
 40
6.0
 40
6.0
 40
6.0
 40
6.0
 10
41.44525521737489
 20
148.0775399235246
 10
41.44525521737489
 20
149.4860672126686
 10
40.93693137852691
 20
150.6770367219195
 10
39.89134489875359
 20
151.7184890871102
 10
38.99071081152344
 20
152.6156996107038
 10
37.97699146498899
 20
153.1134943764753
 10
36.80819975792153
 20
153.2350201197169
 10
36.60722150005365
 20
152.1415898763934
 10
36.50205996036448
 20
151.0329796810855
 10
36.50205996036448
 20
149.9127422885159
 10
36.50205996036448
 20
147.3945928072661
 10
36.88756614516426
 20
145.1132721087817
 10
37.65298023460092
 20
143.0827758934684
 10
38.47424793458803
 20
143.3165471539887
 10
39.21507265499841
 20
143.7629023377977
 10
39.89134489875359
 20
144.4365907599383
 10
40.93693137852691
 20
145.4780431251293
 10
41.44525521737489
 20
146.6690126343802
 10
41.44525521737489
 20
148.0775399235246
 97
        0
 97
        0
 75
     2
 76
     1
 98
        0
  0
ENDBLK
  5
B4
330
B1
100
AcDbEntity
  8
0
100
AcDbBlockEnd
  0
BLOCK
  5
B9
330
B7
100
AcDbEntity
  8
0
100
AcDbBlockBegin
  2
block 23
 70
     0
 10
0.0
 20
0.0
 30
0.0
  3
block 23
  1

  0
SPLINE
  5
BB
330
B7
100
AcDbEntity
  8
Layer 1
370
     0
100
AcDbSpline
210
0.0
220
0.0
230
1.0
 70
    11
 71
     3
 72
    44
 73
    40
 74
     0
 42
0.0000000001
 43
0.0000000001
 12
1.0
 22
0.0
 32
0.0
 13
1.0
 23
0.0
 33
0.0
 40
0.0
 40
0.0
 40
0.0
 40
0.0
 40
1.0
 40
1.0
 40
1.0
 40
2.0
 40
2.0
 40
2.0
 40
3.0
 40
3.0
 40
3.0
 40
4.0
 40
4.0
 40
4.0
 40
5.0
 40
5.0
 40
5.0
 40
6.0
 40
6.0
 40
6.0
 40
7.0
 40
7.0
 40
7.0
 40
8.0
 40
8.0
 40
8.0
 40
9.0
 40
9.0
 40
9.0
 40
10.0
 40
10.0
 40
10.0
 40
11.0
 40
11.0
 40
11.0
 40
12.0
 40
12.0
 40
12.0
 40
13.0
 40
13.0
 40
13.0
 40
13.0
 10
47.56736214943843
 20
159.5154291893276
 30
0.0
 10
44.63679167491066
 20
162.4148215497139
 30
0.0
 10
40.88680523921621
 20
163.8869108505612
 30
0.0
 10
36.42575109536619
 20
163.8869108505612
 30
0.0
 10
31.86410016334689
 20
163.8869108505612
 30
0.0
 10
28.04710662046433
 20
162.4294632055262
 30
0.0
 10
25.08070715288996
 20
159.555047787408
 30
0.0
 10
21.97392004429165
 20
156.5262920915506
 30
0.0
 10
20.39778885978985
 20
152.3854595730546
 30
0.0
 10
20.39778885978985
 20
147.2493389688699
 30
0.0
 10
20.39778885978985
 20
142.9438308861789
 30
0.0
 10
21.82405839068328
 20
139.62930451982
 30
0.0
 10
24.75807396069631
 20
137.1162796181045
 30
0.0
 10
27.20426400999796
 20
135.0080534359059
 30
0.0
 10
30.41974388115589
 20
133.6868593173126
 30
0.0
 10
34.31700814884477
 20
133.1881817458227
 30
0.0
 10
34.31700814884477
 20
133.1881817458227
 30
0.0
 10
35.57481251050949
 20
133.0325495572765
 30
0.0
 10
35.57481251050949
 20
133.0325495572765
 30
0.0
 10
35.57481251050949
 20
133.0325495572765
 30
0.0
 10
35.00249302750322
 20
132.3551395562965
 30
0.0
 10
35.00249302750322
 20
132.3551395562965
 30
0.0
 10
35.00249302750322
 20
132.3551395562965
 30
0.0
 10
24.02823048214613
 20
118.8861110813896
 30
0.0
 10
24.02823048214613
 20
118.8861110813896
 30
0.0
 10
24.02823048214613
 20
118.8861110813896
 30
0.0
 10
34.86495058577376
 20
118.8861110813896
 30
0.0
 10
34.86495058577376
 20
118.8861110813896
 30
0.0
 10
34.86495058577376
 20
118.8861110813896
 30
0.0
 10
44.14379851097141
 20
130.2852936564677
 30
0.0
 10
44.14379851097141
 20
130.2852936564677
 30
0.0
 10
47.04921978845686
 20
133.8640588465452
 30
0.0
 10
49.10042964037461
 20
136.8357374014763
 30
0.0
 10
50.24023948166952
 20
139.1491190198216
 30
0.0
 10
51.51561383030901
 20
141.7656690408689
 30
0.0
 10
52.16294727198746
 20
144.5220595332945
 30
0.0
 10
52.16294727198746
 20
147.3547892960412
 30
0.0
 10
52.16294727198746
 20
152.3653361697886
 30
0.0
 10
50.61678841820733
 20
156.4515335195207
 30
0.0
 10
47.56736214943843
 20
159.5154291893276
 30
0.0
  0
ENDBLK
  5
BA
330
B7
100
AcDbEntity
  8
0
100
AcDbBlockEnd
  0
BLOCK
  5
BE
330
BC
100
AcDbEntity
  8
0
100
AcDbBlockBegin
  2
block 24
 70
     0
 10
0.0
 20
0.0
 30
0.0
  3
block 24
  1

  0
SPLINE
  5
C0
330
BC
100
AcDbEntity
  8
Layer 1
370
     0
100
AcDbSpline
210
0.0
220
0.0
230
1.0
 70
    11
 71
     3
 72
    29
 73
    25
 74
     0
 42
0.0000000001
 43
0.0000000001
 12
1.0
 22
0.0
 32
0.0
 13
1.0
 23
0.0
 33
0.0
 40
0.0
 40
0.0
 40
0.0
 40
0.0
 40
1.0
 40
1.0
 40
1.0
 40
2.0
 40
2.0
 40
2.0
 40
3.0
 40
3.0
 40
3.0
 40
4.0
 40
4.0
 40
4.0
 40
5.0
 40
5.0
 40
5.0
 40
6.0
 40
6.0
 40
6.0
 40
7.0
 40
7.0
 40
7.0
 40
8.0
 40
8.0
 40
8.0
 40
8.0
 10
40.887322003539
 20
143.4368240501181
 30
0.0
 10
39.58197532417783
 20
142.1366450139849
 30
0.0
 10
38.015662661809
 20
141.477253738108
 30
0.0
 10
36.23179221954663
 20
141.477253738108
 30
0.0
 10
34.44723275818721
 20
141.477253738108
 30
0.0
 10
32.88057558626985
 20
142.1366450139849
 30
0.0
 10
31.57522890690869
 20
143.4368240501181
 30
0.0
 10
30.26936546322474
 20
144.7375198505742
 30
0.0
 10
29.60721811095972
 20
146.2990093792637
 30
0.0
 10
29.60721811095972
 20
148.0775399235239
 30
0.0
 10
29.60721811095972
 20
149.8560704677842
 30
0.0
 10
30.26936546322474
 20
151.4175599964736
 30
0.0
 10
31.57522890690869
 20
152.7182557969297
 30
0.0
 10
32.88057558626985
 20
154.0186070878373
 30
0.0
 10
34.44723275818721
 20
154.6778261089398
 30
0.0
 10
36.23179221954663
 20
154.6778261089398
 30
0.0
 10
38.015662661809
 20
154.6778261089398
 30
0.0
 10
39.58197532417783
 20
154.0186070878373
 30
0.0
 10
40.887322003539
 20
152.7182557969297
 30
0.0
 10
42.19387446632
 20
151.4168709773766
 30
0.0
 10
42.85636632813354
 20
149.8553814486871
 30
0.0
 10
42.85636632813354
 20
148.0775399235239
 30
0.0
 10
42.85636632813354
 20
146.2995261435865
 30
0.0
 10
42.19387446632
 20
144.7382088696713
 30
0.0
 10
40.887322003539
 20
143.4368240501181
 30
0.0
  0
ENDBLK
  5
BF
330
BC
100
AcDbEntity
  8
0
100
AcDbBlockEnd
  0
BLOCK
  5
C3
330
C1
100
AcDbEntity
  8
0
100
AcDbBlockBegin
  2
block 25
 70
     0
 10
0.0
 20
0.0
 30
0.0
  3
block 25
  1

  0
SPLINE
  5
C5
330
C1
100
AcDbEntity
  8
Layer 1
370
     0
100
AcDbSpline
210
0.0
220
0.0
230
1.0
 70
    11
 71
     3
 72
    44
 73
    40
 74
     0
 42
0.0000000001
 43
0.0000000001
 12
1.0
 22
0.0
 32
0.0
 13
1.0
 23
0.0
 33
0.0
 40
0.0
 40
0.0
 40
0.0
 40
0.0
 40
1.0
 40
1.0
 40
1.0
 40
2.0
 40
2.0
 40
2.0
 40
3.0
 40
3.0
 40
3.0
 40
4.0
 40
4.0
 40
4.0
 40
5.0
 40
5.0
 40
5.0
 40
6.0
 40
6.0
 40
6.0
 40
7.0
 40
7.0
 40
7.0
 40
8.0
 40
8.0
 40
8.0
 40
9.0
 40
9.0
 40
9.0
 40
10.0
 40
10.0
 40
10.0
 40
11.0
 40
11.0
 40
11.0
 40
12.0
 40
12.0
 40
12.0
 40
13.0
 40
13.0
 40
13.0
 40
13.0
 10
47.56736214943843
 20
159.5154291893286
 30
0.0
 10
44.63679167491098
 20
162.4148215497133
 30
0.0
 10
40.88680523921589
 20
163.8869108505605
 30
0.0
 10
36.42575109536619
 20
163.8869108505605
 30
0.0
 10
31.86410016334721
 20
163.8869108505605
 30
0.0
 10
28.04710662046401
 20
162.4294632055262
 30
0.0
 10
25.08070715289028
 20
159.5550477874074
 30
0.0
 10
21.97392004429133
 20
156.52629209155
 30
0.0
 10
20.39778885978953
 20
152.3854595730552
 30
0.0
 10
20.39778885978953
 20
147.2493389688699
 30
0.0
 10
20.39778885978953
 20
142.9438308861789
 30
0.0
 10
21.82405839068296
 20
139.62930451982
 30
0.0
 10
24.75807396069599
 20
137.1162796181052
 30
0.0
 10
27.20426400999764
 20
135.0080534359059
 30
0.0
 10
30.41974388115557
 20
133.6868593173132
 30
0.0
 10
34.31700814884477
 20
133.1881817458233
 30
0.0
 10
34.31700814884477
 20
133.1881817458233
 30
0.0
 10
35.57481251050949
 20
133.0325495572759
 30
0.0
 10
35.57481251050949
 20
133.0325495572759
 30
0.0
 10
35.57481251050949
 20
133.0325495572759
 30
0.0
 10
35.00249302750354
 20
132.3551395562971
 30
0.0
 10
35.00249302750354
 20
132.3551395562971
 30
0.0
 10
35.00249302750354
 20
132.3551395562971
 30
0.0
 10
24.02823048214613
 20
118.8861110813902
 30
0.0
 10
24.02823048214613
 20
118.8861110813902
 30
0.0
 10
24.02823048214613
 20
118.8861110813902
 30
0.0
 10
34.86495058577344
 20
118.8861110813902
 30
0.0
 10
34.86495058577344
 20
118.8861110813902
 30
0.0
 10
34.86495058577344
 20
118.8861110813902
 30
0.0
 10
44.14379851097109
 20
130.2852936564684
 30
0.0
 10
44.14379851097109
 20
130.2852936564684
 30
0.0
 10
47.04921978845653
 20
133.8640588465459
 30
0.0
 10
49.10042964037493
 20
136.8357374014757
 30
0.0
 10
50.24023948166952
 20
139.149119019821
 30
0.0
 10
51.51561383030869
 20
141.7656690408695
 30
0.0
 10
52.16294727198746
 20
144.5220595332939
 30
0.0
 10
52.16294727198746
 20
147.3547892960412
 30
0.0
 10
52.16294727198746
 20
152.3653361697889
 30
0.0
 10
50.61678841820733
 20
156.451533519521
 30
0.0
 10
47.56736214943843
 20
159.5154291893286
 30
0.0
  0
SPLINE
  5
C6
330
C1
100
AcDbEntity
  8
Layer 1
370
     0
100
AcDbSpline
210
0.0
220
0.0
230
1.0
 70
    11
 71
     3
 72
    29
 73
    25
 74
     0
 42
0.0000000001
 43
0.0000000001
 12
1.0
 22
0.0
 32
0.0
 13
1.0
 23
0.0
 33
0.0
 40
0.0
 40
0.0
 40
0.0
 40
0.0
 40
1.0
 40
1.0
 40
1.0
 40
2.0
 40
2.0
 40
2.0
 40
3.0
 40
3.0
 40
3.0
 40
4.0
 40
4.0
 40
4.0
 40
5.0
 40
5.0
 40
5.0
 40
6.0
 40
6.0
 40
6.0
 40
7.0
 40
7.0
 40
7.0
 40
8.0
 40
8.0
 40
8.0
 40
8.0
 10
40.887322003539
 20
143.4368240501188
 30
0.0
 10
39.58197532417815
 20
142.1366450139849
 30
0.0
 10
38.01566266180868
 20
141.4772537381087
 30
0.0
 10
36.23179221954663
 20
141.4772537381087
 30
0.0
 10
34.44723275818753
 20
141.4772537381087
 30
0.0
 10
32.88057558626985
 20
142.1366450139849
 30
0.0
 10
31.57522890690837
 20
143.4368240501188
 30
0.0
 10
30.26936546322441
 20
144.7375198505742
 30
0.0
 10
29.60721811095972
 20
146.2990093792631
 30
0.0
 10
29.60721811095972
 20
148.0775399235246
 30
0.0
 10
29.60721811095972
 20
149.8560704677838
 30
0.0
 10
30.26936546322441
 20
151.4175599964746
 30
0.0
 10
31.57522890690837
 20
152.7182557969297
 30
0.0
 10
32.88057558626985
 20
154.018607087837
 30
0.0
 10
34.44723275818753
 20
154.6778261089402
 30
0.0
 10
36.23179221954663
 20
154.6778261089402
 30
0.0
 10
38.01566266180868
 20
154.6778261089402
 30
0.0
 10
39.58197532417815
 20
154.018607087837
 30
0.0
 10
40.887322003539
 20
152.7182557969297
 30
0.0
 10
42.19387446631968
 20
151.4168709773766
 30
0.0
 10
42.85636632813322
 20
149.8553814486878
 30
0.0
 10
42.85636632813322
 20
148.0775399235246
 30
0.0
 10
42.85636632813322
 20
146.2995261435865
 30
0.0
 10
42.19387446631968
 20
144.7382088696719
 30
0.0
 10
40.887322003539
 20
143.4368240501188
 30
0.0
  0
HATCH
  5
C7
330
C1
100
AcDbEntity
  8
Layer 1
 62
   178
420
    65793
100
AcDbHatch
 10
0.0
 20
0.0
 30
0.0
210
0.0
220
0.0
230
1.0
  2
SOLID
 70
     1
 71
     0
 91
        2
 92
        1
 93
        1
 72
     4
 94
        3
 73
     0
 74
     1
 95
       44
 96
       40
 40
0.0
 40
0.0
 40
0.0
 40
0.0
 40
1.0
 40
1.0
 40
1.0
 40
2.0
 40
2.0
 40
2.0
 40
3.0
 40
3.0
 40
3.0
 40
4.0
 40
4.0
 40
4.0
 40
5.0
 40
5.0
 40
5.0
 40
6.0
 40
6.0
 40
6.0
 40
7.0
 40
7.0
 40
7.0
 40
8.0
 40
8.0
 40
8.0
 40
9.0
 40
9.0
 40
9.0
 40
10.0
 40
10.0
 40
10.0
 40
11.0
 40
11.0
 40
11.0
 40
12.0
 40
12.0
 40
12.0
 40
13.0
 40
13.0
 40
13.0
 40
13.0
 10
47.56736214943843
 20
159.5154291893286
 10
44.63679167491098
 20
162.4148215497133
 10
40.88680523921589
 20
163.8869108505605
 10
36.42575109536619
 20
163.8869108505605
 10
31.86410016334721
 20
163.8869108505605
 10
28.04710662046401
 20
162.4294632055262
 10
25.08070715289028
 20
159.5550477874074
 10
21.97392004429133
 20
156.52629209155
 10
20.39778885978953
 20
152.3854595730552
 10
20.39778885978953
 20
147.2493389688699
 10
20.39778885978953
 20
142.9438308861789
 10
21.82405839068296
 20
139.62930451982
 10
24.75807396069599
 20
137.1162796181052
 10
27.20426400999764
 20
135.0080534359059
 10
30.41974388115557
 20
133.6868593173132
 10
34.31700814884477
 20
133.1881817458233
 10
34.31700814884477
 20
133.1881817458233
 10
35.57481251050949
 20
133.0325495572759
 10
35.57481251050949
 20
133.0325495572759
 10
35.57481251050949
 20
133.0325495572759
 10
35.00249302750354
 20
132.3551395562971
 10
35.00249302750354
 20
132.3551395562971
 10
35.00249302750354
 20
132.3551395562971
 10
24.02823048214613
 20
118.8861110813902
 10
24.02823048214613
 20
118.8861110813902
 10
24.02823048214613
 20
118.8861110813902
 10
34.86495058577344
 20
118.8861110813902
 10
34.86495058577344
 20
118.8861110813902
 10
34.86495058577344
 20
118.8861110813902
 10
44.14379851097109
 20
130.2852936564684
 10
44.14379851097109
 20
130.2852936564684
 10
47.04921978845653
 20
133.8640588465459
 10
49.10042964037493
 20
136.8357374014757
 10
50.24023948166952
 20
139.149119019821
 10
51.51561383030869
 20
141.7656690408695
 10
52.16294727198746
 20
144.5220595332939
 10
52.16294727198746
 20
147.3547892960412
 10
52.16294727198746
 20
152.3653361697889
 10
50.61678841820733
 20
156.451533519521
 10
47.56736214943843
 20
159.5154291893286
 97
        0
 97
        0
 92
        1
 93
        1
 72
     4
 94
        3
 73
     0
 74
     1
 95
       29
 96
       25
 40
0.0
 40
0.0
 40
0.0
 40
0.0
 40
1.0
 40
1.0
 40
1.0
 40
2.0
 40
2.0
 40
2.0
 40
3.0
 40
3.0
 40
3.0
 40
4.0
 40
4.0
 40
4.0
 40
5.0
 40
5.0
 40
5.0
 40
6.0
 40
6.0
 40
6.0
 40
7.0
 40
7.0
 40
7.0
 40
8.0
 40
8.0
 40
8.0
 40
8.0
 10
40.887322003539
 20
143.4368240501188
 10
39.58197532417815
 20
142.1366450139849
 10
38.01566266180868
 20
141.4772537381087
 10
36.23179221954663
 20
141.4772537381087
 10
34.44723275818753
 20
141.4772537381087
 10
32.88057558626985
 20
142.1366450139849
 10
31.57522890690837
 20
143.4368240501188
 10
30.26936546322441
 20
144.7375198505742
 10
29.60721811095972
 20
146.2990093792631
 10
29.60721811095972
 20
148.0775399235246
 10
29.60721811095972
 20
149.8560704677838
 10
30.26936546322441
 20
151.4175599964746
 10
31.57522890690837
 20
152.7182557969297
 10
32.88057558626985
 20
154.018607087837
 10
34.44723275818753
 20
154.6778261089402
 10
36.23179221954663
 20
154.6778261089402
 10
38.01566266180868
 20
154.6778261089402
 10
39.58197532417815
 20
154.018607087837
 10
40.887322003539
 20
152.7182557969297
 10
42.19387446631968
 20
151.4168709773766
 10
42.85636632813322
 20
149.8553814486878
 10
42.85636632813322
 20
148.0775399235246
 10
42.85636632813322
 20
146.2995261435865
 10
42.19387446631968
 20
144.7382088696719
 10
40.887322003539
 20
143.4368240501188
 97
        0
 97
        0
 75
     2
 76
     1
 98
        0
  0
ENDBLK
  5
C4
330
C1
100
AcDbEntity
  8
0
100
AcDbBlockEnd
  0
ENDSEC
  0
SECTION
  2
ENTITIES
  0
INSERT
  5
42
330
1F
100
AcDbEntity
  8
Layer 1
100
AcDbBlockReference
  2
block 2
 10
0.0
 20
0.0
 30
0.0
  0
INSERT
  5
47
330
1F
100
AcDbEntity
  8
Layer 1
100
AcDbBlockReference
  2
block 3
 10
0.0
 20
0.0
 30
0.0
  0
INSERT
  5
4C
330
1F
100
AcDbEntity
  8
Layer 1
100
AcDbBlockReference
  2
block 4
 10
0.0
 20
0.0
 30
0.0
  0
INSERT
  5
51
330
1F
100
AcDbEntity
  8
Layer 1
100
AcDbBlockReference
  2
block 5
 10
0.0
 20
0.0
 30
0.0
  0
INSERT
  5
59
330
1F
100
AcDbEntity
  8
Layer 1
100
AcDbBlockReference
  2
block 6
 10
0.0
 20
0.0
 30
0.0
  0
INSERT
  5
5E
330
1F
100
AcDbEntity
  8
Layer 1
100
AcDbBlockReference
  2
block 7
 10
0.0
 20
0.0
 30
0.0
  0
INSERT
  5
63
330
1F
100
AcDbEntity
  8
Layer 1
100
AcDbBlockReference
  2
block 8
 10
0.0
 20
0.0
 30
0.0
  0
INSERT
  5
6A
330
1F
100
AcDbEntity
  8
Layer 1
100
AcDbBlockReference
  2
block 9
 10
0.0
 20
0.0
 30
0.0
  0
INSERT
  5
6F
330
1F
100
AcDbEntity
  8
Layer 1
100
AcDbBlockReference
  2
block 10
 10
0.0
 20
0.0
 30
0.0
  0
INSERT
  5
74
330
1F
100
AcDbEntity
  8
Layer 1
100
AcDbBlockReference
  2
block 11
 10
0.0
 20
0.0
 30
0.0
  0
INSERT
  5
7B
330
1F
100
AcDbEntity
  8
Layer 1
100
AcDbBlockReference
  2
block 12
 10
0.0
 20
0.0
 30
0.0
  0
INSERT
  5
80
330
1F
100
AcDbEntity
  8
Layer 1
100
AcDbBlockReference
  2
block 13
 10
0.0
 20
0.0
 30
0.0
  0
INSERT
  5
86
330
1F
100
AcDbEntity
  8
Layer 1
100
AcDbBlockReference
  2
block 14
 10
0.0
 20
0.0
 30
0.0
  0
INSERT
  5
8B
330
1F
100
AcDbEntity
  8
Layer 1
100
AcDbBlockReference
  2
block 15
 10
0.0
 20
0.0
 30
0.0
  0
INSERT
  5
90
330
1F
100
AcDbEntity
  8
Layer 1
100
AcDbBlockReference
  2
block 16
 10
0.0
 20
0.0
 30
0.0
  0
INSERT
  5
97
330
1F
100
AcDbEntity
  8
Layer 1
100
AcDbBlockReference
  2
block 17
 10
0.0
 20
0.0
 30
0.0
  0
INSERT
  5
9C
330
1F
100
AcDbEntity
  8
Layer 1
100
AcDbBlockReference
  2
block 18
 10
0.0
 20
0.0
 30
0.0
  0
INSERT
  5
A2
330
1F
100
AcDbEntity
  8
Layer 1
100
AcDbBlockReference
  2
block 19
 10
0.0
 20
0.0
 30
0.0
  0
INSERT
  5
A7
330
1F
100
AcDbEntity
  8
Layer 1
100
AcDbBlockReference
  2
block 20
 10
0.0
 20
0.0
 30
0.0
  0
INSERT
  5
AD
330
1F
100
AcDbEntity
  8
Layer 1
100
AcDbBlockReference
  2
block 21
 10
0.0
 20
0.0
 30
0.0
  0
INSERT
  5
B2
330
1F
100
AcDbEntity
  8
Layer 1
100
AcDbBlockReference
  2
block 22
 10
0.0
 20
0.0
 30
0.0
  0
INSERT
  5
B8
330
1F
100
AcDbEntity
  8
Layer 1
100
AcDbBlockReference
  2
block 23
 10
0.0
 20
0.0
 30
0.0
  0
INSERT
  5
BD
330
1F
100
AcDbEntity
  8
Layer 1
100
AcDbBlockReference
  2
block 24
 10
0.0
 20
0.0
 30
0.0
  0
INSERT
  5
C2
330
1F
100
AcDbEntity
  8
Layer 1
100
AcDbBlockReference
  2
block 25
 10
0.0
 20
0.0
 30
0.0
  0
ENDSEC
  0
SECTION
  2
OBJECTS
  0
DICTIONARY
  5
C
330
0
100
AcDbDictionary
281
     1
  3
ACAD_GROUP
350
D
  3
ACAD_LAYOUT
350
1A
  3
ACAD_MATERIAL
350
3B
  3
ACAD_MLEADERSTYLE
350
C9
  3
ACAD_MLINESTYLE
350
17
  3
ACAD_PLOTSETTINGS
350
19
  3
ACAD_PLOTSTYLENAME
350
E
  3
ACAD_TABLESTYLE
350
C8
  3
ACAD_VISUALSTYLE
350
2A
  0
SUN
  5
3F
330
29
100
AcDbSun
 90
        1
290
     0
 63
     7
421
 16777215
 40
1.0
291
     1
 91
  2455826
 92
 54000000
292
     0
 70
     2
 71
   256
280
     1
  0
DICTIONARY
  5
D
102
{ACAD_REACTORS
330
C
102
}
330
C
100
AcDbDictionary
281
     1
  0
DICTIONARY
  5
1A
102
{ACAD_REACTORS
330
C
102
}
330
C
100
AcDbDictionary
281
     1
  3
Layout1
350
1E
  3
Layout2
350
26
  3
Model
350
22
  0
DICTIONARY
  5
3B
102
{ACAD_REACTORS
330
C
102
}
330
C
100
AcDbDictionary
281
     1
  3
ByBlock
350
3D
  3
ByLayer
350
3C
  3
Global
350
3E
  0
DICTIONARY
  5
C9
102
{ACAD_REACTORS
330
C
102
}
330
C
100
AcDbDictionary
281
     1
  0
DICTIONARY
  5
17
102
{ACAD_REACTORS
330
C
102
}
330
C
100
AcDbDictionary
281
     1
  3
Standard
350
18
  0
DICTIONARY
  5
19
102
{ACAD_REACTORS
330
C
102
}
330
C
100
AcDbDictionary
281
     1
  0
ACDBDICTIONARYWDFLT
  5
E
102
{ACAD_REACTORS
330
C
102
}
330
C
100
AcDbDictionary
281
     1
  3
Normal
350
F
100
AcDbDictionaryWithDefault
340
F
  0
DICTIONARY
  5
C8
102
{ACAD_REACTORS
330
C
102
}
330
C
100
AcDbDictionary
281
     1
  0
DICTIONARY
  5
2A
102
{ACAD_REACTORS
330
C
102
}
330
C
100
AcDbDictionary
281
     1
  3
2dWireframe
350
2F
  3
3D Hidden
350
31
  3
3dWireframe
350
30
  3
Basic
350
32
  3
Brighten
350
36
  3
ColorChange
350
3A
  3
Conceptual
350
34
  3
Dim
350
35
  3
Facepattern
350
39
  3
Flat
350
2B
  3
FlatWithEdges
350
2C
  3
Gouraud
350
2D
  3
GouraudWithEdges
350
2E
  3
Linepattern
350
38
  3
Realistic
350
33
  3
Thicken
350
37
  0
LAYOUT
  5
1E
102
{ACAD_REACTORS
330
1A
102
}
330
1A
100
AcDbPlotSettings
  1

  2
none_device
  4

  6

 40
0.0
 41
0.0
 42
0.0
 43
0.0
 44
0.0
 45
0.0
 46
0.0
 47
0.0
 48
0.0
 49
0.0
140
0.0
141
0.0
142
1.0
143
1.0
 70
   688
 72
     0
 73
     0
 74
     5
  7

 75
    16
 76
     0
 77
     2
 78
   300
147
1.0
148
0.0
149
0.0
100
AcDbLayout
  1
Layout1
 70
     1
 71
     1
 10
0.0
 20
0.0
 11
12.0
 21
9.0
 12
0.0
 22
0.0
 32
0.0
 14
1.000000000000000E+20
 24
1.000000000000000E+20
 34
1.000000000000000E+20
 15
-1.000000000000000E+20
 25
-1.000000000000000E+20
 35
-1.000000000000000E+20
146
0.0
 13
0.0
 23
0.0
 33
0.0
 16
1.0
 26
0.0
 36
0.0
 17
0.0
 27
1.0
 37
0.0
 76
     0
330
1B
  0
LAYOUT
  5
26
102
{ACAD_REACTORS
330
1A
102
}
330
1A
100
AcDbPlotSettings
  1

  2
none_device
  4

  6

 40
0.0
 41
0.0
 42
0.0
 43
0.0
 44
0.0
 45
0.0
 46
0.0
 47
0.0
 48
0.0
 49
0.0
140
0.0
141
0.0
142
1.0
143
1.0
 70
   688
 72
     0
 73
     0
 74
     5
  7

 75
    16
 76
     0
 77
     2
 78
   300
147
1.0
148
0.0
149
0.0
100
AcDbLayout
  1
Layout2
 70
     1
 71
     2
 10
0.0
 20
0.0
 11
0.0
 21
0.0
 12
0.0
 22
0.0
 32
0.0
 14
0.0
 24
0.0
 34
0.0
 15
0.0
 25
0.0
 35
0.0
146
0.0
 13
0.0
 23
0.0
 33
0.0
 16
1.0
 26
0.0
 36
0.0
 17
0.0
 27
1.0
 37
0.0
 76
     0
330
23
  0
LAYOUT
  5
22
102
{ACAD_REACTORS
330
1A
102
}
330
1A
100
AcDbPlotSettings
  1

  2
none_device
  4

  6

 40
0.0
 41
0.0
 42
0.0
 43
0.0
 44
0.0
 45
0.0
 46
0.0
 47
0.0
 48
0.0
 49
0.0
140
0.0
141
0.0
142
1.0
143
1.0
 70
  1712
 72
     0
 73
     0
 74
     0
  7

 75
     0
 76
     0
 77
     2
 78
   300
147
1.0
148
0.0
149
0.0
100
AcDbLayout
  1
Model
 70
     1
 71
     0
 10
0.0
 20
0.0
 11
12.0
 21
9.0
 12
0.0
 22
0.0
 32
0.0
 14
1.000000000000000E+20
 24
1.000000000000000E+20
 34
1.000000000000000E+20
 15
-1.000000000000000E+20
 25
-1.000000000000000E+20
 35
-1.000000000000000E+20
146
0.0
 13
0.0
 23
0.0
 33
0.0
 16
1.0
 26
0.0
 36
0.0
 17
0.0
 27
1.0
 37
0.0
 76
     0
330
1F
331
29
  0
MATERIAL
  5
3D
102
{ACAD_REACTORS
330
3B
102
}
330
3B
100
AcDbMaterial
  1
ByBlock
 72
     1
 94
      127
  0
MATERIAL
  5
3C
102
{ACAD_REACTORS
330
3B
102
}
330
3B
100
AcDbMaterial
  1
ByLayer
 72
     1
 94
      127
  0
MATERIAL
  5
3E
102
{ACAD_REACTORS
330
3B
102
}
330
3B
100
AcDbMaterial
  1
Global
 72
     1
 94
      127
  0
MLINESTYLE
  5
18
102
{ACAD_REACTORS
330
17
102
}
330
17
100
AcDbMlineStyle
  2
Standard
 70
     0
  3

 62
   256
 51
90.0
 52
90.0
 71
     2
 49
0.5
 62
   256
  6
BYLAYER
 49
-0.5
 62
   256
  6
BYLAYER
  0
ACDBPLACEHOLDER
  5
F
102
{ACAD_REACTORS
330
E
102
}
330
E
  0
VISUALSTYLE
  5
2F
102
{ACAD_REACTORS
330
2A
102
}
330
2A
100
AcDbVisualStyle
  2
2dWireframe
 70
     4
177
     2
291
     0
 71
     0
176
     1
 72
     2
176
     1
 73
     0
176
     1
 90
        0
176
     1
 40
-0.6
176
     1
 41
-30.0
176
     1
 62
     5
 63
     7
421
 16777215
176
     1
 74
     1
176
     1
 91
        4
176
     1
 64
     7
176
     1
 65
   257
176
     1
 75
     1
176
     1
175
     1
176
     1
 42
1.0
176
     1
 92
        0
176
     1
 66
   257
176
     1
 43
1.0
176
     1
 76
     1
176
     1
 77
     6
176
     1
 78
     2
176
     1
 67
     7
176
     1
 79
     5
176
     1
170
     0
176
     1
171
     0
176
     1
290
     0
176
     1
 93
        1
176
     1
 44
0.0
176
     1
173
     0
176
     1
  0
VISUALSTYLE
  5
31
102
{ACAD_REACTORS
330
2A
102
}
330
2A
100
AcDbVisualStyle
  2
3D Hidden
 70
     6
177
     2
291
     0
 71
     1
176
     1
 72
     2
176
     1
 73
     2
176
     1
 90
        0
176
     1
 40
-0.6
176
     1
 41
-30.0
176
     1
 62
     5
 63
     7
421
 16777215
176
     1
 74
     2
176
     1
 91
        2
176
     1
 64
     7
176
     1
 65
   257
176
     1
 75
     2
176
     1
175
     1
176
     1
 42
40.0
176
     1
 92
        0
176
     1
 66
   257
176
     1
 43
1.0
176
     1
 76
     1
176
     1
 77
     6
176
     1
 78
     2
176
     1
 67
     7
176
     1
 79
     3
176
     1
170
     0
176
     1
171
     0
176
     1
290
     0
176
     1
 93
        1
176
     1
 44
0.0
176
     1
173
     0
176
     1
  0
VISUALSTYLE
  5
30
102
{ACAD_REACTORS
330
2A
102
}
330
2A
100
AcDbVisualStyle
  2
3dWireframe
 70
     5
177
     2
291
     0
 71
     0
176
     1
 72
     2
176
     1
 73
     0
176
     1
 90
        0
176
     1
 40
-0.6
176
     1
 41
-30.0
176
     1
 62
     5
 63
     7
421
 16777215
176
     1
 74
     1
176
     1
 91
        4
176
     1
 64
     7
176
     1
 65
   257
176
     1
 75
     1
176
     1
175
     1
176
     1
 42
1.0
176
     1
 92
        0
176
     1
 66
   257
176
     1
 43
1.0
176
     1
 76
     1
176
     1
 77
     6
176
     1
 78
     2
176
     1
 67
     7
176
     1
 79
     5
176
     1
170
     0
176
     1
171
     0
176
     1
290
     0
176
     1
 93
        1
176
     1
 44
0.0
176
     1
173
     0
176
     1
  0
VISUALSTYLE
  5
32
102
{ACAD_REACTORS
330
2A
102
}
330
2A
100
AcDbVisualStyle
  2
Basic
 70
     7
177
     2
291
     1
 71
     1
176
     1
 72
     0
176
     1
 73
     1
176
     1
 90
        0
176
     1
 40
-0.6
176
     1
 41
-30.0
176
     1
 62
     5
 63
     7
421
 16777215
176
     1
 74
     0
176
     1
 91
        4
176
     1
 64
     7
176
     1
 65
   257
176
     1
 75
     1
176
     1
175
     1
176
     1
 42
1.0
176
     1
 92
        8
176
     1
 66
     7
176
     1
 43
1.0
176
     1
 76
     1
176
     1
 77
     6
176
     1
 78
     2
176
     1
 67
     7
176
     1
 79
     5
176
     1
170
     0
176
     1
171
     0
176
     1
290
     0
176
     1
 93
        1
176
     1
 44
0.0
176
     1
173
     0
176
     1
  0
VISUALSTYLE
  5
36
102
{ACAD_REACTORS
330
2A
102
}
330
2A
100
AcDbVisualStyle
  2
Brighten
 70
    12
177
     2
291
     1
 71
     2
176
     1
 72
     2
176
     1
 73
     0
176
     1
 90
        0
176
     1
 40
-0.6
176
     1
 41
-30.0
176
     1
 62
     5
 63
     7
421
 16777215
176
     1
 74
     1
176
     1
 91
        4
176
     1
 64
     7
176
     1
 65
   257
176
     1
 75
     1
176
     1
175
     1
176
     1
 42
1.0
176
     1
 92
        8
176
     1
 66
     7
176
     1
 43
1.0
176
     1
 76
     1
176
     1
 77
     6
176
     1
 78
     2
176
     1
 67
     7
176
     1
 79
     5
176
     1
170
     0
176
     1
171
     0
176
     1
290
     0
176
     1
 93
        1
176
     1
 44
50.0
176
     1
173
     0
176
     1
  0
VISUALSTYLE
  5
3A
102
{ACAD_REACTORS
330
2A
102
}
330
2A
100
AcDbVisualStyle
  2
ColorChange
 70
    16
177
     2
291
     1
 71
     2
176
     1
 72
     2
176
     1
 73
     3
176
     1
 90
        0
176
     1
 40
-0.6
176
     1
 41
-30.0
176
     1
 62
     5
 63
     8
421
  8421504
176
     1
 74
     1
176
     1
 91
        4
176
     1
 64
     7
176
     1
 65
   257
176
     1
 75
     1
176
     1
175
     1
176
     1
 42
1.0
176
     1
 92
        8
176
     1
 66
     8
424
  8421504
176
     1
 43
1.0
176
     1
 76
     1
176
     1
 77
     6
176
     1
 78
     2
176
     1
 67
     7
176
     1
 79
     5
176
     1
170
     0
176
     1
171
     0
176
     1
290
     0
176
     1
 93
        1
176
     1
 44
0.0
176
     1
173
     0
176
     1
  0
VISUALSTYLE
  5
34
102
{ACAD_REACTORS
330
2A
102
}
330
2A
100
AcDbVisualStyle
  2
Conceptual
 70
     9
177
     2
291
     0
 71
     3
176
     1
 72
     2
176
     1
 73
     0
176
     1
 90
        0
176
     1
 40
-0.6
176
     1
 41
-30.0
176
     1
 62
     5
 63
     7
421
 16777215
176
     1
 74
     2
176
     1
 91
        2
176
     1
 64
     7
176
     1
 65
   257
176
     1
 75
     1
176
     1
175
     1
176
     1
 42
40.0
176
     1
 92
        8
176
     1
 66
     7
176
     1
 43
1.0
176
     1
 76
     1
176
     1
 77
     6
176
     1
 78
     2
176
     1
 67
     7
176
     1
 79
     3
176
     1
170
     0
176
     1
171
     0
176
     1
290
     0
176
     1
 93
        1
176
     1
 44
0.0
176
     1
173
     0
176
     1
  0
VISUALSTYLE
  5
35
102
{ACAD_REACTORS
330
2A
102
}
330
2A
100
AcDbVisualStyle
  2
Dim
 70
    11
177
     2
291
     1
 71
     2
176
     1
 72
     2
176
     1
 73
     0
176
     1
 90
        0
176
     1
 40
-0.6
176
     1
 41
-30.0
176
     1
 62
     5
 63
     7
421
 16777215
176
     1
 74
     1
176
     1
 91
        4
176
     1
 64
     7
176
     1
 65
   257
176
     1
 75
     1
176
     1
175
     1
176
     1
 42
1.0
176
     1
 92
        8
176
     1
 66
     7
176
     1
 43
1.0
176
     1
 76
     1
176
     1
 77
     6
176
     1
 78
     2
176
     1
 67
     7
176
     1
 79
     5
176
     1
170
     0
176
     1
171
     0
176
     1
290
     0
176
     1
 93
        1
176
     1
 44
-50.0
176
     1
173
     0
176
     1
  0
VISUALSTYLE
  5
39
102
{ACAD_REACTORS
330
2A
102
}
330
2A
100
AcDbVisualStyle
  2
Facepattern
 70
    15
177
     2
291
     1
 71
     2
176
     1
 72
     2
176
     1
 73
     0
176
     1
 90
        0
176
     1
 40
-0.6
176
     1
 41
-30.0
176
     1
 62
     5
 63
     7
421
 16777215
176
     1
 74
     1
176
     1
 91
        4
176
     1
 64
     7
176
     1
 65
   257
176
     1
 75
     1
176
     1
175
     1
176
     1
 42
1.0
176
     1
 92
        8
176
     1
 66
     7
176
     1
 43
1.0
176
     1
 76
     1
176
     1
 77
     6
176
     1
 78
     2
176
     1
 67
     7
176
     1
 79
     5
176
     1
170
     0
176
     1
171
     0
176
     1
290
     0
176
     1
 93
        1
176
     1
 44
0.0
176
     1
173
     0
176
     1
  0
VISUALSTYLE
  5
2B
102
{ACAD_REACTORS
330
2A
102
}
330
2A
100
AcDbVisualStyle
  2
Flat
 70
     0
177
     2
291
     1
 71
     2
176
     1
 72
     1
176
     1
 73
     1
176
     1
 90
        2
176
     1
 40
-0.6
176
     1
 41
30.0
176
     1
 62
     5
 63
     7
421
 16777215
176
     1
 74
     0
176
     1
 91
        4
176
     1
 64
     7
176
     1
 65
   257
176
     1
 75
     1
176
     1
175
     1
176
     1
 42
1.0
176
     1
 92
        8
176
     1
 66
     7
176
     1
 43
1.0
176
     1
 76
     1
176
     1
 77
     6
176
     1
 78
     2
176
     1
 67
     7
176
     1
 79
     5
176
     1
170
     0
176
     1
171
     0
176
     1
290
     0
176
     1
 93
       13
176
     1
 44
0.0
176
     1
173
     0
176
     1
  0
VISUALSTYLE
  5
2C
102
{ACAD_REACTORS
330
2A
102
}
330
2A
100
AcDbVisualStyle
  2
FlatWithEdges
 70
     1
177
     2
291
     1
 71
     2
176
     1
 72
     1
176
     1
 73
     1
176
     1
 90
        2
176
     1
 40
-0.6
176
     1
 41
30.0
176
     1
 62
     5
 63
     7
421
 16777215
176
     1
 74
     1
176
     1
 91
        4
176
     1
 64
     7
176
     1
 65
   257
176
     1
 75
     1
176
     1
175
     1
176
     1
 42
1.0
176
     1
 92
        0
176
     1
 66
   257
176
     1
 43
1.0
176
     1
 76
     1
176
     1
 77
     6
176
     1
 78
     2
176
     1
 67
     7
176
     1
 79
     5
176
     1
170
     0
176
     1
171
     0
176
     1
290
     0
176
     1
 93
       13
176
     1
 44
0.0
176
     1
173
     0
176
     1
  0
VISUALSTYLE
  5
2D
102
{ACAD_REACTORS
330
2A
102
}
330
2A
100
AcDbVisualStyle
  2
Gouraud
 70
     2
177
     2
291
     1
 71
     2
176
     1
 72
     2
176
     1
 73
     1
176
     1
 90
        2
176
     1
 40
-0.6
176
     1
 41
30.0
176
     1
 62
     5
 63
     7
421
 16777215
176
     1
 74
     0
176
     1
 91
        4
176
     1
 64
     7
176
     1
 65
   257
176
     1
 75
     1
176
     1
175
     1
176
     1
 42
1.0
176
     1
 92
        0
176
     1
 66
     7
176
     1
 43
1.0
176
     1
 76
     1
176
     1
 77
     6
176
     1
 78
     2
176
     1
 67
     7
176
     1
 79
     5
176
     1
170
     0
176
     1
171
     0
176
     1
290
     0
176
     1
 93
       13
176
     1
 44
0.0
176
     1
173
     0
176
     1
  0
VISUALSTYLE
  5
2E
102
{ACAD_REACTORS
330
2A
102
}
330
2A
100
AcDbVisualStyle
  2
GouraudWithEdges
 70
     3
177
     2
291
     1
 71
     2
176
     1
 72
     2
176
     1
 73
     1
176
     1
 90
        2
176
     1
 40
-0.6
176
     1
 41
30.0
176
     1
 62
     5
 63
     7
421
 16777215
176
     1
 74
     1
176
     1
 91
        4
176
     1
 64
     7
176
     1
 65
   257
176
     1
 75
     1
176
     1
175
     1
176
     1
 42
1.0
176
     1
 92
        0
176
     1
 66
   257
176
     1
 43
1.0
176
     1
 76
     1
176
     1
 77
     6
176
     1
 78
     2
176
     1
 67
     7
176
     1
 79
     5
176
     1
170
     0
176
     1
171
     0
176
     1
290
     0
176
     1
 93
       13
176
     1
 44
0.0
176
     1
173
     0
176
     1
  0
VISUALSTYLE
  5
38
102
{ACAD_REACTORS
330
2A
102
}
330
2A
100
AcDbVisualStyle
  2
Linepattern
 70
    14
177
     2
291
     1
 71
     2
176
     1
 72
     2
176
     1
 73
     0
176
     1
 90
        0
176
     1
 40
-0.6
176
     1
 41
-30.0
176
     1
 62
     5
 63
     7
421
 16777215
176
     1
 74
     1
176
     1
 91
        4
176
     1
 64
     7
176
     1
 65
   257
176
     1
 75
     7
176
     1
175
     7
176
     1
 42
1.0
176
     1
 92
        8
176
     1
 66
     7
176
     1
 43
1.0
176
     1
 76
     1
176
     1
 77
     6
176
     1
 78
     2
176
     1
 67
     7
176
     1
 79
     5
176
     1
170
     0
176
     1
171
     0
176
     1
290
     0
176
     1
 93
        1
176
     1
 44
0.0
176
     1
173
     0
176
     1
  0
VISUALSTYLE
  5
33
102
{ACAD_REACTORS
330
2A
102
}
330
2A
100
AcDbVisualStyle
  2
Realistic
 70
     8
177
     2
291
     0
 71
     2
176
     1
 72
     2
176
     1
 73
     0
176
     1
 90
        0
176
     1
 40
-0.6
176
     1
 41
-30.0
176
     1
 62
     5
 63
     7
421
 16777215
176
     1
 74
     1
176
     1
 91
        0
176
     1
 64
     7
176
     1
 65
   257
176
     1
 75
     1
176
     1
175
     1
176
     1
 42
1.0
176
     1
 92
        8
176
     1
 66
     8
424
  7895160
176
     1
 43
1.0
176
     1
 76
     1
176
     1
 77
     6
176
     1
 78
     2
176
     1
 67
     7
176
     1
 79
     5
176
     1
170
     0
176
     1
171
     0
176
     1
290
     0
176
     1
 93
       13
176
     1
 44
0.0
176
     1
173
     0
176
     1
  0
VISUALSTYLE
  5
37
102
{ACAD_REACTORS
330
2A
102
}
330
2A
100
AcDbVisualStyle
  2
Thicken
 70
    13
177
     2
291
     1
 71
     2
176
     1
 72
     2
176
     1
 73
     0
176
     1
 90
        0
176
     1
 40
-0.6
176
     1
 41
-30.0
176
     1
 62
     5
 63
     7
421
 16777215
176
     1
 74
     1
176
     1
 91
        4
176
     1
 64
     7
176
     1
 65
   257
176
     1
 75
     1
176
     1
175
     1
176
     1
 42
1.0
176
     1
 92
       12
176
     1
 66
     7
176
     1
 43
1.0
176
     1
 76
     1
176
     1
 77
     6
176
     1
 78
     2
176
     1
 67
     7
176
     1
 79
     5
176
     1
170
     0
176
     1
171
     0
176
     1
290
     0
176
     1
 93
        1
176
     1
 44
0.0
176
     1
173
     0
176
     1
  0
ENDSEC
  0
EOF
