  0
SECTION
  2
HEADER
  9
$ACADVER
  1
AC1024
  9
$ACADMAINTVER
 70
     6
  9
$DWGCODEPAGE
  3
UNDEFINED
  9
$INSBASE
 10
0.0
 20
0.0
 30
0.0
  9
$EXTMIN
 10
1.000000000000000E+20
 20
1.000000000000000E+20
 30
1.000000000000000E+20
  9
$EXTMAX
 10
-1.000000000000000E+20
 20
-1.000000000000000E+20
 30
-1.000000000000000E+20
  9
$LIMMIN
 10
0.0
 20
0.0
  9
$LIMMAX
 10
12.0
 20
9.0
  9
$ORTHOMODE
 70
     0
  9
$REGENMODE
 70
     1
  9
$FILLMODE
 70
     1
  9
$QTEXTMODE
 70
     0
  9
$MIRRTEXT
 70
     1
  9
$LTSCALE
 40
1.0
  9
$ATTMODE
 70
     1
  9
$TEXTSIZE
 40
0.2
  9
$TRACEWID
 40
0.05
  9
$TEXTSTYLE
  7
Standard
  9
$CLAYER
  8
0
  9
$CELTYPE
  6
ByLayer
  9
$CECOLOR
 62
   256
  9
$CELTSCALE
 40
1.0
  9
$DISPSILH
 70
     0
  9
$DIMSCALE
 40
1.0
  9
$DIMASZ
 40
0.18
  9
$DIMEXO
 40
0.0625
  9
$DIMDLI
 40
0.38
  9
$DIMRND
 40
0.0
  9
$DIMDLE
 40
0.0
  9
$DIMEXE
 40
0.18
  9
$DIMTP
 40
0.0
  9
$DIMTM
 40
0.0
  9
$DIMTXT
 40
0.18
  9
$DIMCEN
 40
0.09
  9
$DIMTSZ
 40
0.0
  9
$DIMTOL
 70
     0
  9
$DIMLIM
 70
     0
  9
$DIMTIH
 70
     1
  9
$DIMTOH
 70
     1
  9
$DIMSE1
 70
     0
  9
$DIMSE2
 70
     0
  9
$DIMTAD
 70
     0
  9
$DIMZIN
 70
     0
  9
$DIMBLK
  1

  9
$DIMASO
 70
     1
  9
$DIMSHO
 70
     1
  9
$DIMPOST
  1

  9
$DIMAPOST
  1

  9
$DIMALT
 70
     0
  9
$DIMALTD
 70
     2
  9
$DIMALTF
 40
25.4
  9
$DIMLFAC
 40
1.0
  9
$DIMTOFL
 70
     0
  9
$DIMTVP
 40
0.0
  9
$DIMTIX
 70
     0
  9
$DIMSOXD
 70
     0
  9
$DIMSAH
 70
     0
  9
$DIMBLK1
  1

  9
$DIMBLK2
  1

  9
$DIMSTYLE
  2
Standard
  9
$DIMCLRD
 70
     0
  9
$DIMCLRE
 70
     0
  9
$DIMCLRT
 70
     0
  9
$DIMTFAC
 40
1.0
  9
$DIMGAP
 40
0.09
  9
$DIMJUST
 70
     0
  9
$DIMSD1
 70
     0
  9
$DIMSD2
 70
     0
  9
$DIMTOLJ
 70
     1
  9
$DIMTZIN
 70
     0
  9
$DIMALTZ
 70
     0
  9
$DIMALTTZ
 70
     0
  9
$DIMUPT
 70
     0
  9
$DIMDEC
 70
     4
  9
$DIMTDEC
 70
     4
  9
$DIMALTU
 70
     2
  9
$DIMALTTD
 70
     2
  9
$DIMTXSTY
  7
Standard
  9
$DIMAUNIT
 70
     0
  9
$DIMADEC
 70
     0
  9
$DIMALTRND
 40
0.0
  9
$DIMAZIN
 70
     0
  9
$DIMDSEP
 70
    46
  9
$DIMATFIT
 70
     3
  9
$DIMFRAC
 70
     0
  9
$DIMLDRBLK
  1

  9
$DIMLUNIT
 70
     2
  9
$DIMLWD
 70
    -2
  9
$DIMLWE
 70
    -2
  9
$DIMTMOVE
 70
     0
  9
$DIMFXL
 40
1.0
  9
$DIMFXLON
 70
     0
  9
$DIMJOGANG
 40
0.7853981633974483
  9
$DIMTFILL
 70
     0
  9
$DIMTFILLCLR
 70
     0
  9
$DIMARCSYM
 70
     0
  9
$DIMLTYPE
  6

  9
$DIMLTEX1
  6

  9
$DIMLTEX2
  6

  9
$DIMTXTDIRECTION
 70
     0
  9
$LUNITS
 70
     2
  9
$LUPREC
 70
     4
  9
$SKETCHINC
 40
0.1
  9
$FILLETRAD
 40
0.5
  9
$AUNITS
 70
     0
  9
$AUPREC
 70
     0
  9
$MENU
  1
.
  9
$ELEVATION
 40
0.0
  9
$PELEVATION
 40
0.0
  9
$THICKNESS
 40
0.0
  9
$LIMCHECK
 70
     0
  9
$CHAMFERA
 40
0.5
  9
$CHAMFERB
 40
0.5
  9
$CHAMFERC
 40
1.0
  9
$CHAMFERD
 40
0.0
  9
$SKPOLY
 70
     0
  9
$TDCREATE
 40
2456980.594733785
  9
$TDUCREATE
 40
2456980.594733796
  9
$TDUPDATE
 40
2456980.594733785
  9
$TDUUPDATE
 40
2456980.594733796
  9
$TDINDWG
 40
0.0000000116
  9
$TDUSRTIMER
 40
0.0000000116
  9
$USRTIMER
 70
     1
  9
$ANGBASE
 50
0.0
  9
$ANGDIR
 70
     0
  9
$PDMODE
 70
     0
  9
$PDSIZE
 40
0.0
  9
$PLINEWID
 40
0.0
  9
$SPLFRAME
 70
     0
  9
$SPLINETYPE
 70
     6
  9
$SPLINESEGS
 70
     8
  9
$HANDSEED
  5
6B
  9
$SURFTAB1
 70
     6
  9
$SURFTAB2
 70
     6
  9
$SURFTYPE
 70
     6
  9
$SURFU
 70
     6
  9
$SURFV
 70
     6
  9
$UCSBASE
  2

  9
$UCSNAME
  2

  9
$UCSORG
 10
0.0
 20
0.0
 30
0.0
  9
$UCSXDIR
 10
1.0
 20
0.0
 30
0.0
  9
$UCSYDIR
 10
0.0
 20
1.0
 30
0.0
  9
$UCSORTHOREF
  2

  9
$UCSORTHOVIEW
 70
     0
  9
$UCSORGTOP
 10
0.0
 20
0.0
 30
0.0
  9
$UCSORGBOTTOM
 10
0.0
 20
0.0
 30
0.0
  9
$UCSORGLEFT
 10
0.0
 20
0.0
 30
0.0
  9
$UCSORGRIGHT
 10
0.0
 20
0.0
 30
0.0
  9
$UCSORGFRONT
 10
0.0
 20
0.0
 30
0.0
  9
$UCSORGBACK
 10
0.0
 20
0.0
 30
0.0
  9
$PUCSBASE
  2

  9
$PUCSNAME
  2

  9
$PUCSORG
 10
0.0
 20
0.0
 30
0.0
  9
$PUCSXDIR
 10
1.0
 20
0.0
 30
0.0
  9
$PUCSYDIR
 10
0.0
 20
1.0
 30
0.0
  9
$PUCSORTHOREF
  2

  9
$PUCSORTHOVIEW
 70
     0
  9
$PUCSORGTOP
 10
0.0
 20
0.0
 30
0.0
  9
$PUCSORGBOTTOM
 10
0.0
 20
0.0
 30
0.0
  9
$PUCSORGLEFT
 10
0.0
 20
0.0
 30
0.0
  9
$PUCSORGRIGHT
 10
0.0
 20
0.0
 30
0.0
  9
$PUCSORGFRONT
 10
0.0
 20
0.0
 30
0.0
  9
$PUCSORGBACK
 10
0.0
 20
0.0
 30
0.0
  9
$USERI1
 70
     0
  9
$USERI2
 70
     0
  9
$USERI3
 70
     0
  9
$USERI4
 70
     0
  9
$USERI5
 70
     0
  9
$USERR1
 40
0.0
  9
$USERR2
 40
0.0
  9
$USERR3
 40
0.0
  9
$USERR4
 40
0.0
  9
$USERR5
 40
0.0
  9
$WORLDVIEW
 70
     1
  9
$SHADEDGE
 70
     3
  9
$SHADEDIF
 70
    70
  9
$TILEMODE
 70
     1
  9
$MAXACTVP
 70
    64
  9
$PINSBASE
 10
0.0
 20
0.0
 30
0.0
  9
$PLIMCHECK
 70
     0
  9
$PEXTMIN
 10
1.000000000000000E+20
 20
1.000000000000000E+20
 30
1.000000000000000E+20
  9
$PEXTMAX
 10
-1.000000000000000E+20
 20
-1.000000000000000E+20
 30
-1.000000000000000E+20
  9
$PLIMMIN
 10
0.0
 20
0.0
  9
$PLIMMAX
 10
12.0
 20
9.0
  9
$UNITMODE
 70
     0
  9
$VISRETAIN
 70
     1
  9
$PLINEGEN
 70
     0
  9
$PSLTSCALE
 70
     1
  9
$TREEDEPTH
 70
  3020
  9
$CMLSTYLE
  2
Standard
  9
$CMLJUST
 70
     0
  9
$CMLSCALE
 40
1.0
  9
$PROXYGRAPHICS
 70
     1
  9
$MEASUREMENT
 70
     0
  9
$CELWEIGHT
370
    -1
  9
$ENDCAPS
280
     0
  9
$JOINSTYLE
280
     0
  9
$LWDISPLAY
290
     1
  9
$INSUNITS
 70
     1
  9
$HYPERLINKBASE
  1

  9
$STYLESHEET
  1

  9
$XEDIT
290
     1
  9
$CEPSNTYPE
380
     0
  9
$PSTYLEMODE
290
     1
  9
$FINGERPRINTGUID
  2
{5C9920DC-6787-907E-900D-9E28DE2DB42F}
  9
$VERSIONGUID
  2
{FAEB1C32-E019-11D5-929B-00C0DF256EC4}
  9
$EXTNAMES
290
     1
  9
$PSVPSCALE
 40
0.0
  9
$OLESTARTUP
290
     0
  9
$SORTENTS
280
   127
  9
$INDEXCTL
280
     0
  9
$HIDETEXT
280
     1
  9
$XCLIPFRAME
280
     2
  9
$HALOGAP
280
     0
  9
$OBSCOLOR
 70
   257
  9
$OBSLTYPE
280
     0
  9
$INTERSECTIONDISPLAY
280
     0
  9
$INTERSECTIONCOLOR
 70
   257
  9
$DIMASSOC
280
     2
  9
$PROJECTNAME
  1

  9
$CAMERADISPLAY
290
     0
  9
$LENSLENGTH
 40
50.0
  9
$CAMERAHEIGHT
 40
0.0
  9
$STEPSPERSEC
 40
2.0
  9
$STEPSIZE
 40
6.0
  9
$3DDWFPREC
 40
2.0
  9
$PSOLWIDTH
 40
0.25
  9
$PSOLHEIGHT
 40
4.0
  9
$LOFTANG1
 40
1.570796326794897
  9
$LOFTANG2
 40
1.570796326794897
  9
$LOFTMAG1
 40
0.0
  9
$LOFTMAG2
 40
0.0
  9
$LOFTPARAM
 70
     7
  9
$LOFTNORMALS
280
     1
  9
$LATITUDE
 40
37.795
  9
$LONGITUDE
 40
-122.394
  9
$NORTHDIRECTION
 40
0.0
  9
$TIMEZONE
 70
 -8000
  9
$LIGHTGLYPHDISPLAY
280
     1
  9
$TILEMODELIGHTSYNCH
280
     1
  9
$CMATERIAL
347
3C
  9
$SOLIDHIST
280
     1
  9
$SHOWHIST
280
     1
  9
$DWFFRAME
280
     2
  9
$DGNFRAME
280
     2
  9
$REALWORLDSCALE
290
     1
  9
$INTERFERECOLOR
 62
   256
  9
$CSHADOW
280
     0
  9
$SHADOWPLANELOCATION
 40
0.0
  0
ENDSEC
  0
SECTION
  2
CLASSES
  0
CLASS
  1
ACDBDICTIONARYWDFLT
  2
AcDbDictionaryWithDefault
  3
ObjectDBX Classes
 90
        0
 91
        4
280
     0
281
     0
  0
CLASS
  1
VISUALSTYLE
  2
AcDbVisualStyle
  3
ObjectDBX Classes
 90
     4095
 91
        4
280
     0
281
     0
  0
CLASS
  1
MATERIAL
  2
AcDbMaterial
  3
ObjectDBX Classes
 90
     1153
 91
        4
280
     0
281
     0
  0
CLASS
  1
SUN
  2
AcDbSun
  3
SCENEOE
 90
     1024
 91
        4
280
     0
281
     0
  0
ENDSEC
  0
SECTION
  2
TABLES
  0
TABLE
  2
VPORT
  5
8
330
0
100
AcDbSymbolTable
 70
     1
  0
VPORT
  5
29
330
8
100
AcDbSymbolTableRecord
100
AcDbViewportTableRecord
  2
*Active
 70
     0
 10
0.0
 20
0.0
 11
1.0
 21
1.0
 12
0.0
 22
0.0
 13
0.0
 23
0.0
 14
0.5
 24
0.5
 15
0.5
 25
0.5
 16
0.0
 26
0.0
 36
1.0
 17
105.0007777515277
 27
-148.8722221850042
 37
0.0
 40
69.14444442715832
 41
3.037142857142861
 42
50.0
 43
0.0
 44
0.0
 50
0.0
 51
0.0
 71
     0
 72
   100
 73
     1
 74
     3
 75
     0
 76
     0
 77
     0
 78
     0
281
     0
 65
     1
110
0.0
120
0.0
130
0.0
111
1.0
121
0.0
131
0.0
112
0.0
122
1.0
132
0.0
 79
     0
146
0.0
 60
     3
 61
     5
292
     1
282
     1
141
0.0
142
0.0
 63
   250
361
3F
  0
ENDTAB
  0
TABLE
  2
LTYPE
  5
5
330
0
100
AcDbSymbolTable
 70
     1
  0
LTYPE
  5
14
330
5
100
AcDbSymbolTableRecord
100
AcDbLinetypeTableRecord
  2
ByBlock
 70
     0
  3

 72
    65
 73
     0
 40
0.0
  0
LTYPE
  5
15
330
5
100
AcDbSymbolTableRecord
100
AcDbLinetypeTableRecord
  2
ByLayer
 70
     0
  3

 72
    65
 73
     0
 40
0.0
  0
LTYPE
  5
16
330
5
100
AcDbSymbolTableRecord
100
AcDbLinetypeTableRecord
  2
Continuous
 70
     0
  3
Solid line
 72
    65
 73
     0
 40
0.0
  0
ENDTAB
  0
TABLE
  2
LAYER
  5
2
330
0
100
AcDbSymbolTable
 70
     2
  0
LAYER
  5
10
330
2
100
AcDbSymbolTableRecord
100
AcDbLayerTableRecord
  2
0
 70
     0
 62
     7
  6
Continuous
370
    -3
390
F
347
3E
  0
LAYER
  5
40
330
2
100
AcDbSymbolTableRecord
100
AcDbLayerTableRecord
  2
Layer 1
 70
     0
 62
     7
  6
Continuous
370
    -3
390
F
347
3E
  0
ENDTAB
  0
TABLE
  2
STYLE
  5
3
330
0
100
AcDbSymbolTable
 70
     1
  0
STYLE
  5
11
330
3
100
AcDbSymbolTableRecord
100
AcDbTextStyleTableRecord
  2
Standard
 70
     0
 40
0.0
 41
1.0
 50
0.0
 71
     0
 42
0.2
  3
txt
  4

  0
ENDTAB
  0
TABLE
  2
VIEW
  5
6
330
0
100
AcDbSymbolTable
 70
     0
  0
ENDTAB
  0
TABLE
  2
UCS
  5
7
330
0
100
AcDbSymbolTable
 70
     0
  0
ENDTAB
  0
TABLE
  2
APPID
  5
9
330
0
100
AcDbSymbolTable
 70
     1
  0
APPID
  5
12
330
9
100
AcDbSymbolTableRecord
100
AcDbRegAppTableRecord
  2
ACAD
 70
     0
  0
ENDTAB
  0
TABLE
  2
DIMSTYLE
  5
A
330
0
100
AcDbSymbolTable
 70
     1
100
AcDbDimStyleTable
  0
DIMSTYLE
105
27
330
A
100
AcDbSymbolTableRecord
100
AcDbDimStyleTableRecord
  2
Standard
 70
     0
178
     0
340
11
  0
ENDTAB
  0
TABLE
  2
BLOCK_RECORD
  5
1
330
0
100
AcDbSymbolTable
 70
     5
  0
BLOCK_RECORD
  5
1F
330
1
100
AcDbSymbolTableRecord
100
AcDbBlockTableRecord
  2
*Model_Space
340
22
 70
     0
280
     1
281
     0
  0
BLOCK_RECORD
  5
1B
330
1
100
AcDbSymbolTableRecord
100
AcDbBlockTableRecord
  2
*Paper_Space
340
1E
 70
     0
280
     1
281
     0
  0
BLOCK_RECORD
  5
23
330
1
100
AcDbSymbolTableRecord
100
AcDbBlockTableRecord
  2
*Paper_Space0
340
26
 70
     0
280
     1
281
     0
  0
BLOCK_RECORD
  5
41
330
1
100
AcDbSymbolTableRecord
100
AcDbBlockTableRecord
  2
block 2
340
0
102
{BLKREFS
331
42
102
}
 70
     0
280
     1
281
     0
  0
BLOCK_RECORD
  5
45
330
1
100
AcDbSymbolTableRecord
100
AcDbBlockTableRecord
  2
block 3
340
0
102
{BLKREFS
331
46
102
}
 70
     0
280
     1
281
     0
  0
BLOCK_RECORD
  5
5A
330
1
100
AcDbSymbolTableRecord
100
AcDbBlockTableRecord
  2
block 4
340
0
102
{BLKREFS
331
5B
102
}
 70
     0
280
     1
281
     0
  0
BLOCK_RECORD
  5
60
330
1
100
AcDbSymbolTableRecord
100
AcDbBlockTableRecord
  2
block 5
340
0
102
{BLKREFS
331
61
102
}
 70
     0
280
     1
281
     0
  0
ENDTAB
  0
ENDSEC
  0
SECTION
  2
BLOCKS
  0
BLOCK
  5
20
330
1F
100
AcDbEntity
  8
0
100
AcDbBlockBegin
  2
*Model_Space
 70
     0
 10
0.0
 20
0.0
 30
0.0
  3
*Model_Space
  1

  0
ENDBLK
  5
21
330
1F
100
AcDbEntity
  8
0
100
AcDbBlockEnd
  0
BLOCK
  5
1C
330
1B
100
AcDbEntity
 67
     1
  8
0
100
AcDbBlockBegin
  2
*Paper_Space
 70
     0
 10
0.0
 20
0.0
 30
0.0
  3
*Paper_Space
  1

  0
ENDBLK
  5
1D
330
1B
100
AcDbEntity
 67
     1
  8
0
100
AcDbBlockEnd
  0
BLOCK
  5
24
330
23
100
AcDbEntity
  8
0
100
AcDbBlockBegin
  2
*Paper_Space0
 70
     0
 10
0.0
 20
0.0
 30
0.0
  3
*Paper_Space0
  1

  0
ENDBLK
  5
25
330
23
100
AcDbEntity
  8
0
100
AcDbBlockEnd
  0
BLOCK
  5
43
330
41
100
AcDbEntity
  8
0
100
AcDbBlockBegin
  2
block 2
 70
     0
 10
0.0
 20
0.0
 30
0.0
  3
block 2
  1

  0
INSERT
  5
46
330
41
100
AcDbEntity
  8
Layer 1
100
AcDbBlockReference
  2
block 3
 10
0.0
 20
0.0
 30
0.0
  0
INSERT
  5
5B
330
41
100
AcDbEntity
  8
Layer 1
100
AcDbBlockReference
  2
block 4
 10
0.0
 20
0.0
 30
0.0
  0
ENDBLK
  5
44
330
41
100
AcDbEntity
  8
0
100
AcDbBlockEnd
  0
BLOCK
  5
47
330
45
100
AcDbEntity
  8
0
100
AcDbBlockBegin
  2
block 3
 70
     0
 10
0.0
 20
0.0
 30
0.0
  3
block 3
  1

  0
SPLINE
  5
49
330
45
100
AcDbEntity
  8
Layer 1
370
     0
100
AcDbSpline
210
0.0
220
0.0
230
1.0
 70
    11
 71
     3
 72
    35
 73
    31
 74
     0
 42
0.0000000001
 43
0.0000000001
 12
1.0
 22
0.0
 32
0.0
 13
1.0
 23
0.0
 33
0.0
 40
0.0
 40
0.0
 40
0.0
 40
0.0
 40
1.0
 40
1.0
 40
1.0
 40
2.0
 40
2.0
 40
2.0
 40
3.0
 40
3.0
 40
3.0
 40
4.0
 40
4.0
 40
4.0
 40
5.0
 40
5.0
 40
5.0
 40
6.0
 40
6.0
 40
6.0
 40
7.0
 40
7.0
 40
7.0
 40
8.0
 40
8.0
 40
8.0
 40
9.0
 40
9.0
 40
9.0
 40
10.0
 40
10.0
 40
10.0
 40
10.0
 10
76.99864107432232
 20
-135.2887984387942
 30
0.0
 10
78.57373873017855
 20
-134.965820737052
 30
0.0
 10
81.44143621210051
 20
-134.7234582696647
 30
0.0
 10
84.22817395011911
 20
-134.7234582696647
 30
0.0
 10
87.90340181378363
 20
-134.7234582696647
 30
0.0
 10
90.16510699985015
 20
-135.1677033324877
 30
0.0
 10
92.02304699504539
 20
-136.4601309037791
 30
0.0
 10
93.71941201198241
 20
-137.4698883905059
 30
0.0
 10
94.85009235024141
 20
-139.2468686417978
 30
0.0
 10
94.85009235024141
 20
-141.5490536998159
 30
0.0
 10
94.85009235024141
 20
-144.0531213532698
 30
0.0
 10
93.27499469438519
 20
-146.355306411288
 30
0.0
 10
90.32668197810837
 20
-147.4456791323696
 30
0.0
 10
90.32668197810837
 20
-147.4456791323696
 30
0.0
 10
90.32668197810837
 20
-147.5264666214987
 30
0.0
 10
90.32668197810837
 20
-147.5264666214987
 30
0.0
 10
93.19437946003033
 20
-148.2535540236607
 30
0.0
 10
95.8195422197907
 20
-150.5152592097272
 30
0.0
 10
95.8195422197907
 20
-154.2714468172951
 30
0.0
 10
95.8195422197907
 20
-156.6947269816198
 30
0.0
 10
94.76947711588656
 20
-158.5929745939925
 30
0.0
 10
93.19437946003033
 20
-159.8854021652839
 30
0.0
 10
91.25582423048026
 20
-161.5815949274467
 30
0.0
 10
88.06497679204185
 20
-162.4297774359152
 30
0.0
 10
83.09714910231159
 20
-162.4297774359152
 30
0.0
 10
80.35071898147042
 20
-162.4297774359152
 30
0.0
 10
78.25058877366212
 20
-162.2278948404796
 30
0.0
 10
76.99864107432232
 20
-162.0663198622214
 30
0.0
 10
76.99864107432232
 20
-162.0663198622214
 30
0.0
 10
76.99864107432232
 20
-135.2887984387942
 30
0.0
 10
76.99864107432232
 20
-135.2887984387942
 30
0.0
  0
SPLINE
  5
4A
330
45
100
AcDbEntity
  8
Layer 1
370
     0
100
AcDbSpline
210
0.0
220
0.0
230
1.0
 70
    11
 71
     3
 72
    20
 73
    16
 74
     0
 42
0.0000000001
 43
0.0000000001
 12
1.0
 22
0.0
 32
0.0
 13
1.0
 23
0.0
 33
0.0
 40
0.0
 40
0.0
 40
0.0
 40
0.0
 40
1.0
 40
1.0
 40
1.0
 40
2.0
 40
2.0
 40
2.0
 40
3.0
 40
3.0
 40
3.0
 40
4.0
 40
4.0
 40
4.0
 40
5.0
 40
5.0
 40
5.0
 40
5.0
 10
81.92581663732665
 20
-146.0321564547716
 30
0.0
 10
81.92581663732665
 20
-146.0321564547716
 30
0.0
 10
84.47036416273217
 20
-146.0321564547716
 30
0.0
 10
84.47036416273217
 20
-146.0321564547716
 30
0.0
 10
87.90340181378363
 20
-146.0321564547716
 30
0.0
 10
89.84195704333372
 20
-144.4165789269637
 30
0.0
 10
89.84195704333372
 20
-142.1145661237197
 30
0.0
 10
89.84195704333372
 20
-139.5700185983142
 30
0.0
 10
87.90340181378363
 20
-138.3986861333292
 30
0.0
 10
84.75320650207118
 20
-138.3986861333292
 30
0.0
 10
83.29903169774722
 20
-138.3986861333292
 30
0.0
 10
82.45119369882724
 20
-138.4794736224584
 30
0.0
 10
81.92581663732665
 20
-138.6007409835391
 30
0.0
 10
81.92581663732665
 20
-138.6007409835391
 30
0.0
 10
81.92581663732665
 20
-146.0321564547716
 30
0.0
 10
81.92581663732665
 20
-146.0321564547716
 30
0.0
  0
SPLINE
  5
4B
330
45
100
AcDbEntity
  8
Layer 1
370
     0
100
AcDbSpline
210
0.0
220
0.0
230
1.0
 70
    11
 71
     3
 72
    20
 73
    16
 74
     0
 42
0.0000000001
 43
0.0000000001
 12
1.0
 22
0.0
 32
0.0
 13
1.0
 23
0.0
 33
0.0
 40
0.0
 40
0.0
 40
0.0
 40
0.0
 40
1.0
 40
1.0
 40
1.0
 40
2.0
 40
2.0
 40
2.0
 40
3.0
 40
3.0
 40
3.0
 40
4.0
 40
4.0
 40
4.0
 40
5.0
 40
5.0
 40
5.0
 40
5.0
 10
81.92581663732665
 20
-158.5524947220408
 30
0.0
 10
82.57211655035951
 20
-158.6332822111699
 30
0.0
 10
83.42029905882802
 20
-158.6737620831216
 30
0.0
 10
84.55132390663555
 20
-158.6737620831216
 30
0.0
 10
87.74182683552542
 20
-158.6737620831216
 30
0.0
 10
90.56921670026996
 20
-157.4621220009592
 30
0.0
 10
90.56921670026996
 20
-154.1098718390369
 30
0.0
 10
90.56921670026996
 20
-150.9595042725502
 30
0.0
 10
87.8227865794288
 20
-149.6670767012587
 30
0.0
 10
84.38974892837733
 20
-149.6670767012587
 30
0.0
 10
84.38974892837733
 20
-149.6670767012587
 30
0.0
 10
81.92581663732665
 20
-149.6670767012587
 30
0.0
 10
81.92581663732665
 20
-149.6670767012587
 30
0.0
 10
81.92581663732665
 20
-149.6670767012587
 30
0.0
 10
81.92581663732665
 20
-158.5524947220408
 30
0.0
 10
81.92581663732665
 20
-158.5524947220408
 30
0.0
  0
HATCH
  5
4C
330
45
100
AcDbEntity
  8
Layer 1
 62
   178
420
    65793
100
AcDbHatch
 10
0.0
 20
0.0
 30
0.0
210
0.0
220
0.0
230
1.0
  2
SOLID
 70
     1
 71
     0
 91
        3
 92
        1
 93
        1
 72
     4
 94
        3
 73
     0
 74
     1
 95
       35
 96
       31
 40
0.0
 40
0.0
 40
0.0
 40
0.0
 40
1.0
 40
1.0
 40
1.0
 40
2.0
 40
2.0
 40
2.0
 40
3.0
 40
3.0
 40
3.0
 40
4.0
 40
4.0
 40
4.0
 40
5.0
 40
5.0
 40
5.0
 40
6.0
 40
6.0
 40
6.0
 40
7.0
 40
7.0
 40
7.0
 40
8.0
 40
8.0
 40
8.0
 40
9.0
 40
9.0
 40
9.0
 40
10.0
 40
10.0
 40
10.0
 40
10.0
 10
76.99864107432232
 20
-135.2887984387942
 10
78.57373873017855
 20
-134.965820737052
 10
81.44143621210051
 20
-134.7234582696647
 10
84.22817395011911
 20
-134.7234582696647
 10
87.90340181378363
 20
-134.7234582696647
 10
90.16510699985015
 20
-135.1677033324877
 10
92.02304699504539
 20
-136.4601309037791
 10
93.71941201198241
 20
-137.4698883905059
 10
94.85009235024141
 20
-139.2468686417978
 10
94.85009235024141
 20
-141.5490536998159
 10
94.85009235024141
 20
-144.0531213532698
 10
93.27499469438519
 20
-146.355306411288
 10
90.32668197810837
 20
-147.4456791323696
 10
90.32668197810837
 20
-147.4456791323696
 10
90.32668197810837
 20
-147.5264666214987
 10
90.32668197810837
 20
-147.5264666214987
 10
93.19437946003033
 20
-148.2535540236607
 10
95.8195422197907
 20
-150.5152592097272
 10
95.8195422197907
 20
-154.2714468172951
 10
95.8195422197907
 20
-156.6947269816198
 10
94.76947711588656
 20
-158.5929745939925
 10
93.19437946003033
 20
-159.8854021652839
 10
91.25582423048026
 20
-161.5815949274467
 10
88.06497679204185
 20
-162.4297774359152
 10
83.09714910231159
 20
-162.4297774359152
 10
80.35071898147042
 20
-162.4297774359152
 10
78.25058877366212
 20
-162.2278948404796
 10
76.99864107432232
 20
-162.0663198622214
 10
76.99864107432232
 20
-162.0663198622214
 10
76.99864107432232
 20
-135.2887984387942
 10
76.99864107432232
 20
-135.2887984387942
 97
        0
 97
        0
 92
        1
 93
        1
 72
     4
 94
        3
 73
     0
 74
     1
 95
       20
 96
       16
 40
0.0
 40
0.0
 40
0.0
 40
0.0
 40
1.0
 40
1.0
 40
1.0
 40
2.0
 40
2.0
 40
2.0
 40
3.0
 40
3.0
 40
3.0
 40
4.0
 40
4.0
 40
4.0
 40
5.0
 40
5.0
 40
5.0
 40
5.0
 10
81.92581663732665
 20
-146.0321564547716
 10
81.92581663732665
 20
-146.0321564547716
 10
84.47036416273217
 20
-146.0321564547716
 10
84.47036416273217
 20
-146.0321564547716
 10
87.90340181378363
 20
-146.0321564547716
 10
89.84195704333372
 20
-144.4165789269637
 10
89.84195704333372
 20
-142.1145661237197
 10
89.84195704333372
 20
-139.5700185983142
 10
87.90340181378363
 20
-138.3986861333292
 10
84.75320650207118
 20
-138.3986861333292
 10
83.29903169774722
 20
-138.3986861333292
 10
82.45119369882724
 20
-138.4794736224584
 10
81.92581663732665
 20
-138.6007409835391
 10
81.92581663732665
 20
-138.6007409835391
 10
81.92581663732665
 20
-146.0321564547716
 10
81.92581663732665
 20
-146.0321564547716
 97
        0
 97
        0
 92
        1
 93
        1
 72
     4
 94
        3
 73
     0
 74
     1
 95
       20
 96
       16
 40
0.0
 40
0.0
 40
0.0
 40
0.0
 40
1.0
 40
1.0
 40
1.0
 40
2.0
 40
2.0
 40
2.0
 40
3.0
 40
3.0
 40
3.0
 40
4.0
 40
4.0
 40
4.0
 40
5.0
 40
5.0
 40
5.0
 40
5.0
 10
81.92581663732665
 20
-158.5524947220408
 10
82.57211655035951
 20
-158.6332822111699
 10
83.42029905882802
 20
-158.6737620831216
 10
84.55132390663555
 20
-158.6737620831216
 10
87.74182683552542
 20
-158.6737620831216
 10
90.56921670026996
 20
-157.4621220009592
 10
90.56921670026996
 20
-154.1098718390369
 10
90.56921670026996
 20
-150.9595042725502
 10
87.8227865794288
 20
-149.6670767012587
 10
84.38974892837733
 20
-149.6670767012587
 10
84.38974892837733
 20
-149.6670767012587
 10
81.92581663732665
 20
-149.6670767012587
 10
81.92581663732665
 20
-149.6670767012587
 10
81.92581663732665
 20
-149.6670767012587
 10
81.92581663732665
 20
-158.5524947220408
 10
81.92581663732665
 20
-158.5524947220408
 97
        0
 97
        0
 75
     2
 76
     1
 98
        0
  0
SPLINE
  5
4D
330
45
100
AcDbEntity
  8
Layer 1
370
     0
100
AcDbSpline
210
0.0
220
0.0
230
1.0
 70
    11
 71
     3
 72
    17
 73
    13
 74
     0
 42
0.0000000001
 43
0.0000000001
 12
1.0
 22
0.0
 32
0.0
 13
1.0
 23
0.0
 33
0.0
 40
0.0
 40
0.0
 40
0.0
 40
0.0
 40
1.0
 40
1.0
 40
1.0
 40
2.0
 40
2.0
 40
2.0
 40
3.0
 40
3.0
 40
3.0
 40
4.0
 40
4.0
 40
4.0
 40
4.0
 10
118.0283502654538
 20
-152.1308367375351
 30
0.0
 10
118.0283502654538
 20
-159.3603696133319
 30
0.0
 10
112.9392552146427
 20
-162.5913524141734
 30
0.0
 10
107.931119907735
 20
-162.5913524141734
 30
0.0
 10
102.3576444316978
 20
-162.5913524141734
 30
0.0
 10
98.07642427217787
 20
-158.7545495722507
 30
0.0
 10
98.07642427217787
 20
-152.4539866940515
 30
0.0
 10
98.07642427217787
 20
-145.9916765828199
 30
0.0
 10
102.3173368145204
 20
-142.0337786345906
 30
0.0
 10
108.2542698642515
 20
-142.0337786345906
 30
0.0
 10
114.1105876796277
 20
-142.0337786345906
 30
0.0
 10
118.0283502654538
 20
-146.1532515610781
 30
0.0
 10
118.0283502654538
 20
-152.1308367375351
 30
0.0
  0
SPLINE
  5
4E
330
45
100
AcDbEntity
  8
Layer 1
370
     0
100
AcDbSpline
210
0.0
220
0.0
230
1.0
 70
    11
 71
     3
 72
    17
 73
    13
 74
     0
 42
0.0000000001
 43
0.0000000001
 12
1.0
 22
0.0
 32
0.0
 13
1.0
 23
0.0
 33
0.0
 40
0.0
 40
0.0
 40
0.0
 40
0.0
 40
1.0
 40
1.0
 40
1.0
 40
2.0
 40
2.0
 40
2.0
 40
3.0
 40
3.0
 40
3.0
 40
4.0
 40
4.0
 40
4.0
 40
4.0
 10
103.2058269401664
 20
-152.3327193329707
 30
0.0
 10
103.2058269401664
 20
-156.1292145577161
 30
0.0
 10
105.0634224258131
 20
-158.9967397848638
 30
0.0
 10
108.0926948859933
 20
-158.9967397848638
 30
0.0
 10
110.9197402411893
 20
-158.9967397848638
 30
0.0
 10
112.8989475974653
 20
-156.2100020468452
 30
0.0
 10
112.8989475974653
 20
-152.2519318438416
 30
0.0
 10
112.8989475974653
 20
-149.1825240212583
 30
0.0
 10
111.5257325370447
 20
-145.6686988810777
 30
0.0
 10
108.1330025031707
 20
-145.6686988810777
 30
0.0
 10
104.6193496177644
 20
-145.6686988810777
 30
0.0
 10
103.2058269401664
 20
-149.0612566601775
 30
0.0
 10
103.2058269401664
 20
-152.3327193329707
 30
0.0
  0
HATCH
  5
4F
330
45
100
AcDbEntity
  8
Layer 1
 62
   178
420
    65793
100
AcDbHatch
 10
0.0
 20
0.0
 30
0.0
210
0.0
220
0.0
230
1.0
  2
SOLID
 70
     1
 71
     0
 91
        2
 92
        1
 93
        1
 72
     4
 94
        3
 73
     0
 74
     1
 95
       17
 96
       13
 40
0.0
 40
0.0
 40
0.0
 40
0.0
 40
1.0
 40
1.0
 40
1.0
 40
2.0
 40
2.0
 40
2.0
 40
3.0
 40
3.0
 40
3.0
 40
4.0
 40
4.0
 40
4.0
 40
4.0
 10
118.0283502654538
 20
-152.1308367375351
 10
118.0283502654538
 20
-159.3603696133319
 10
112.9392552146427
 20
-162.5913524141734
 10
107.931119907735
 20
-162.5913524141734
 10
102.3576444316978
 20
-162.5913524141734
 10
98.07642427217787
 20
-158.7545495722507
 10
98.07642427217787
 20
-152.4539866940515
 10
98.07642427217787
 20
-145.9916765828199
 10
102.3173368145204
 20
-142.0337786345906
 10
108.2542698642515
 20
-142.0337786345906
 10
114.1105876796277
 20
-142.0337786345906
 10
118.0283502654538
 20
-146.1532515610781
 10
118.0283502654538
 20
-152.1308367375351
 97
        0
 97
        0
 92
        1
 93
        1
 72
     4
 94
        3
 73
     0
 74
     1
 95
       17
 96
       13
 40
0.0
 40
0.0
 40
0.0
 40
0.0
 40
1.0
 40
1.0
 40
1.0
 40
2.0
 40
2.0
 40
2.0
 40
3.0
 40
3.0
 40
3.0
 40
4.0
 40
4.0
 40
4.0
 40
4.0
 10
103.2058269401664
 20
-152.3327193329707
 10
103.2058269401664
 20
-156.1292145577161
 10
105.0634224258131
 20
-158.9967397848638
 10
108.0926948859933
 20
-158.9967397848638
 10
110.9197402411893
 20
-158.9967397848638
 10
112.8989475974653
 20
-156.2100020468452
 10
112.8989475974653
 20
-152.2519318438416
 10
112.8989475974653
 20
-149.1825240212583
 10
111.5257325370447
 20
-145.6686988810777
 10
108.1330025031707
 20
-145.6686988810777
 10
104.6193496177644
 20
-145.6686988810777
 10
103.2058269401664
 20
-149.0612566601775
 10
103.2058269401664
 20
-152.3327193329707
 97
        0
 97
        0
 75
     2
 76
     1
 98
        0
  0
SPLINE
  5
50
330
45
100
AcDbEntity
  8
Layer 1
370
     0
100
AcDbSpline
210
0.0
220
0.0
230
1.0
 70
    11
 71
     3
 72
    47
 73
    43
 74
     0
 42
0.0000000001
 43
0.0000000001
 12
1.0
 22
0.0
 32
0.0
 13
1.0
 23
0.0
 33
0.0
 40
0.0
 40
0.0
 40
0.0
 40
0.0
 40
1.0
 40
1.0
 40
1.0
 40
2.0
 40
2.0
 40
2.0
 40
3.0
 40
3.0
 40
3.0
 40
4.0
 40
4.0
 40
4.0
 40
5.0
 40
5.0
 40
5.0
 40
6.0
 40
6.0
 40
6.0
 40
7.0
 40
7.0
 40
7.0
 40
8.0
 40
8.0
 40
8.0
 40
9.0
 40
9.0
 40
9.0
 40
10.0
 40
10.0
 40
10.0
 40
11.0
 40
11.0
 40
11.0
 40
12.0
 40
12.0
 40
12.0
 40
13.0
 40
13.0
 40
13.0
 40
14.0
 40
14.0
 40
14.0
 40
14.0
 10
132.413690973663
 20
-162.1471073513505
 30
0.0
 10
132.413690973663
 20
-162.1471073513505
 30
0.0
 10
132.0908855266951
 20
-159.9661896544131
 30
0.0
 10
132.0908855266951
 20
-159.9661896544131
 30
0.0
 10
132.0908855266951
 20
-159.9661896544131
 30
0.0
 10
131.9696181656143
 20
-159.9661896544131
 30
0.0
 10
131.9696181656143
 20
-159.9661896544131
 30
0.0
 10
130.7579780834519
 20
-161.5008074383176
 30
0.0
 10
128.6981554928211
 20
-162.5913524141734
 30
0.0
 10
126.1536079674155
 20
-162.5913524141734
 30
0.0
 10
122.195537764412
 20
-162.5913524141734
 30
0.0
 10
119.9741401955229
 20
-159.7238271870257
 30
0.0
 10
119.9741401955229
 20
-156.7350345987972
 30
0.0
 10
119.9741401955229
 20
-151.7673791638412
 30
0.0
 10
124.3766277161237
 20
-149.2631392556131
 30
0.0
 10
131.6464682090979
 20
-149.3036191275648
 30
0.0
 10
131.6464682090979
 20
-149.3036191275648
 30
0.0
 10
131.6464682090979
 20
-148.9804691710484
 30
0.0
 10
131.6464682090979
 20
-148.9804691710484
 30
0.0
 10
131.6464682090979
 20
-147.6880415997569
 30
0.0
 10
131.1214356571458
 20
-145.5474315199969
 30
0.0
 10
127.6480903889169
 20
-145.5474315199969
 30
0.0
 10
125.7095351593668
 20
-145.5474315199969
 30
0.0
 10
123.6900201859134
 20
-146.1532515610781
 30
0.0
 10
122.3571127426702
 20
-147.0014340695466
 30
0.0
 10
122.3571127426702
 20
-147.0014340695466
 30
0.0
 10
121.3876628731209
 20
-143.770451268705
 30
0.0
 10
121.3876628731209
 20
-143.770451268705
 30
0.0
 10
122.8418376774449
 20
-142.8817888882849
 30
0.0
 10
125.3863852028504
 20
-142.0337786345906
 30
0.0
 10
128.4962728973854
 20
-142.0337786345906
 30
0.0
 10
134.7966635208103
 20
-142.0337786345906
 30
0.0
 10
136.6142958988281
 20
-146.0321564547716
 30
0.0
 10
136.6142958988281
 20
-150.3133766142915
 30
0.0
 10
136.6142958988281
 20
-150.3133766142915
 30
0.0
 10
136.6142958988281
 20
-157.4216421290075
 30
0.0
 10
136.6142958988281
 20
-157.4216421290075
 30
0.0
 10
136.6142958988281
 20
-159.1987946350737
 30
0.0
 10
136.694911133183
 20
-160.9354672691881
 30
0.0
 10
136.8967937286186
 20
-162.1471073513505
 30
0.0
 10
136.8967937286186
 20
-162.1471073513505
 30
0.0
 10
132.413690973663
 20
-162.1471073513505
 30
0.0
 10
132.413690973663
 20
-162.1471073513505
 30
0.0
  0
SPLINE
  5
51
330
45
100
AcDbEntity
  8
Layer 1
370
     0
100
AcDbSpline
210
0.0
220
0.0
230
1.0
 70
    11
 71
     3
 72
    20
 73
    16
 74
     0
 42
0.0000000001
 43
0.0000000001
 12
1.0
 22
0.0
 32
0.0
 13
1.0
 23
0.0
 33
0.0
 40
0.0
 40
0.0
 40
0.0
 40
0.0
 40
1.0
 40
1.0
 40
1.0
 40
2.0
 40
2.0
 40
2.0
 40
3.0
 40
3.0
 40
3.0
 40
4.0
 40
4.0
 40
4.0
 40
5.0
 40
5.0
 40
5.0
 40
5.0
 10
131.7677355701787
 20
-152.5346019284064
 30
0.0
 10
128.2537381752238
 20
-152.4539866940515
 30
0.0
 10
124.9016602680757
 20
-153.2212094586167
 30
0.0
 10
124.9016602680757
 20
-156.2100020468452
 30
0.0
 10
124.9016602680757
 20
-158.1487295311695
 30
0.0
 10
126.1536079674155
 20
-159.0372196568154
 30
0.0
 10
127.7287056232718
 20
-159.0372196568154
 30
0.0
 10
129.7079129795478
 20
-159.0372196568154
 30
0.0
 10
131.1617432743232
 20
-157.744792085524
 30
0.0
 10
131.6061605919205
 20
-156.3310971531517
 30
0.0
 10
131.7270834434527
 20
-155.9676395794578
 30
0.0
 10
131.7677355701787
 20
-155.5638743885866
 30
0.0
 10
131.7677355701787
 20
-155.2407244320701
 30
0.0
 10
131.7677355701787
 20
-155.2407244320701
 30
0.0
 10
131.7677355701787
 20
-152.5346019284064
 30
0.0
 10
131.7677355701787
 20
-152.5346019284064
 30
0.0
  0
HATCH
  5
52
330
45
100
AcDbEntity
  8
Layer 1
 62
   178
420
    65793
100
AcDbHatch
 10
0.0
 20
0.0
 30
0.0
210
0.0
220
0.0
230
1.0
  2
SOLID
 70
     1
 71
     0
 91
        2
 92
        1
 93
        1
 72
     4
 94
        3
 73
     0
 74
     1
 95
       47
 96
       43
 40
0.0
 40
0.0
 40
0.0
 40
0.0
 40
1.0
 40
1.0
 40
1.0
 40
2.0
 40
2.0
 40
2.0
 40
3.0
 40
3.0
 40
3.0
 40
4.0
 40
4.0
 40
4.0
 40
5.0
 40
5.0
 40
5.0
 40
6.0
 40
6.0
 40
6.0
 40
7.0
 40
7.0
 40
7.0
 40
8.0
 40
8.0
 40
8.0
 40
9.0
 40
9.0
 40
9.0
 40
10.0
 40
10.0
 40
10.0
 40
11.0
 40
11.0
 40
11.0
 40
12.0
 40
12.0
 40
12.0
 40
13.0
 40
13.0
 40
13.0
 40
14.0
 40
14.0
 40
14.0
 40
14.0
 10
132.413690973663
 20
-162.1471073513505
 10
132.413690973663
 20
-162.1471073513505
 10
132.0908855266951
 20
-159.9661896544131
 10
132.0908855266951
 20
-159.9661896544131
 10
132.0908855266951
 20
-159.9661896544131
 10
131.9696181656143
 20
-159.9661896544131
 10
131.9696181656143
 20
-159.9661896544131
 10
130.7579780834519
 20
-161.5008074383176
 10
128.6981554928211
 20
-162.5913524141734
 10
126.1536079674155
 20
-162.5913524141734
 10
122.195537764412
 20
-162.5913524141734
 10
119.9741401955229
 20
-159.7238271870257
 10
119.9741401955229
 20
-156.7350345987972
 10
119.9741401955229
 20
-151.7673791638412
 10
124.3766277161237
 20
-149.2631392556131
 10
131.6464682090979
 20
-149.3036191275648
 10
131.6464682090979
 20
-149.3036191275648
 10
131.6464682090979
 20
-148.9804691710484
 10
131.6464682090979
 20
-148.9804691710484
 10
131.6464682090979
 20
-147.6880415997569
 10
131.1214356571458
 20
-145.5474315199969
 10
127.6480903889169
 20
-145.5474315199969
 10
125.7095351593668
 20
-145.5474315199969
 10
123.6900201859134
 20
-146.1532515610781
 10
122.3571127426702
 20
-147.0014340695466
 10
122.3571127426702
 20
-147.0014340695466
 10
121.3876628731209
 20
-143.770451268705
 10
121.3876628731209
 20
-143.770451268705
 10
122.8418376774449
 20
-142.8817888882849
 10
125.3863852028504
 20
-142.0337786345906
 10
128.4962728973854
 20
-142.0337786345906
 10
134.7966635208103
 20
-142.0337786345906
 10
136.6142958988281
 20
-146.0321564547716
 10
136.6142958988281
 20
-150.3133766142915
 10
136.6142958988281
 20
-150.3133766142915
 10
136.6142958988281
 20
-157.4216421290075
 10
136.6142958988281
 20
-157.4216421290075
 10
136.6142958988281
 20
-159.1987946350737
 10
136.694911133183
 20
-160.9354672691881
 10
136.8967937286186
 20
-162.1471073513505
 10
136.8967937286186
 20
-162.1471073513505
 10
132.413690973663
 20
-162.1471073513505
 10
132.413690973663
 20
-162.1471073513505
 97
        0
 97
        0
 92
        1
 93
        1
 72
     4
 94
        3
 73
     0
 74
     1
 95
       20
 96
       16
 40
0.0
 40
0.0
 40
0.0
 40
0.0
 40
1.0
 40
1.0
 40
1.0
 40
2.0
 40
2.0
 40
2.0
 40
3.0
 40
3.0
 40
3.0
 40
4.0
 40
4.0
 40
4.0
 40
5.0
 40
5.0
 40
5.0
 40
5.0
 10
131.7677355701787
 20
-152.5346019284064
 10
128.2537381752238
 20
-152.4539866940515
 10
124.9016602680757
 20
-153.2212094586167
 10
124.9016602680757
 20
-156.2100020468452
 10
124.9016602680757
 20
-158.1487295311695
 10
126.1536079674155
 20
-159.0372196568154
 10
127.7287056232718
 20
-159.0372196568154
 10
129.7079129795478
 20
-159.0372196568154
 10
131.1617432743232
 20
-157.744792085524
 10
131.6061605919205
 20
-156.3310971531517
 10
131.7270834434527
 20
-155.9676395794578
 10
131.7677355701787
 20
-155.5638743885866
 10
131.7677355701787
 20
-155.2407244320701
 10
131.7677355701787
 20
-155.2407244320701
 10
131.7677355701787
 20
-152.5346019284064
 10
131.7677355701787
 20
-152.5346019284064
 97
        0
 97
        0
 75
     2
 76
     1
 98
        0
  0
SPLINE
  5
53
330
45
100
AcDbEntity
  8
Layer 1
370
     0
100
AcDbSpline
210
0.0
220
0.0
230
1.0
 70
    11
 71
     3
 72
    44
 73
    40
 74
     0
 42
0.0000000001
 43
0.0000000001
 12
1.0
 22
0.0
 32
0.0
 13
1.0
 23
0.0
 33
0.0
 40
0.0
 40
0.0
 40
0.0
 40
0.0
 40
1.0
 40
1.0
 40
1.0
 40
2.0
 40
2.0
 40
2.0
 40
3.0
 40
3.0
 40
3.0
 40
4.0
 40
4.0
 40
4.0
 40
5.0
 40
5.0
 40
5.0
 40
6.0
 40
6.0
 40
6.0
 40
7.0
 40
7.0
 40
7.0
 40
8.0
 40
8.0
 40
8.0
 40
9.0
 40
9.0
 40
9.0
 40
10.0
 40
10.0
 40
10.0
 40
11.0
 40
11.0
 40
11.0
 40
12.0
 40
12.0
 40
12.0
 40
13.0
 40
13.0
 40
13.0
 40
13.0
 10
140.8827692050527
 20
-148.8188941927902
 30
0.0
 10
140.8827692050527
 20
-146.1532515610781
 30
0.0
 10
140.8421170783267
 20
-144.2550039487055
 30
0.0
 10
140.7211942267945
 20
-142.4780236974136
 30
0.0
 10
140.7211942267945
 20
-142.4780236974136
 30
0.0
 10
145.0427220034919
 20
-142.4780236974136
 30
0.0
 10
145.0427220034919
 20
-142.4780236974136
 30
0.0
 10
145.0427220034919
 20
-142.4780236974136
 30
0.0
 10
145.2042969817501
 20
-146.2340390502072
 30
0.0
 10
145.2042969817501
 20
-146.2340390502072
 30
0.0
 10
145.2042969817501
 20
-146.2340390502072
 30
0.0
 10
145.3658719600083
 20
-146.2340390502072
 30
0.0
 10
145.3658719600083
 20
-146.2340390502072
 30
0.0
 10
146.3349773200091
 20
-143.4473013121886
 30
0.0
 10
148.6373346328016
 20
-142.0337786345906
 30
0.0
 10
150.7374648406098
 20
-142.0337786345906
 30
0.0
 10
151.2221897753845
 20
-142.0337786345906
 30
0.0
 10
151.504687605175
 20
-142.074086251768
 30
0.0
 10
151.9087973055948
 20
-142.1548737408971
 30
0.0
 10
151.9087973055948
 20
-142.1548737408971
 30
0.0
 10
151.9087973055948
 20
-146.8398590912884
 30
0.0
 10
151.9087973055948
 20
-146.8398590912884
 30
0.0
 10
151.504687605175
 20
-146.7590716021593
 30
0.0
 10
151.0606147971263
 20
-146.6782841130302
 30
0.0
 10
150.4546225012708
 20
-146.6782841130302
 30
0.0
 10
148.0716499541235
 20
-146.6782841130302
 30
0.0
 10
146.4562446810899
 20
-148.213074151709
 30
0.0
 10
146.0118273634926
 20
-150.4344717205981
 30
0.0
 10
145.9312121291378
 20
-150.8787167834211
 30
0.0
 10
145.8505968947829
 20
-151.4037493353731
 30
0.0
 10
145.8505968947829
 20
-151.9692617592769
 30
0.0
 10
145.8505968947829
 20
-151.9692617592769
 30
0.0
 10
145.8505968947829
 20
-162.1471073513505
 30
0.0
 10
145.8505968947829
 20
-162.1471073513505
 30
0.0
 10
145.8505968947829
 20
-162.1471073513505
 30
0.0
 10
140.8827692050527
 20
-162.1471073513505
 30
0.0
 10
140.8827692050527
 20
-162.1471073513505
 30
0.0
 10
140.8827692050527
 20
-162.1471073513505
 30
0.0
 10
140.8827692050527
 20
-148.8188941927902
 30
0.0
 10
140.8827692050527
 20
-148.8188941927902
 30
0.0
  0
HATCH
  5
54
330
45
100
AcDbEntity
  8
Layer 1
 62
   178
420
    65793
100
AcDbHatch
 10
0.0
 20
0.0
 30
0.0
210
0.0
220
0.0
230
1.0
  2
SOLID
 70
     1
 71
     0
 91
        1
 92
        1
 93
        1
 72
     4
 94
        3
 73
     0
 74
     1
 95
       44
 96
       40
 40
0.0
 40
0.0
 40
0.0
 40
0.0
 40
1.0
 40
1.0
 40
1.0
 40
2.0
 40
2.0
 40
2.0
 40
3.0
 40
3.0
 40
3.0
 40
4.0
 40
4.0
 40
4.0
 40
5.0
 40
5.0
 40
5.0
 40
6.0
 40
6.0
 40
6.0
 40
7.0
 40
7.0
 40
7.0
 40
8.0
 40
8.0
 40
8.0
 40
9.0
 40
9.0
 40
9.0
 40
10.0
 40
10.0
 40
10.0
 40
11.0
 40
11.0
 40
11.0
 40
12.0
 40
12.0
 40
12.0
 40
13.0
 40
13.0
 40
13.0
 40
13.0
 10
140.8827692050527
 20
-148.8188941927902
 10
140.8827692050527
 20
-146.1532515610781
 10
140.8421170783267
 20
-144.2550039487055
 10
140.7211942267945
 20
-142.4780236974136
 10
140.7211942267945
 20
-142.4780236974136
 10
145.0427220034919
 20
-142.4780236974136
 10
145.0427220034919
 20
-142.4780236974136
 10
145.0427220034919
 20
-142.4780236974136
 10
145.2042969817501
 20
-146.2340390502072
 10
145.2042969817501
 20
-146.2340390502072
 10
145.2042969817501
 20
-146.2340390502072
 10
145.3658719600083
 20
-146.2340390502072
 10
145.3658719600083
 20
-146.2340390502072
 10
146.3349773200091
 20
-143.4473013121886
 10
148.6373346328016
 20
-142.0337786345906
 10
150.7374648406098
 20
-142.0337786345906
 10
151.2221897753845
 20
-142.0337786345906
 10
151.504687605175
 20
-142.074086251768
 10
151.9087973055948
 20
-142.1548737408971
 10
151.9087973055948
 20
-142.1548737408971
 10
151.9087973055948
 20
-146.8398590912884
 10
151.9087973055948
 20
-146.8398590912884
 10
151.504687605175
 20
-146.7590716021593
 10
151.0606147971263
 20
-146.6782841130302
 10
150.4546225012708
 20
-146.6782841130302
 10
148.0716499541235
 20
-146.6782841130302
 10
146.4562446810899
 20
-148.213074151709
 10
146.0118273634926
 20
-150.4344717205981
 10
145.9312121291378
 20
-150.8787167834211
 10
145.8505968947829
 20
-151.4037493353731
 10
145.8505968947829
 20
-151.9692617592769
 10
145.8505968947829
 20
-151.9692617592769
 10
145.8505968947829
 20
-162.1471073513505
 10
145.8505968947829
 20
-162.1471073513505
 10
145.8505968947829
 20
-162.1471073513505
 10
140.8827692050527
 20
-162.1471073513505
 10
140.8827692050527
 20
-162.1471073513505
 10
140.8827692050527
 20
-162.1471073513505
 10
140.8827692050527
 20
-148.8188941927902
 10
140.8827692050527
 20
-148.8188941927902
 97
        0
 97
        0
 75
     2
 76
     1
 98
        0
  0
SPLINE
  5
55
330
45
100
AcDbEntity
  8
Layer 1
370
     0
100
AcDbSpline
210
0.0
220
0.0
230
1.0
 70
    11
 71
     3
 72
    41
 73
    37
 74
     0
 42
0.0000000001
 43
0.0000000001
 12
1.0
 22
0.0
 32
0.0
 13
1.0
 23
0.0
 33
0.0
 40
0.0
 40
0.0
 40
0.0
 40
0.0
 40
1.0
 40
1.0
 40
1.0
 40
2.0
 40
2.0
 40
2.0
 40
3.0
 40
3.0
 40
3.0
 40
4.0
 40
4.0
 40
4.0
 40
5.0
 40
5.0
 40
5.0
 40
6.0
 40
6.0
 40
6.0
 40
7.0
 40
7.0
 40
7.0
 40
8.0
 40
8.0
 40
8.0
 40
9.0
 40
9.0
 40
9.0
 40
10.0
 40
10.0
 40
10.0
 40
11.0
 40
11.0
 40
11.0
 40
12.0
 40
12.0
 40
12.0
 40
12.0
 10
172.5662788542499
 20
-133.4713383155507
 30
0.0
 10
172.5662788542499
 20
-133.4713383155507
 30
0.0
 10
172.5662788542499
 20
-156.6139394924907
 30
0.0
 10
172.5662788542499
 20
-156.6139394924907
 30
0.0
 10
172.5662788542499
 20
-158.6332822111699
 30
0.0
 10
172.6472385981532
 20
-160.8143721628816
 30
0.0
 10
172.7278538325081
 20
-162.1471073513505
 30
0.0
 10
172.7278538325081
 20
-162.1471073513505
 30
0.0
 10
168.2854032042784
 20
-162.1471073513505
 30
0.0
 10
168.2854032042784
 20
-162.1471073513505
 30
0.0
 10
168.2854032042784
 20
-162.1471073513505
 30
0.0
 10
168.0831760992943
 20
-159.0372196568154
 30
0.0
 10
168.0831760992943
 20
-159.0372196568154
 30
0.0
 10
168.0831760992943
 20
-159.0372196568154
 30
0.0
 10
168.0025608649394
 20
-159.0372196568154
 30
0.0
 10
168.0025608649394
 20
-159.0372196568154
 30
0.0
 10
166.8312283999545
 20
-161.2181373537529
 30
0.0
 10
164.4482558528071
 20
-162.5913524141734
 30
0.0
 10
161.5809028804337
 20
-162.5913524141734
 30
0.0
 10
156.8959175300425
 20
-162.5913524141734
 30
0.0
 10
153.180037539652
 20
-158.5929745939925
 30
0.0
 10
153.180037539652
 20
-152.5346019284064
 30
0.0
 10
153.1397299224745
 20
-145.9513689656425
 30
0.0
 10
157.2593751037363
 20
-142.0337786345906
 30
0.0
 10
161.984668071305
 20
-142.0337786345906
 30
0.0
 10
164.6907905749687
 20
-142.0337786345906
 30
0.0
 10
166.6293458045188
 20
-143.1646312276239
 30
0.0
 10
167.5178359301648
 20
-144.6186337771736
 30
0.0
 10
167.5178359301648
 20
-144.6186337771736
 30
0.0
 10
167.5987956740681
 20
-144.6186337771736
 30
0.0
 10
167.5987956740681
 20
-144.6186337771736
 30
0.0
 10
167.5987956740681
 20
-144.6186337771736
 30
0.0
 10
167.5987956740681
 20
-133.4713383155507
 30
0.0
 10
167.5987956740681
 20
-133.4713383155507
 30
0.0
 10
167.5987956740681
 20
-133.4713383155507
 30
0.0
 10
172.5662788542499
 20
-133.4713383155507
 30
0.0
 10
172.5662788542499
 20
-133.4713383155507
 30
0.0
  0
SPLINE
  5
56
330
45
100
AcDbEntity
  8
Layer 1
370
     0
100
AcDbSpline
210
0.0
220
0.0
230
1.0
 70
    11
 71
     3
 72
    26
 73
    22
 74
     0
 42
0.0000000001
 43
0.0000000001
 12
1.0
 22
0.0
 32
0.0
 13
1.0
 23
0.0
 33
0.0
 40
0.0
 40
0.0
 40
0.0
 40
0.0
 40
1.0
 40
1.0
 40
1.0
 40
2.0
 40
2.0
 40
2.0
 40
3.0
 40
3.0
 40
3.0
 40
4.0
 40
4.0
 40
4.0
 40
5.0
 40
5.0
 40
5.0
 40
6.0
 40
6.0
 40
6.0
 40
7.0
 40
7.0
 40
7.0
 40
7.0
 10
167.5987956740681
 20
-150.6768341879854
 30
0.0
 10
167.5987956740681
 20
-150.2728967423399
 30
0.0
 10
167.5581435473422
 20
-149.7883440623395
 30
0.0
 10
167.4775283129873
 20
-149.3844066166939
 30
0.0
 10
167.0331109953901
 20
-147.4456791323696
 30
0.0
 10
165.4580133395339
 20
-145.8705814765134
 30
0.0
 10
163.1963081534674
 20
-145.8705814765134
 30
0.0
 10
160.0058052245775
 20
-145.8705814765134
 30
0.0
 10
158.2284804637371
 20
-148.6977990864836
 30
0.0
 10
158.2284804637371
 20
-152.3731992049224
 30
0.0
 10
158.2284804637371
 20
-155.9676395794578
 30
0.0
 10
160.0058052245775
 20
-158.5929745939925
 30
0.0
 10
163.1560005362899
 20
-158.5929745939925
 30
0.0
 10
165.1755155097434
 20
-158.5929745939925
 30
0.0
 10
166.9524957610353
 20
-157.2197595335719
 30
0.0
 10
167.4372206958099
 20
-155.0791494538119
 30
0.0
 10
167.5581435473422
 20
-154.6349043909889
 30
0.0
 10
167.5987956740681
 20
-154.1501794562143
 30
0.0
 10
167.5987956740681
 20
-153.6251469042622
 30
0.0
 10
167.5987956740681
 20
-153.6251469042622
 30
0.0
 10
167.5987956740681
 20
-150.6768341879854
 30
0.0
 10
167.5987956740681
 20
-150.6768341879854
 30
0.0
  0
HATCH
  5
57
330
45
100
AcDbEntity
  8
Layer 1
 62
   178
420
    65793
100
AcDbHatch
 10
0.0
 20
0.0
 30
0.0
210
0.0
220
0.0
230
1.0
  2
SOLID
 70
     1
 71
     0
 91
        2
 92
        1
 93
        1
 72
     4
 94
        3
 73
     0
 74
     1
 95
       41
 96
       37
 40
0.0
 40
0.0
 40
0.0
 40
0.0
 40
1.0
 40
1.0
 40
1.0
 40
2.0
 40
2.0
 40
2.0
 40
3.0
 40
3.0
 40
3.0
 40
4.0
 40
4.0
 40
4.0
 40
5.0
 40
5.0
 40
5.0
 40
6.0
 40
6.0
 40
6.0
 40
7.0
 40
7.0
 40
7.0
 40
8.0
 40
8.0
 40
8.0
 40
9.0
 40
9.0
 40
9.0
 40
10.0
 40
10.0
 40
10.0
 40
11.0
 40
11.0
 40
11.0
 40
12.0
 40
12.0
 40
12.0
 40
12.0
 10
172.5662788542499
 20
-133.4713383155507
 10
172.5662788542499
 20
-133.4713383155507
 10
172.5662788542499
 20
-156.6139394924907
 10
172.5662788542499
 20
-156.6139394924907
 10
172.5662788542499
 20
-158.6332822111699
 10
172.6472385981532
 20
-160.8143721628816
 10
172.7278538325081
 20
-162.1471073513505
 10
172.7278538325081
 20
-162.1471073513505
 10
168.2854032042784
 20
-162.1471073513505
 10
168.2854032042784
 20
-162.1471073513505
 10
168.2854032042784
 20
-162.1471073513505
 10
168.0831760992943
 20
-159.0372196568154
 10
168.0831760992943
 20
-159.0372196568154
 10
168.0831760992943
 20
-159.0372196568154
 10
168.0025608649394
 20
-159.0372196568154
 10
168.0025608649394
 20
-159.0372196568154
 10
166.8312283999545
 20
-161.2181373537529
 10
164.4482558528071
 20
-162.5913524141734
 10
161.5809028804337
 20
-162.5913524141734
 10
156.8959175300425
 20
-162.5913524141734
 10
153.180037539652
 20
-158.5929745939925
 10
153.180037539652
 20
-152.5346019284064
 10
153.1397299224745
 20
-145.9513689656425
 10
157.2593751037363
 20
-142.0337786345906
 10
161.984668071305
 20
-142.0337786345906
 10
164.6907905749687
 20
-142.0337786345906
 10
166.6293458045188
 20
-143.1646312276239
 10
167.5178359301648
 20
-144.6186337771736
 10
167.5178359301648
 20
-144.6186337771736
 10
167.5987956740681
 20
-144.6186337771736
 10
167.5987956740681
 20
-144.6186337771736
 10
167.5987956740681
 20
-144.6186337771736
 10
167.5987956740681
 20
-133.4713383155507
 10
167.5987956740681
 20
-133.4713383155507
 10
167.5987956740681
 20
-133.4713383155507
 10
172.5662788542499
 20
-133.4713383155507
 10
172.5662788542499
 20
-133.4713383155507
 97
        0
 97
        0
 92
        1
 93
        1
 72
     4
 94
        3
 73
     0
 74
     1
 95
       26
 96
       22
 40
0.0
 40
0.0
 40
0.0
 40
0.0
 40
1.0
 40
1.0
 40
1.0
 40
2.0
 40
2.0
 40
2.0
 40
3.0
 40
3.0
 40
3.0
 40
4.0
 40
4.0
 40
4.0
 40
5.0
 40
5.0
 40
5.0
 40
6.0
 40
6.0
 40
6.0
 40
7.0
 40
7.0
 40
7.0
 40
7.0
 10
167.5987956740681
 20
-150.6768341879854
 10
167.5987956740681
 20
-150.2728967423399
 10
167.5581435473422
 20
-149.7883440623395
 10
167.4775283129873
 20
-149.3844066166939
 10
167.0331109953901
 20
-147.4456791323696
 10
165.4580133395339
 20
-145.8705814765134
 10
163.1963081534674
 20
-145.8705814765134
 10
160.0058052245775
 20
-145.8705814765134
 10
158.2284804637371
 20
-148.6977990864836
 10
158.2284804637371
 20
-152.3731992049224
 10
158.2284804637371
 20
-155.9676395794578
 10
160.0058052245775
 20
-158.5929745939925
 10
163.1560005362899
 20
-158.5929745939925
 10
165.1755155097434
 20
-158.5929745939925
 10
166.9524957610353
 20
-157.2197595335719
 10
167.4372206958099
 20
-155.0791494538119
 10
167.5581435473422
 20
-154.6349043909889
 10
167.5987956740681
 20
-154.1501794562143
 10
167.5987956740681
 20
-153.6251469042622
 10
167.5987956740681
 20
-153.6251469042622
 10
167.5987956740681
 20
-150.6768341879854
 10
167.5987956740681
 20
-150.6768341879854
 97
        0
 97
        0
 75
     2
 76
     1
 98
        0
  0
SPLINE
  5
58
330
45
100
AcDbEntity
  8
Layer 1
370
     0
100
AcDbSpline
210
0.0
220
0.0
230
1.0
 70
    11
 71
     3
 72
    47
 73
    43
 74
     0
 42
0.0000000001
 43
0.0000000001
 12
1.0
 22
0.0
 32
0.0
 13
1.0
 23
0.0
 33
0.0
 40
0.0
 40
0.0
 40
0.0
 40
0.0
 40
1.0
 40
1.0
 40
1.0
 40
2.0
 40
2.0
 40
2.0
 40
3.0
 40
3.0
 40
3.0
 40
4.0
 40
4.0
 40
4.0
 40
5.0
 40
5.0
 40
5.0
 40
6.0
 40
6.0
 40
6.0
 40
7.0
 40
7.0
 40
7.0
 40
8.0
 40
8.0
 40
8.0
 40
9.0
 40
9.0
 40
9.0
 40
10.0
 40
10.0
 40
10.0
 40
11.0
 40
11.0
 40
11.0
 40
12.0
 40
12.0
 40
12.0
 40
13.0
 40
13.0
 40
13.0
 40
14.0
 40
14.0
 40
14.0
 40
14.0
 10
176.7379449773389
 20
-157.5832171072657
 30
0.0
 10
177.8686253155979
 20
-158.269824637476
 30
0.0
 10
180.0094076501321
 20
-158.9967397848638
 30
0.0
 10
181.786387901424
 20
-158.9967397848638
 30
0.0
 10
183.9674778531357
 20
-158.9967397848638
 30
0.0
 10
184.9365832131365
 20
-158.1082496592178
 30
0.0
 10
184.9365832131365
 20
-156.8158220879263
 30
0.0
 10
184.9365832131365
 20
-155.4830868994574
 30
0.0
 10
184.1290528313939
 20
-154.7964793692472
 30
0.0
 10
181.7057726670692
 20
-153.9482968607786
 30
0.0
 10
177.8686253155979
 20
-152.6153894175355
 30
0.0
 10
176.2532200425642
 20
-150.5152592097272
 30
0.0
 10
176.2935276597417
 20
-148.213074151709
 30
0.0
 10
176.2935276597417
 20
-144.7397288834801
 30
0.0
 10
179.1612251416636
 20
-142.0337786345906
 30
0.0
 10
183.7249431309741
 20
-142.0337786345906
 30
0.0
 10
185.9060330826858
 20
-142.0337786345906
 30
0.0
 10
187.8042806950584
 20
-142.5991188037201
 30
0.0
 10
188.9353055428659
 20
-143.2049388448013
 30
0.0
 10
188.9353055428659
 20
-143.2049388448013
 30
0.0
 10
187.9658556733166
 20
-146.7187639849818
 30
0.0
 10
187.9658556733166
 20
-146.7187639849818
 30
0.0
 10
187.1176731648481
 20
-146.2340390502072
 30
0.0
 10
185.5425755089919
 20
-145.5879113919486
 30
0.0
 10
183.8059028748775
 20
-145.5879113919486
 30
0.0
 10
182.0289226235856
 20
-145.5879113919486
 30
0.0
 10
181.0594727540363
 20
-146.4360939004171
 30
0.0
 10
181.0594727540363
 20
-147.6477339825795
 30
0.0
 10
181.0594727540363
 20
-148.8996816819193
 30
0.0
 10
181.9882704968597
 20
-149.5055017230005
 30
0.0
 10
184.4925104050878
 20
-150.3941641034206
 30
0.0
 10
188.0464709076715
 20
-151.6865916747121
 30
0.0
 10
189.7025283074311
 20
-153.5040517979557
 30
0.0
 10
189.7428359246085
 20
-156.4118846422808
 30
0.0
 10
189.7428359246085
 20
-159.9661896544131
 30
0.0
 10
186.9560981865899
 20
-162.551044796996
 30
0.0
 10
181.7460802842466
 20
-162.551044796996
 30
0.0
 10
179.3631077370993
 20
-162.551044796996
 30
0.0
 10
177.2226699121135
 20
-161.9855323730922
 30
0.0
 10
175.7684951077896
 20
-161.1778297365754
 30
0.0
 10
175.7684951077896
 20
-161.1778297365754
 30
0.0
 10
176.7379449773389
 20
-157.5832171072657
 30
0.0
 10
176.7379449773389
 20
-157.5832171072657
 30
0.0
  0
HATCH
  5
59
330
45
100
AcDbEntity
  8
Layer 1
 62
   178
420
    65793
100
AcDbHatch
 10
0.0
 20
0.0
 30
0.0
210
0.0
220
0.0
230
1.0
  2
SOLID
 70
     1
 71
     0
 91
        1
 92
        1
 93
        1
 72
     4
 94
        3
 73
     0
 74
     1
 95
       47
 96
       43
 40
0.0
 40
0.0
 40
0.0
 40
0.0
 40
1.0
 40
1.0
 40
1.0
 40
2.0
 40
2.0
 40
2.0
 40
3.0
 40
3.0
 40
3.0
 40
4.0
 40
4.0
 40
4.0
 40
5.0
 40
5.0
 40
5.0
 40
6.0
 40
6.0
 40
6.0
 40
7.0
 40
7.0
 40
7.0
 40
8.0
 40
8.0
 40
8.0
 40
9.0
 40
9.0
 40
9.0
 40
10.0
 40
10.0
 40
10.0
 40
11.0
 40
11.0
 40
11.0
 40
12.0
 40
12.0
 40
12.0
 40
13.0
 40
13.0
 40
13.0
 40
14.0
 40
14.0
 40
14.0
 40
14.0
 10
176.7379449773389
 20
-157.5832171072657
 10
177.8686253155979
 20
-158.269824637476
 10
180.0094076501321
 20
-158.9967397848638
 10
181.786387901424
 20
-158.9967397848638
 10
183.9674778531357
 20
-158.9967397848638
 10
184.9365832131365
 20
-158.1082496592178
 10
184.9365832131365
 20
-156.8158220879263
 10
184.9365832131365
 20
-155.4830868994574
 10
184.1290528313939
 20
-154.7964793692472
 10
181.7057726670692
 20
-153.9482968607786
 10
177.8686253155979
 20
-152.6153894175355
 10
176.2532200425642
 20
-150.5152592097272
 10
176.2935276597417
 20
-148.213074151709
 10
176.2935276597417
 20
-144.7397288834801
 10
179.1612251416636
 20
-142.0337786345906
 10
183.7249431309741
 20
-142.0337786345906
 10
185.9060330826858
 20
-142.0337786345906
 10
187.8042806950584
 20
-142.5991188037201
 10
188.9353055428659
 20
-143.2049388448013
 10
188.9353055428659
 20
-143.2049388448013
 10
187.9658556733166
 20
-146.7187639849818
 10
187.9658556733166
 20
-146.7187639849818
 10
187.1176731648481
 20
-146.2340390502072
 10
185.5425755089919
 20
-145.5879113919486
 10
183.8059028748775
 20
-145.5879113919486
 10
182.0289226235856
 20
-145.5879113919486
 10
181.0594727540363
 20
-146.4360939004171
 10
181.0594727540363
 20
-147.6477339825795
 10
181.0594727540363
 20
-148.8996816819193
 10
181.9882704968597
 20
-149.5055017230005
 10
184.4925104050878
 20
-150.3941641034206
 10
188.0464709076715
 20
-151.6865916747121
 10
189.7025283074311
 20
-153.5040517979557
 10
189.7428359246085
 20
-156.4118846422808
 10
189.7428359246085
 20
-159.9661896544131
 10
186.9560981865899
 20
-162.551044796996
 10
181.7460802842466
 20
-162.551044796996
 10
179.3631077370993
 20
-162.551044796996
 10
177.2226699121135
 20
-161.9855323730922
 10
175.7684951077896
 20
-161.1778297365754
 10
175.7684951077896
 20
-161.1778297365754
 10
176.7379449773389
 20
-157.5832171072657
 10
176.7379449773389
 20
-157.5832171072657
 97
        0
 97
        0
 75
     2
 76
     1
 98
        0
  0
ENDBLK
  5
48
330
45
100
AcDbEntity
  8
0
100
AcDbBlockEnd
  0
BLOCK
  5
5C
330
5A
100
AcDbEntity
  8
0
100
AcDbBlockBegin
  2
block 4
 70
     0
 10
0.0
 20
0.0
 30
0.0
  3
block 4
  1

  0
SPLINE
  5
5E
330
5A
100
AcDbEntity
  8
Layer 1
370
     0
100
AcDbSpline
210
0.0
220
0.0
230
1.0
 70
    11
 71
     3
 72
    62
 73
    58
 74
     0
 42
0.0000000001
 43
0.0000000001
 12
1.0
 22
0.0
 32
0.0
 13
1.0
 23
0.0
 33
0.0
 40
0.0
 40
0.0
 40
0.0
 40
0.0
 40
1.0
 40
1.0
 40
1.0
 40
2.0
 40
2.0
 40
2.0
 40
3.0
 40
3.0
 40
3.0
 40
4.0
 40
4.0
 40
4.0
 40
5.0
 40
5.0
 40
5.0
 40
6.0
 40
6.0
 40
6.0
 40
7.0
 40
7.0
 40
7.0
 40
8.0
 40
8.0
 40
8.0
 40
9.0
 40
9.0
 40
9.0
 40
10.0
 40
10.0
 40
10.0
 40
11.0
 40
11.0
 40
11.0
 40
12.0
 40
12.0
 40
12.0
 40
13.0
 40
13.0
 40
13.0
 40
14.0
 40
14.0
 40
14.0
 40
15.0
 40
15.0
 40
15.0
 40
16.0
 40
16.0
 40
16.0
 40
17.0
 40
17.0
 40
17.0
 40
18.0
 40
18.0
 40
18.0
 40
19.0
 40
19.0
 40
19.0
 40
19.0
 10
63.78704439793772
 20
-137.2025489808505
 30
0.0
 10
61.34326591547575
 20
-135.0948395629746
 30
0.0
 10
58.12761378954355
 20
-133.7717506418645
 30
0.0
 10
54.23138305050025
 20
-133.2715227774062
 30
0.0
 10
54.23138305050025
 20
-133.2715227774062
 30
0.0
 10
52.97185614109291
 20
-133.0755474777789
 30
0.0
 10
52.97185614109291
 20
-133.0755474777789
 30
0.0
 10
52.97185614109291
 20
-133.0755474777789
 30
0.0
 10
64.51740464081068
 20
-118.8861110813896
 30
0.0
 10
64.51740464081068
 20
-118.8861110813896
 30
0.0
 10
64.51740464081068
 20
-118.8861110813896
 30
0.0
 10
53.68378512311979
 20
-118.8861110813896
 30
0.0
 10
53.68378512311979
 20
-118.8861110813896
 30
0.0
 10
53.68378512311979
 20
-118.8861110813896
 30
0.0
 10
44.40493719792214
 20
-130.3513382228176
 30
0.0
 10
44.40493719792214
 20
-130.3513382228176
 30
0.0
 10
43.65123643313853
 20
-131.2797483923989
 30
0.0
 10
42.95631761006718
 20
-132.1845128093177
 30
0.0
 10
42.31858737205484
 20
-133.0318340439149
 30
0.0
 10
44.61780103521797
 20
-133.8219666934569
 30
0.0
 10
46.66793429479755
 20
-135.1077282657216
 30
0.0
 10
48.44758449508856
 20
-136.8684304408457
 30
0.0
 10
49.83948919851855
 20
-138.2669884849296
 30
0.0
 10
50.93985269650734
 20
-139.8617922173301
 30
0.0
 10
51.75358425012336
 20
-141.6323990419743
 30
0.0
 10
51.93936102416353
 20
-141.6174774721538
 30
0.0
 10
52.12634358162739
 20
-141.6078657209342
 30
0.0
 10
52.31711574412117
 20
-141.6078657209342
 30
0.0
 10
54.09943589341518
 20
-141.6078657209342
 30
0.0
 10
55.66505953668697
 20
-142.261536017713
 30
0.0
 10
56.97023396127387
 20
-143.5489682005509
 30
0.0
 10
58.27833671702323
 20
-144.8391564597769
 30
0.0
 10
58.94168985270809
 20
-146.4156999954407
 30
0.0
 10
58.94168985270809
 20
-148.233676883007
 30
0.0
 10
58.94168985270809
 20
-150.0197866373348
 30
0.0
 10
58.27850897179749
 20
-151.5797597938626
 30
0.0
 10
56.97040621604813
 20
-152.8702925626372
 30
0.0
 10
55.80415526690586
 20
-154.0205453496218
 30
0.0
 10
54.42831332117488
 20
-154.6601873505554
 30
0.0
 10
52.87634086876628
 20
-154.7838662784758
 30
0.0
 10
52.53221889348242
 20
-156.1773212748723
 30
0.0
 10
52.04013006710709
 20
-157.544946535331
 30
0.0
 10
51.39124633246028
 20
-158.8761744945251
 30
0.0
 10
50.71187350276902
 20
-160.2551816217303
 30
0.0
 10
49.72984903469855
 20
-161.8525043835672
 30
0.0
 10
48.45860880064136
 20
-163.6512748638033
 30
0.0
 10
49.6202949982676
 20
-163.8931636305614
 30
0.0
 10
50.84119377454754
 20
-164.0188579062064
 30
0.0
 10
52.12298461352735
 20
-164.0188579062064
 30
0.0
 10
56.68566907419223
 20
-164.0188579062064
 30
0.0
 10
60.50335163617184
 20
-162.574744917317
 30
0.0
 10
63.47009561329474
 20
-159.7266844796609
 30
0.0
 10
66.57378213595632
 20
-156.666061650565
 30
0.0
 10
68.15077459432943
 20
-152.5013104717867
 30
0.0
 10
68.15077459432943
 20
-147.3548545811462
 30
0.0
 10
68.15077459432943
 20
-143.0739789311748
 30
0.0
 10
66.72347153479042
 20
-139.7531254233552
 30
0.0
 10
63.78704439793772
 20
-137.2025489808505
 30
0.0
  0
HATCH
  5
5F
330
5A
100
AcDbEntity
  8
Layer 1
 62
   178
420
    65793
100
AcDbHatch
 10
0.0
 20
0.0
 30
0.0
210
0.0
220
0.0
230
1.0
  2
SOLID
 70
     1
 71
     0
 91
        1
 92
        1
 93
        1
 72
     4
 94
        3
 73
     0
 74
     1
 95
       62
 96
       58
 40
0.0
 40
0.0
 40
0.0
 40
0.0
 40
1.0
 40
1.0
 40
1.0
 40
2.0
 40
2.0
 40
2.0
 40
3.0
 40
3.0
 40
3.0
 40
4.0
 40
4.0
 40
4.0
 40
5.0
 40
5.0
 40
5.0
 40
6.0
 40
6.0
 40
6.0
 40
7.0
 40
7.0
 40
7.0
 40
8.0
 40
8.0
 40
8.0
 40
9.0
 40
9.0
 40
9.0
 40
10.0
 40
10.0
 40
10.0
 40
11.0
 40
11.0
 40
11.0
 40
12.0
 40
12.0
 40
12.0
 40
13.0
 40
13.0
 40
13.0
 40
14.0
 40
14.0
 40
14.0
 40
15.0
 40
15.0
 40
15.0
 40
16.0
 40
16.0
 40
16.0
 40
17.0
 40
17.0
 40
17.0
 40
18.0
 40
18.0
 40
18.0
 40
19.0
 40
19.0
 40
19.0
 40
19.0
 10
63.78704439793772
 20
-137.2025489808505
 10
61.34326591547575
 20
-135.0948395629746
 10
58.12761378954355
 20
-133.7717506418645
 10
54.23138305050025
 20
-133.2715227774062
 10
54.23138305050025
 20
-133.2715227774062
 10
52.97185614109291
 20
-133.0755474777789
 10
52.97185614109291
 20
-133.0755474777789
 10
52.97185614109291
 20
-133.0755474777789
 10
64.51740464081068
 20
-118.8861110813896
 10
64.51740464081068
 20
-118.8861110813896
 10
64.51740464081068
 20
-118.8861110813896
 10
53.68378512311979
 20
-118.8861110813896
 10
53.68378512311979
 20
-118.8861110813896
 10
53.68378512311979
 20
-118.8861110813896
 10
44.40493719792214
 20
-130.3513382228176
 10
44.40493719792214
 20
-130.3513382228176
 10
43.65123643313853
 20
-131.2797483923989
 10
42.95631761006718
 20
-132.1845128093177
 10
42.31858737205484
 20
-133.0318340439149
 10
44.61780103521797
 20
-133.8219666934569
 10
46.66793429479755
 20
-135.1077282657216
 10
48.44758449508856
 20
-136.8684304408457
 10
49.83948919851855
 20
-138.2669884849296
 10
50.93985269650734
 20
-139.8617922173301
 10
51.75358425012336
 20
-141.6323990419743
 10
51.93936102416353
 20
-141.6174774721538
 10
52.12634358162739
 20
-141.6078657209342
 10
52.31711574412117
 20
-141.6078657209342
 10
54.09943589341518
 20
-141.6078657209342
 10
55.66505953668697
 20
-142.261536017713
 10
56.97023396127387
 20
-143.5489682005509
 10
58.27833671702323
 20
-144.8391564597769
 10
58.94168985270809
 20
-146.4156999954407
 10
58.94168985270809
 20
-148.233676883007
 10
58.94168985270809
 20
-150.0197866373348
 10
58.27850897179749
 20
-151.5797597938626
 10
56.97040621604813
 20
-152.8702925626372
 10
55.80415526690586
 20
-154.0205453496218
 10
54.42831332117488
 20
-154.6601873505554
 10
52.87634086876628
 20
-154.7838662784758
 10
52.53221889348242
 20
-156.1773212748723
 10
52.04013006710709
 20
-157.544946535331
 10
51.39124633246028
 20
-158.8761744945251
 10
50.71187350276902
 20
-160.2551816217303
 10
49.72984903469855
 20
-161.8525043835672
 10
48.45860880064136
 20
-163.6512748638033
 10
49.6202949982676
 20
-163.8931636305614
 10
50.84119377454754
 20
-164.0188579062064
 10
52.12298461352735
 20
-164.0188579062064
 10
56.68566907419223
 20
-164.0188579062064
 10
60.50335163617184
 20
-162.574744917317
 10
63.47009561329474
 20
-159.7266844796609
 10
66.57378213595632
 20
-156.666061650565
 10
68.15077459432943
 20
-152.5013104717867
 10
68.15077459432943
 20
-147.3548545811462
 10
68.15077459432943
 20
-143.0739789311748
 10
66.72347153479042
 20
-139.7531254233552
 10
63.78704439793772
 20
-137.2025489808505
 97
        0
 97
        0
 75
     2
 76
     1
 98
        0
  0
INSERT
  5
61
330
5A
100
AcDbEntity
  8
Layer 1
100
AcDbBlockReference
  2
block 5
 10
0.0
 20
0.0
 30
0.0
  0
SPLINE
  5
66
330
5A
100
AcDbEntity
  8
Layer 1
370
     0
100
AcDbSpline
210
0.0
220
0.0
230
1.0
 70
    11
 71
     3
 72
    44
 73
    40
 74
     0
 42
0.0000000001
 43
0.0000000001
 12
1.0
 22
0.0
 32
0.0
 13
1.0
 23
0.0
 33
0.0
 40
0.0
 40
0.0
 40
0.0
 40
0.0
 40
1.0
 40
1.0
 40
1.0
 40
2.0
 40
2.0
 40
2.0
 40
3.0
 40
3.0
 40
3.0
 40
4.0
 40
4.0
 40
4.0
 40
5.0
 40
5.0
 40
5.0
 40
6.0
 40
6.0
 40
6.0
 40
7.0
 40
7.0
 40
7.0
 40
8.0
 40
8.0
 40
8.0
 40
9.0
 40
9.0
 40
9.0
 40
10.0
 40
10.0
 40
10.0
 40
11.0
 40
11.0
 40
11.0
 40
12.0
 40
12.0
 40
12.0
 40
13.0
 40
13.0
 40
13.0
 40
13.0
 10
47.45126288075431
 20
-137.8762374029911
 30
0.0
 10
44.52069240622653
 20
-134.9768450426049
 30
0.0
 10
40.77070597053208
 20
-133.5047557417576
 30
0.0
 10
36.30965182668207
 20
-133.5047557417576
 30
0.0
 10
31.74800089466276
 20
-133.5047557417576
 30
0.0
 10
27.9310073517802
 20
-134.9622033867925
 30
0.0
 10
24.96460788420583
 20
-137.8366188049107
 30
0.0
 10
21.85782077560753
 20
-140.8653745007681
 30
0.0
 10
20.28168959110572
 20
-145.0062070192642
 30
0.0
 10
20.28168959110572
 20
-150.1423276234489
 30
0.0
 10
20.28168959110572
 20
-154.4478357061399
 30
0.0
 10
21.70795912199916
 20
-157.7623620724987
 30
0.0
 10
24.64197469201218
 20
-160.2753869742142
 30
0.0
 10
27.08816474131383
 20
-162.3836131564129
 30
0.0
 10
30.30364461247176
 20
-163.7048072750062
 30
0.0
 10
34.20090888016065
 20
-164.2034848464961
 30
0.0
 10
34.20090888016065
 20
-164.2034848464961
 30
0.0
 10
35.45871324182536
 20
-164.3591170350423
 30
0.0
 10
35.45871324182536
 20
-164.3591170350423
 30
0.0
 10
35.45871324182536
 20
-164.3591170350423
 30
0.0
 10
34.8863937588191
 20
-165.0365270360223
 30
0.0
 10
34.8863937588191
 20
-165.0365270360223
 30
0.0
 10
34.8863937588191
 20
-165.0365270360223
 30
0.0
 10
23.912131213462
 20
-178.5055555109292
 30
0.0
 10
23.912131213462
 20
-178.5055555109292
 30
0.0
 10
23.912131213462
 20
-178.5055555109292
 30
0.0
 10
34.74885131708963
 20
-178.5055555109292
 30
0.0
 10
34.74885131708963
 20
-178.5055555109292
 30
0.0
 10
34.74885131708963
 20
-178.5055555109292
 30
0.0
 10
44.02769924228728
 20
-167.1063729358511
 30
0.0
 10
44.02769924228728
 20
-167.1063729358511
 30
0.0
 10
46.93312051977273
 20
-163.5276077457735
 30
0.0
 10
48.98433037169048
 20
-160.5559291908424
 30
0.0
 10
50.1241402129854
 20
-158.2425475724972
 30
0.0
 10
51.39951456162488
 20
-155.6259975514499
 30
0.0
 10
52.04684800330332
 20
-152.8696070590242
 30
0.0
 10
52.04684800330332
 20
-150.0368772962775
 30
0.0
 10
52.04684800330332
 20
-145.0263304225302
 30
0.0
 10
50.5006891495232
 20
-140.940133072798
 30
0.0
 10
47.45126288075431
 20
-137.8762374029911
 30
0.0
  0
SPLINE
  5
67
330
5A
100
AcDbEntity
  8
Layer 1
370
     0
100
AcDbSpline
210
0.0
220
0.0
230
1.0
 70
    11
 71
     3
 72
    29
 73
    25
 74
     0
 42
0.0000000001
 43
0.0000000001
 12
1.0
 22
0.0
 32
0.0
 13
1.0
 23
0.0
 33
0.0
 40
0.0
 40
0.0
 40
0.0
 40
0.0
 40
1.0
 40
1.0
 40
1.0
 40
2.0
 40
2.0
 40
2.0
 40
3.0
 40
3.0
 40
3.0
 40
4.0
 40
4.0
 40
4.0
 40
5.0
 40
5.0
 40
5.0
 40
6.0
 40
6.0
 40
6.0
 40
7.0
 40
7.0
 40
7.0
 40
8.0
 40
8.0
 40
8.0
 40
8.0
 10
40.77122273485487
 20
-153.9548425422006
 30
0.0
 10
39.46587605549371
 20
-155.2550215783339
 30
0.0
 10
37.89956339312487
 20
-155.9144128542107
 30
0.0
 10
36.1156929508625
 20
-155.9144128542107
 30
0.0
 10
34.33113348950309
 20
-155.9144128542107
 30
0.0
 10
32.76447631758572
 20
-155.2550215783339
 30
0.0
 10
31.45912963822456
 20
-153.9548425422006
 30
0.0
 10
30.15326619454061
 20
-152.6541467417445
 30
0.0
 10
29.49111884227559
 20
-151.092657213055
 30
0.0
 10
29.49111884227559
 20
-149.3141266687948
 30
0.0
 10
29.49111884227559
 20
-147.5355961245346
 30
0.0
 10
30.15326619454061
 20
-145.9741065958451
 30
0.0
 10
31.45912963822456
 20
-144.673410795389
 30
0.0
 10
32.76447631758572
 20
-143.3730595044815
 30
0.0
 10
34.33113348950309
 20
-142.7138404833789
 30
0.0
 10
36.1156929508625
 20
-142.7138404833789
 30
0.0
 10
37.89956339312487
 20
-142.7138404833789
 30
0.0
 10
39.46587605549371
 20
-143.3730595044815
 30
0.0
 10
40.77122273485487
 20
-144.673410795389
 30
0.0
 10
42.07777519763587
 20
-145.9747956149422
 30
0.0
 10
42.74026705944942
 20
-147.5362851436317
 30
0.0
 10
42.74026705944942
 20
-149.3141266687948
 30
0.0
 10
42.74026705944942
 20
-151.0921404487323
 30
0.0
 10
42.07777519763587
 20
-152.6534577226475
 30
0.0
 10
40.77122273485487
 20
-153.9548425422006
 30
0.0
  0
HATCH
  5
68
330
5A
100
AcDbEntity
  8
Layer 1
 62
   178
420
    65793
100
AcDbHatch
 10
0.0
 20
0.0
 30
0.0
210
0.0
220
0.0
230
1.0
  2
SOLID
 70
     1
 71
     0
 91
        2
 92
        1
 93
        1
 72
     4
 94
        3
 73
     0
 74
     1
 95
       44
 96
       40
 40
0.0
 40
0.0
 40
0.0
 40
0.0
 40
1.0
 40
1.0
 40
1.0
 40
2.0
 40
2.0
 40
2.0
 40
3.0
 40
3.0
 40
3.0
 40
4.0
 40
4.0
 40
4.0
 40
5.0
 40
5.0
 40
5.0
 40
6.0
 40
6.0
 40
6.0
 40
7.0
 40
7.0
 40
7.0
 40
8.0
 40
8.0
 40
8.0
 40
9.0
 40
9.0
 40
9.0
 40
10.0
 40
10.0
 40
10.0
 40
11.0
 40
11.0
 40
11.0
 40
12.0
 40
12.0
 40
12.0
 40
13.0
 40
13.0
 40
13.0
 40
13.0
 10
47.45126288075431
 20
-137.8762374029911
 10
44.52069240622653
 20
-134.9768450426049
 10
40.77070597053208
 20
-133.5047557417576
 10
36.30965182668207
 20
-133.5047557417576
 10
31.74800089466276
 20
-133.5047557417576
 10
27.9310073517802
 20
-134.9622033867925
 10
24.96460788420583
 20
-137.8366188049107
 10
21.85782077560753
 20
-140.8653745007681
 10
20.28168959110572
 20
-145.0062070192642
 10
20.28168959110572
 20
-150.1423276234489
 10
20.28168959110572
 20
-154.4478357061399
 10
21.70795912199916
 20
-157.7623620724987
 10
24.64197469201218
 20
-160.2753869742142
 10
27.08816474131383
 20
-162.3836131564129
 10
30.30364461247176
 20
-163.7048072750062
 10
34.20090888016065
 20
-164.2034848464961
 10
34.20090888016065
 20
-164.2034848464961
 10
35.45871324182536
 20
-164.3591170350423
 10
35.45871324182536
 20
-164.3591170350423
 10
35.45871324182536
 20
-164.3591170350423
 10
34.8863937588191
 20
-165.0365270360223
 10
34.8863937588191
 20
-165.0365270360223
 10
34.8863937588191
 20
-165.0365270360223
 10
23.912131213462
 20
-178.5055555109292
 10
23.912131213462
 20
-178.5055555109292
 10
23.912131213462
 20
-178.5055555109292
 10
34.74885131708963
 20
-178.5055555109292
 10
34.74885131708963
 20
-178.5055555109292
 10
34.74885131708963
 20
-178.5055555109292
 10
44.02769924228728
 20
-167.1063729358511
 10
44.02769924228728
 20
-167.1063729358511
 10
46.93312051977273
 20
-163.5276077457735
 10
48.98433037169048
 20
-160.5559291908424
 10
50.1241402129854
 20
-158.2425475724972
 10
51.39951456162488
 20
-155.6259975514499
 10
52.04684800330332
 20
-152.8696070590242
 10
52.04684800330332
 20
-150.0368772962775
 10
52.04684800330332
 20
-145.0263304225302
 10
50.5006891495232
 20
-140.940133072798
 10
47.45126288075431
 20
-137.8762374029911
 97
        0
 97
        0
 92
        1
 93
        1
 72
     4
 94
        3
 73
     0
 74
     1
 95
       29
 96
       25
 40
0.0
 40
0.0
 40
0.0
 40
0.0
 40
1.0
 40
1.0
 40
1.0
 40
2.0
 40
2.0
 40
2.0
 40
3.0
 40
3.0
 40
3.0
 40
4.0
 40
4.0
 40
4.0
 40
5.0
 40
5.0
 40
5.0
 40
6.0
 40
6.0
 40
6.0
 40
7.0
 40
7.0
 40
7.0
 40
8.0
 40
8.0
 40
8.0
 40
8.0
 10
40.77122273485487
 20
-153.9548425422006
 10
39.46587605549371
 20
-155.2550215783339
 10
37.89956339312487
 20
-155.9144128542107
 10
36.1156929508625
 20
-155.9144128542107
 10
34.33113348950309
 20
-155.9144128542107
 10
32.76447631758572
 20
-155.2550215783339
 10
31.45912963822456
 20
-153.9548425422006
 10
30.15326619454061
 20
-152.6541467417445
 10
29.49111884227559
 20
-151.092657213055
 10
29.49111884227559
 20
-149.3141266687948
 10
29.49111884227559
 20
-147.5355961245346
 10
30.15326619454061
 20
-145.9741065958451
 10
31.45912963822456
 20
-144.673410795389
 10
32.76447631758572
 20
-143.3730595044815
 10
34.33113348950309
 20
-142.7138404833789
 10
36.1156929508625
 20
-142.7138404833789
 10
37.89956339312487
 20
-142.7138404833789
 10
39.46587605549371
 20
-143.3730595044815
 10
40.77122273485487
 20
-144.673410795389
 10
42.07777519763587
 20
-145.9747956149422
 10
42.74026705944942
 20
-147.5362851436317
 10
42.74026705944942
 20
-149.3141266687948
 10
42.74026705944942
 20
-151.0921404487323
 10
42.07777519763587
 20
-152.6534577226475
 10
40.77122273485487
 20
-153.9548425422006
 97
        0
 97
        0
 75
     2
 76
     1
 98
        0
  0
ENDBLK
  5
5D
330
5A
100
AcDbEntity
  8
0
100
AcDbBlockEnd
  0
BLOCK
  5
62
330
60
100
AcDbEntity
  8
0
100
AcDbBlockBegin
  2
block 5
 70
     0
 10
0.0
 20
0.0
 30
0.0
  3
block 5
  1

  0
SPLINE
  5
64
330
60
100
AcDbEntity
  8
Layer 1
370
     0
100
AcDbSpline
210
0.0
220
0.0
230
1.0
 70
    11
 71
     3
 72
    23
 73
    19
 74
     0
 42
0.0000000001
 43
0.0000000001
 12
1.0
 22
0.0
 32
0.0
 13
1.0
 23
0.0
 33
0.0
 40
0.0
 40
0.0
 40
0.0
 40
0.0
 40
1.0
 40
1.0
 40
1.0
 40
2.0
 40
2.0
 40
2.0
 40
3.0
 40
3.0
 40
3.0
 40
4.0
 40
4.0
 40
4.0
 40
5.0
 40
5.0
 40
5.0
 40
6.0
 40
6.0
 40
6.0
 40
6.0
 10
41.32915594869108
 20
-149.3141266687948
 30
0.0
 10
41.32915594869108
 20
-147.9055993796504
 30
0.0
 10
40.82083210984247
 20
-146.7146298703996
 30
0.0
 10
39.77524563006914
 20
-145.6731775052085
 30
0.0
 10
38.87461154283963
 20
-144.7759669816156
 30
0.0
 10
37.86089219630487
 20
-144.2781722158437
 30
0.0
 10
36.6921004892374
 20
-144.1566464726016
 30
0.0
 10
36.49112223136953
 20
-145.2500767159263
 30
0.0
 10
36.38596069168035
 20
-146.3586869112329
 30
0.0
 10
36.38596069168035
 20
-147.4789243038022
 30
0.0
 10
36.38596069168035
 20
-149.997073785052
 30
0.0
 10
36.77146687647981
 20
-152.2783944835377
 30
0.0
 10
37.53688096591712
 20
-154.3088906988504
 30
0.0
 10
38.35814866590422
 20
-154.0751194383294
 30
0.0
 10
39.0989733863146
 20
-153.6287642545217
 30
0.0
 10
39.77524563006914
 20
-152.9550758323811
 30
0.0
 10
40.82083210984247
 20
-151.9136234671901
 30
0.0
 10
41.32915594869108
 20
-150.7226539579392
 30
0.0
 10
41.32915594869108
 20
-149.3141266687948
 30
0.0
  0
HATCH
  5
65
330
60
100
AcDbEntity
  8
Layer 1
 62
   178
420
    65793
100
AcDbHatch
 10
0.0
 20
0.0
 30
0.0
210
0.0
220
0.0
230
1.0
  2
SOLID
 70
     1
 71
     0
 91
        1
 92
        1
 93
        1
 72
     4
 94
        3
 73
     0
 74
     1
 95
       23
 96
       19
 40
0.0
 40
0.0
 40
0.0
 40
0.0
 40
1.0
 40
1.0
 40
1.0
 40
2.0
 40
2.0
 40
2.0
 40
3.0
 40
3.0
 40
3.0
 40
4.0
 40
4.0
 40
4.0
 40
5.0
 40
5.0
 40
5.0
 40
6.0
 40
6.0
 40
6.0
 40
6.0
 10
41.32915594869108
 20
-149.3141266687948
 10
41.32915594869108
 20
-147.9055993796504
 10
40.82083210984247
 20
-146.7146298703996
 10
39.77524563006914
 20
-145.6731775052085
 10
38.87461154283963
 20
-144.7759669816156
 10
37.86089219630487
 20
-144.2781722158437
 10
36.6921004892374
 20
-144.1566464726016
 10
36.49112223136953
 20
-145.2500767159263
 10
36.38596069168035
 20
-146.3586869112329
 10
36.38596069168035
 20
-147.4789243038022
 10
36.38596069168035
 20
-149.997073785052
 10
36.77146687647981
 20
-152.2783944835377
 10
37.53688096591712
 20
-154.3088906988504
 10
38.35814866590422
 20
-154.0751194383294
 10
39.0989733863146
 20
-153.6287642545217
 10
39.77524563006914
 20
-152.9550758323811
 10
40.82083210984247
 20
-151.9136234671901
 10
41.32915594869108
 20
-150.7226539579392
 10
41.32915594869108
 20
-149.3141266687948
 97
        0
 97
        0
 75
     2
 76
     1
 98
        0
  0
ENDBLK
  5
63
330
60
100
AcDbEntity
  8
0
100
AcDbBlockEnd
  0
ENDSEC
  0
SECTION
  2
ENTITIES
  0
INSERT
  5
42
330
1F
100
AcDbEntity
  8
Layer 1
100
AcDbBlockReference
  2
block 2
 10
0.0
 20
0.0
 30
0.0
  0
ENDSEC
  0
SECTION
  2
OBJECTS
  0
DICTIONARY
  5
C
330
0
100
AcDbDictionary
281
     1
  3
ACAD_GROUP
350
D
  3
ACAD_LAYOUT
350
1A
  3
ACAD_MATERIAL
350
3B
  3
ACAD_MLEADERSTYLE
350
6A
  3
ACAD_MLINESTYLE
350
17
  3
ACAD_PLOTSETTINGS
350
19
  3
ACAD_PLOTSTYLENAME
350
E
  3
ACAD_TABLESTYLE
350
69
  3
ACAD_VISUALSTYLE
350
2A
  0
SUN
  5
3F
330
29
100
AcDbSun
 90
        1
290
     0
 63
     7
421
 16777215
 40
1.0
291
     1
 91
  2455826
 92
 54000000
292
     0
 70
     2
 71
   256
280
     1
  0
DICTIONARY
  5
D
102
{ACAD_REACTORS
330
C
102
}
330
C
100
AcDbDictionary
281
     1
  0
DICTIONARY
  5
1A
102
{ACAD_REACTORS
330
C
102
}
330
C
100
AcDbDictionary
281
     1
  3
Layout1
350
1E
  3
Layout2
350
26
  3
Model
350
22
  0
DICTIONARY
  5
3B
102
{ACAD_REACTORS
330
C
102
}
330
C
100
AcDbDictionary
281
     1
  3
ByBlock
350
3D
  3
ByLayer
350
3C
  3
Global
350
3E
  0
DICTIONARY
  5
6A
102
{ACAD_REACTORS
330
C
102
}
330
C
100
AcDbDictionary
281
     1
  0
DICTIONARY
  5
17
102
{ACAD_REACTORS
330
C
102
}
330
C
100
AcDbDictionary
281
     1
  3
Standard
350
18
  0
DICTIONARY
  5
19
102
{ACAD_REACTORS
330
C
102
}
330
C
100
AcDbDictionary
281
     1
  0
ACDBDICTIONARYWDFLT
  5
E
102
{ACAD_REACTORS
330
C
102
}
330
C
100
AcDbDictionary
281
     1
  3
Normal
350
F
100
AcDbDictionaryWithDefault
340
F
  0
DICTIONARY
  5
69
102
{ACAD_REACTORS
330
C
102
}
330
C
100
AcDbDictionary
281
     1
  0
DICTIONARY
  5
2A
102
{ACAD_REACTORS
330
C
102
}
330
C
100
AcDbDictionary
281
     1
  3
2dWireframe
350
2F
  3
3D Hidden
350
31
  3
3dWireframe
350
30
  3
Basic
350
32
  3
Brighten
350
36
  3
ColorChange
350
3A
  3
Conceptual
350
34
  3
Dim
350
35
  3
Facepattern
350
39
  3
Flat
350
2B
  3
FlatWithEdges
350
2C
  3
Gouraud
350
2D
  3
GouraudWithEdges
350
2E
  3
Linepattern
350
38
  3
Realistic
350
33
  3
Thicken
350
37
  0
LAYOUT
  5
1E
102
{ACAD_REACTORS
330
1A
102
}
330
1A
100
AcDbPlotSettings
  1

  2
none_device
  4

  6

 40
0.0
 41
0.0
 42
0.0
 43
0.0
 44
0.0
 45
0.0
 46
0.0
 47
0.0
 48
0.0
 49
0.0
140
0.0
141
0.0
142
1.0
143
1.0
 70
   688
 72
     0
 73
     0
 74
     5
  7

 75
    16
 76
     0
 77
     2
 78
   300
147
1.0
148
0.0
149
0.0
100
AcDbLayout
  1
Layout1
 70
     1
 71
     1
 10
0.0
 20
0.0
 11
12.0
 21
9.0
 12
0.0
 22
0.0
 32
0.0
 14
1.000000000000000E+20
 24
1.000000000000000E+20
 34
1.000000000000000E+20
 15
-1.000000000000000E+20
 25
-1.000000000000000E+20
 35
-1.000000000000000E+20
146
0.0
 13
0.0
 23
0.0
 33
0.0
 16
1.0
 26
0.0
 36
0.0
 17
0.0
 27
1.0
 37
0.0
 76
     0
330
1B
  0
LAYOUT
  5
26
102
{ACAD_REACTORS
330
1A
102
}
330
1A
100
AcDbPlotSettings
  1

  2
none_device
  4

  6

 40
0.0
 41
0.0
 42
0.0
 43
0.0
 44
0.0
 45
0.0
 46
0.0
 47
0.0
 48
0.0
 49
0.0
140
0.0
141
0.0
142
1.0
143
1.0
 70
   688
 72
     0
 73
     0
 74
     5
  7

 75
    16
 76
     0
 77
     2
 78
   300
147
1.0
148
0.0
149
0.0
100
AcDbLayout
  1
Layout2
 70
     1
 71
     2
 10
0.0
 20
0.0
 11
0.0
 21
0.0
 12
0.0
 22
0.0
 32
0.0
 14
0.0
 24
0.0
 34
0.0
 15
0.0
 25
0.0
 35
0.0
146
0.0
 13
0.0
 23
0.0
 33
0.0
 16
1.0
 26
0.0
 36
0.0
 17
0.0
 27
1.0
 37
0.0
 76
     0
330
23
  0
LAYOUT
  5
22
102
{ACAD_REACTORS
330
1A
102
}
330
1A
100
AcDbPlotSettings
  1

  2
none_device
  4

  6

 40
0.0
 41
0.0
 42
0.0
 43
0.0
 44
0.0
 45
0.0
 46
0.0
 47
0.0
 48
0.0
 49
0.0
140
0.0
141
0.0
142
1.0
143
1.0
 70
  1712
 72
     0
 73
     0
 74
     0
  7

 75
     0
 76
     0
 77
     2
 78
   300
147
1.0
148
0.0
149
0.0
100
AcDbLayout
  1
Model
 70
     1
 71
     0
 10
0.0
 20
0.0
 11
12.0
 21
9.0
 12
0.0
 22
0.0
 32
0.0
 14
1.000000000000000E+20
 24
1.000000000000000E+20
 34
1.000000000000000E+20
 15
-1.000000000000000E+20
 25
-1.000000000000000E+20
 35
-1.000000000000000E+20
146
0.0
 13
0.0
 23
0.0
 33
0.0
 16
1.0
 26
0.0
 36
0.0
 17
0.0
 27
1.0
 37
0.0
 76
     0
330
1F
331
29
  0
MATERIAL
  5
3D
102
{ACAD_REACTORS
330
3B
102
}
330
3B
100
AcDbMaterial
  1
ByBlock
 72
     1
 94
      127
  0
MATERIAL
  5
3C
102
{ACAD_REACTORS
330
3B
102
}
330
3B
100
AcDbMaterial
  1
ByLayer
 72
     1
 94
      127
  0
MATERIAL
  5
3E
102
{ACAD_REACTORS
330
3B
102
}
330
3B
100
AcDbMaterial
  1
Global
 72
     1
 94
      127
  0
MLINESTYLE
  5
18
102
{ACAD_REACTORS
330
17
102
}
330
17
100
AcDbMlineStyle
  2
Standard
 70
     0
  3

 62
   256
 51
90.0
 52
90.0
 71
     2
 49
0.5
 62
   256
  6
BYLAYER
 49
-0.5
 62
   256
  6
BYLAYER
  0
ACDBPLACEHOLDER
  5
F
102
{ACAD_REACTORS
330
E
102
}
330
E
  0
VISUALSTYLE
  5
2F
102
{ACAD_REACTORS
330
2A
102
}
330
2A
100
AcDbVisualStyle
  2
2dWireframe
 70
     4
177
     2
291
     0
 71
     0
176
     1
 72
     2
176
     1
 73
     0
176
     1
 90
        0
176
     1
 40
-0.6
176
     1
 41
-30.0
176
     1
 62
     5
 63
     7
421
 16777215
176
     1
 74
     1
176
     1
 91
        4
176
     1
 64
     7
176
     1
 65
   257
176
     1
 75
     1
176
     1
175
     1
176
     1
 42
1.0
176
     1
 92
        0
176
     1
 66
   257
176
     1
 43
1.0
176
     1
 76
     1
176
     1
 77
     6
176
     1
 78
     2
176
     1
 67
     7
176
     1
 79
     5
176
     1
170
     0
176
     1
171
     0
176
     1
290
     0
176
     1
 93
        1
176
     1
 44
0.0
176
     1
173
     0
176
     1
  0
VISUALSTYLE
  5
31
102
{ACAD_REACTORS
330
2A
102
}
330
2A
100
AcDbVisualStyle
  2
3D Hidden
 70
     6
177
     2
291
     0
 71
     1
176
     1
 72
     2
176
     1
 73
     2
176
     1
 90
        0
176
     1
 40
-0.6
176
     1
 41
-30.0
176
     1
 62
     5
 63
     7
421
 16777215
176
     1
 74
     2
176
     1
 91
        2
176
     1
 64
     7
176
     1
 65
   257
176
     1
 75
     2
176
     1
175
     1
176
     1
 42
40.0
176
     1
 92
        0
176
     1
 66
   257
176
     1
 43
1.0
176
     1
 76
     1
176
     1
 77
     6
176
     1
 78
     2
176
     1
 67
     7
176
     1
 79
     3
176
     1
170
     0
176
     1
171
     0
176
     1
290
     0
176
     1
 93
        1
176
     1
 44
0.0
176
     1
173
     0
176
     1
  0
VISUALSTYLE
  5
30
102
{ACAD_REACTORS
330
2A
102
}
330
2A
100
AcDbVisualStyle
  2
3dWireframe
 70
     5
177
     2
291
     0
 71
     0
176
     1
 72
     2
176
     1
 73
     0
176
     1
 90
        0
176
     1
 40
-0.6
176
     1
 41
-30.0
176
     1
 62
     5
 63
     7
421
 16777215
176
     1
 74
     1
176
     1
 91
        4
176
     1
 64
     7
176
     1
 65
   257
176
     1
 75
     1
176
     1
175
     1
176
     1
 42
1.0
176
     1
 92
        0
176
     1
 66
   257
176
     1
 43
1.0
176
     1
 76
     1
176
     1
 77
     6
176
     1
 78
     2
176
     1
 67
     7
176
     1
 79
     5
176
     1
170
     0
176
     1
171
     0
176
     1
290
     0
176
     1
 93
        1
176
     1
 44
0.0
176
     1
173
     0
176
     1
  0
VISUALSTYLE
  5
32
102
{ACAD_REACTORS
330
2A
102
}
330
2A
100
AcDbVisualStyle
  2
Basic
 70
     7
177
     2
291
     1
 71
     1
176
     1
 72
     0
176
     1
 73
     1
176
     1
 90
        0
176
     1
 40
-0.6
176
     1
 41
-30.0
176
     1
 62
     5
 63
     7
421
 16777215
176
     1
 74
     0
176
     1
 91
        4
176
     1
 64
     7
176
     1
 65
   257
176
     1
 75
     1
176
     1
175
     1
176
     1
 42
1.0
176
     1
 92
        8
176
     1
 66
     7
176
     1
 43
1.0
176
     1
 76
     1
176
     1
 77
     6
176
     1
 78
     2
176
     1
 67
     7
176
     1
 79
     5
176
     1
170
     0
176
     1
171
     0
176
     1
290
     0
176
     1
 93
        1
176
     1
 44
0.0
176
     1
173
     0
176
     1
  0
VISUALSTYLE
  5
36
102
{ACAD_REACTORS
330
2A
102
}
330
2A
100
AcDbVisualStyle
  2
Brighten
 70
    12
177
     2
291
     1
 71
     2
176
     1
 72
     2
176
     1
 73
     0
176
     1
 90
        0
176
     1
 40
-0.6
176
     1
 41
-30.0
176
     1
 62
     5
 63
     7
421
 16777215
176
     1
 74
     1
176
     1
 91
        4
176
     1
 64
     7
176
     1
 65
   257
176
     1
 75
     1
176
     1
175
     1
176
     1
 42
1.0
176
     1
 92
        8
176
     1
 66
     7
176
     1
 43
1.0
176
     1
 76
     1
176
     1
 77
     6
176
     1
 78
     2
176
     1
 67
     7
176
     1
 79
     5
176
     1
170
     0
176
     1
171
     0
176
     1
290
     0
176
     1
 93
        1
176
     1
 44
50.0
176
     1
173
     0
176
     1
  0
VISUALSTYLE
  5
3A
102
{ACAD_REACTORS
330
2A
102
}
330
2A
100
AcDbVisualStyle
  2
ColorChange
 70
    16
177
     2
291
     1
 71
     2
176
     1
 72
     2
176
     1
 73
     3
176
     1
 90
        0
176
     1
 40
-0.6
176
     1
 41
-30.0
176
     1
 62
     5
 63
     8
421
  8421504
176
     1
 74
     1
176
     1
 91
        4
176
     1
 64
     7
176
     1
 65
   257
176
     1
 75
     1
176
     1
175
     1
176
     1
 42
1.0
176
     1
 92
        8
176
     1
 66
     8
424
  8421504
176
     1
 43
1.0
176
     1
 76
     1
176
     1
 77
     6
176
     1
 78
     2
176
     1
 67
     7
176
     1
 79
     5
176
     1
170
     0
176
     1
171
     0
176
     1
290
     0
176
     1
 93
        1
176
     1
 44
0.0
176
     1
173
     0
176
     1
  0
VISUALSTYLE
  5
34
102
{ACAD_REACTORS
330
2A
102
}
330
2A
100
AcDbVisualStyle
  2
Conceptual
 70
     9
177
     2
291
     0
 71
     3
176
     1
 72
     2
176
     1
 73
     0
176
     1
 90
        0
176
     1
 40
-0.6
176
     1
 41
-30.0
176
     1
 62
     5
 63
     7
421
 16777215
176
     1
 74
     2
176
     1
 91
        2
176
     1
 64
     7
176
     1
 65
   257
176
     1
 75
     1
176
     1
175
     1
176
     1
 42
40.0
176
     1
 92
        8
176
     1
 66
     7
176
     1
 43
1.0
176
     1
 76
     1
176
     1
 77
     6
176
     1
 78
     2
176
     1
 67
     7
176
     1
 79
     3
176
     1
170
     0
176
     1
171
     0
176
     1
290
     0
176
     1
 93
        1
176
     1
 44
0.0
176
     1
173
     0
176
     1
  0
VISUALSTYLE
  5
35
102
{ACAD_REACTORS
330
2A
102
}
330
2A
100
AcDbVisualStyle
  2
Dim
 70
    11
177
     2
291
     1
 71
     2
176
     1
 72
     2
176
     1
 73
     0
176
     1
 90
        0
176
     1
 40
-0.6
176
     1
 41
-30.0
176
     1
 62
     5
 63
     7
421
 16777215
176
     1
 74
     1
176
     1
 91
        4
176
     1
 64
     7
176
     1
 65
   257
176
     1
 75
     1
176
     1
175
     1
176
     1
 42
1.0
176
     1
 92
        8
176
     1
 66
     7
176
     1
 43
1.0
176
     1
 76
     1
176
     1
 77
     6
176
     1
 78
     2
176
     1
 67
     7
176
     1
 79
     5
176
     1
170
     0
176
     1
171
     0
176
     1
290
     0
176
     1
 93
        1
176
     1
 44
-50.0
176
     1
173
     0
176
     1
  0
VISUALSTYLE
  5
39
102
{ACAD_REACTORS
330
2A
102
}
330
2A
100
AcDbVisualStyle
  2
Facepattern
 70
    15
177
     2
291
     1
 71
     2
176
     1
 72
     2
176
     1
 73
     0
176
     1
 90
        0
176
     1
 40
-0.6
176
     1
 41
-30.0
176
     1
 62
     5
 63
     7
421
 16777215
176
     1
 74
     1
176
     1
 91
        4
176
     1
 64
     7
176
     1
 65
   257
176
     1
 75
     1
176
     1
175
     1
176
     1
 42
1.0
176
     1
 92
        8
176
     1
 66
     7
176
     1
 43
1.0
176
     1
 76
     1
176
     1
 77
     6
176
     1
 78
     2
176
     1
 67
     7
176
     1
 79
     5
176
     1
170
     0
176
     1
171
     0
176
     1
290
     0
176
     1
 93
        1
176
     1
 44
0.0
176
     1
173
     0
176
     1
  0
VISUALSTYLE
  5
2B
102
{ACAD_REACTORS
330
2A
102
}
330
2A
100
AcDbVisualStyle
  2
Flat
 70
     0
177
     2
291
     1
 71
     2
176
     1
 72
     1
176
     1
 73
     1
176
     1
 90
        2
176
     1
 40
-0.6
176
     1
 41
30.0
176
     1
 62
     5
 63
     7
421
 16777215
176
     1
 74
     0
176
     1
 91
        4
176
     1
 64
     7
176
     1
 65
   257
176
     1
 75
     1
176
     1
175
     1
176
     1
 42
1.0
176
     1
 92
        8
176
     1
 66
     7
176
     1
 43
1.0
176
     1
 76
     1
176
     1
 77
     6
176
     1
 78
     2
176
     1
 67
     7
176
     1
 79
     5
176
     1
170
     0
176
     1
171
     0
176
     1
290
     0
176
     1
 93
       13
176
     1
 44
0.0
176
     1
173
     0
176
     1
  0
VISUALSTYLE
  5
2C
102
{ACAD_REACTORS
330
2A
102
}
330
2A
100
AcDbVisualStyle
  2
FlatWithEdges
 70
     1
177
     2
291
     1
 71
     2
176
     1
 72
     1
176
     1
 73
     1
176
     1
 90
        2
176
     1
 40
-0.6
176
     1
 41
30.0
176
     1
 62
     5
 63
     7
421
 16777215
176
     1
 74
     1
176
     1
 91
        4
176
     1
 64
     7
176
     1
 65
   257
176
     1
 75
     1
176
     1
175
     1
176
     1
 42
1.0
176
     1
 92
        0
176
     1
 66
   257
176
     1
 43
1.0
176
     1
 76
     1
176
     1
 77
     6
176
     1
 78
     2
176
     1
 67
     7
176
     1
 79
     5
176
     1
170
     0
176
     1
171
     0
176
     1
290
     0
176
     1
 93
       13
176
     1
 44
0.0
176
     1
173
     0
176
     1
  0
VISUALSTYLE
  5
2D
102
{ACAD_REACTORS
330
2A
102
}
330
2A
100
AcDbVisualStyle
  2
Gouraud
 70
     2
177
     2
291
     1
 71
     2
176
     1
 72
     2
176
     1
 73
     1
176
     1
 90
        2
176
     1
 40
-0.6
176
     1
 41
30.0
176
     1
 62
     5
 63
     7
421
 16777215
176
     1
 74
     0
176
     1
 91
        4
176
     1
 64
     7
176
     1
 65
   257
176
     1
 75
     1
176
     1
175
     1
176
     1
 42
1.0
176
     1
 92
        0
176
     1
 66
     7
176
     1
 43
1.0
176
     1
 76
     1
176
     1
 77
     6
176
     1
 78
     2
176
     1
 67
     7
176
     1
 79
     5
176
     1
170
     0
176
     1
171
     0
176
     1
290
     0
176
     1
 93
       13
176
     1
 44
0.0
176
     1
173
     0
176
     1
  0
VISUALSTYLE
  5
2E
102
{ACAD_REACTORS
330
2A
102
}
330
2A
100
AcDbVisualStyle
  2
GouraudWithEdges
 70
     3
177
     2
291
     1
 71
     2
176
     1
 72
     2
176
     1
 73
     1
176
     1
 90
        2
176
     1
 40
-0.6
176
     1
 41
30.0
176
     1
 62
     5
 63
     7
421
 16777215
176
     1
 74
     1
176
     1
 91
        4
176
     1
 64
     7
176
     1
 65
   257
176
     1
 75
     1
176
     1
175
     1
176
     1
 42
1.0
176
     1
 92
        0
176
     1
 66
   257
176
     1
 43
1.0
176
     1
 76
     1
176
     1
 77
     6
176
     1
 78
     2
176
     1
 67
     7
176
     1
 79
     5
176
     1
170
     0
176
     1
171
     0
176
     1
290
     0
176
     1
 93
       13
176
     1
 44
0.0
176
     1
173
     0
176
     1
  0
VISUALSTYLE
  5
38
102
{ACAD_REACTORS
330
2A
102
}
330
2A
100
AcDbVisualStyle
  2
Linepattern
 70
    14
177
     2
291
     1
 71
     2
176
     1
 72
     2
176
     1
 73
     0
176
     1
 90
        0
176
     1
 40
-0.6
176
     1
 41
-30.0
176
     1
 62
     5
 63
     7
421
 16777215
176
     1
 74
     1
176
     1
 91
        4
176
     1
 64
     7
176
     1
 65
   257
176
     1
 75
     7
176
     1
175
     7
176
     1
 42
1.0
176
     1
 92
        8
176
     1
 66
     7
176
     1
 43
1.0
176
     1
 76
     1
176
     1
 77
     6
176
     1
 78
     2
176
     1
 67
     7
176
     1
 79
     5
176
     1
170
     0
176
     1
171
     0
176
     1
290
     0
176
     1
 93
        1
176
     1
 44
0.0
176
     1
173
     0
176
     1
  0
VISUALSTYLE
  5
33
102
{ACAD_REACTORS
330
2A
102
}
330
2A
100
AcDbVisualStyle
  2
Realistic
 70
     8
177
     2
291
     0
 71
     2
176
     1
 72
     2
176
     1
 73
     0
176
     1
 90
        0
176
     1
 40
-0.6
176
     1
 41
-30.0
176
     1
 62
     5
 63
     7
421
 16777215
176
     1
 74
     1
176
     1
 91
        0
176
     1
 64
     7
176
     1
 65
   257
176
     1
 75
     1
176
     1
175
     1
176
     1
 42
1.0
176
     1
 92
        8
176
     1
 66
     8
424
  7895160
176
     1
 43
1.0
176
     1
 76
     1
176
     1
 77
     6
176
     1
 78
     2
176
     1
 67
     7
176
     1
 79
     5
176
     1
170
     0
176
     1
171
     0
176
     1
290
     0
176
     1
 93
       13
176
     1
 44
0.0
176
     1
173
     0
176
     1
  0
VISUALSTYLE
  5
37
102
{ACAD_REACTORS
330
2A
102
}
330
2A
100
AcDbVisualStyle
  2
Thicken
 70
    13
177
     2
291
     1
 71
     2
176
     1
 72
     2
176
     1
 73
     0
176
     1
 90
        0
176
     1
 40
-0.6
176
     1
 41
-30.0
176
     1
 62
     5
 63
     7
421
 16777215
176
     1
 74
     1
176
     1
 91
        4
176
     1
 64
     7
176
     1
 65
   257
176
     1
 75
     1
176
     1
175
     1
176
     1
 42
1.0
176
     1
 92
       12
176
     1
 66
     7
176
     1
 43
1.0
176
     1
 76
     1
176
     1
 77
     6
176
     1
 78
     2
176
     1
 67
     7
176
     1
 79
     5
176
     1
170
     0
176
     1
171
     0
176
     1
290
     0
176
     1
 93
        1
176
     1
 44
0.0
176
     1
173
     0
176
     1
  0
ENDSEC
  0
EOF
