<svg id="Layer_1" data-name="Layer 1" xmlns="http://www.w3.org/2000/svg" viewBox="0 0 600 240"><defs><style>.cls-1{fill:#999;}</style></defs><title>96Partner</title><path d="M206.22,75c5.28-1.08,14.9-1.9,24.25-1.9,12.33,0,19.92,1.49,26.15,5.83A19.26,19.26,0,0,1,266.1,96c0,8.4-5.28,16.12-15.17,19.78V116c9.62,2.44,18.43,10,18.43,22.63a23.7,23.7,0,0,1-8.81,18.83c-6.5,5.69-17.21,8.54-33.87,8.54a161.75,161.75,0,0,1-20.46-1.22Zm16.53,36h8.53c11.52,0,18-5.42,18-13.14,0-8.54-6.5-12.47-17.07-12.47a45,45,0,0,0-9.48.68Zm0,42a73.7,73.7,0,0,0,8.81.41c10.7,0,20.18-4.07,20.18-15.31,0-10.57-9.21-14.91-20.73-14.91h-8.26Z"/><path d="M343.86,131.47c0,24.25-17.07,35.09-33.87,35.09-18.7,0-33.06-12.87-33.06-34,0-21.68,14.22-35,34.14-35C330.72,97.6,343.86,111.41,343.86,131.47Zm-49.73.67c0,12.74,6.24,22.36,16.4,22.36,9.48,0,16.12-9.35,16.12-22.63,0-10.29-4.61-22.08-16-22.08C298.88,109.79,294.13,121.17,294.13,132.14Z"/><path d="M392.11,165.07,391,157.75h-.4c-4.07,5.15-11,8.81-19.52,8.81-13.27,0-20.72-9.62-20.72-19.65,0-16.66,14.76-25.06,39.15-24.93V120.9c0-4.34-1.76-11.52-13.41-11.52a34.91,34.91,0,0,0-17.75,4.88l-3.25-10.84c4.88-3,13.41-5.82,23.84-5.82,21.14,0,27.24,13.41,27.24,27.77v23.85a107,107,0,0,0,.94,15.85ZM390,132.82c-11.79-.27-23,2.3-23,12.33,0,6.5,4.2,9.49,9.49,9.49a13.51,13.51,0,0,0,13-9.08,12.21,12.21,0,0,0,.54-3.66Z"/><path d="M420.53,120.36c0-9-.14-15.31-.55-21.27h14.5l.54,12.6h.54c3.26-9.35,11-14.09,18-14.09a17.53,17.53,0,0,1,3.93.4v15.72a23.15,23.15,0,0,0-4.87-.54c-8,0-13.42,5.14-14.91,12.6a28.69,28.69,0,0,0-.54,5.15v34.14H420.53Z"/><path d="M526.81,68.87v77.64c0,6.77.27,14.09.54,18.56h-14.9l-.68-10.43h-.27c-3.93,7.31-11.92,11.92-21.54,11.92-15.72,0-28.18-13.41-28.18-33.74-.14-22.08,13.68-35.22,29.53-35.22,9.08,0,15.59,3.79,18.57,8.67h.27V68.87Zm-16.66,57.72a23.62,23.62,0,0,0-.41-4.34c-1.49-6.5-6.77-11.78-14.36-11.78-10.7,0-16.67,9.48-16.67,21.81,0,12.06,6,20.87,16.53,20.87a14.71,14.71,0,0,0,14.37-11.79,18.86,18.86,0,0,0,.54-4.88Z"/><path d="M540.81,149.76a37.18,37.18,0,0,0,16.93,4.74c7.32,0,10.57-3,10.57-7.32s-2.71-6.77-10.84-9.62c-12.87-4.47-18.29-11.51-18.16-19.24,0-11.65,9.62-20.72,24.93-20.72a38.77,38.77,0,0,1,17.48,3.92l-3.25,11.79a29.68,29.68,0,0,0-14-3.79c-6,0-9.22,2.84-9.22,6.91s3.12,6.23,11.52,9.21c11.92,4.34,17.48,10.43,17.61,20.19,0,11.92-9.35,20.59-26.82,20.59-8,0-15.18-1.89-20.06-4.6Z"/><path d="M161.51,80.09c-8.2-7.07-19-11.51-32-13.18h-4.23L164,20H127.62L96.49,57.79c-2.53,3.11-4.86,5.81-7,8.65a53.4,53.4,0,0,1,20.56,12.7A54.75,54.75,0,0,1,121.14,95c.63-.05,1.25-.13,1.89-.13a22.38,22.38,0,0,1,22.23,22.2,21.18,21.18,0,0,1-6.62,15.55,21.51,21.51,0,0,1-13.73,6.41,68.57,68.57,0,0,1-5,13.73,122.22,122.22,0,0,1-9.84,16,60.26,60.26,0,0,0,12.29,1.23c15.31,0,28.12-4.84,38.07-14.4,10.41-10.27,15.7-24.24,15.7-41.5C176.15,99.79,171.36,88.65,161.51,80.09Z"/><path d="M86.17,120.72A16.52,16.52,0,0,0,81,108.51a16.72,16.72,0,0,0-10.34-5.09,61.11,61.11,0,0,0-1,11.15,64.58,64.58,0,0,0,3.86,22.91A17.25,17.25,0,0,0,81,132.94,16.54,16.54,0,0,0,86.17,120.72Z"/><path d="M106.71,82.35C96.88,72.63,84.3,67.69,69.34,67.69c-15.31,0-28.11,4.89-38.06,14.53-10.42,10.16-15.71,24-15.71,41.28,0,14.44,4.78,25.56,14.63,34,8.2,7.07,19,11.51,32.06,13.18l4.22.52-1.92,2.95L27.75,220H64.1l31.13-38.92c9.74-12,16.62-22.31,20.45-30.07a63,63,0,0,0,6.45-27.69C122.13,106.51,116.94,92.63,106.71,82.35ZM84.3,136.29a21.85,21.85,0,0,1-31.24,0,21.67,21.67,0,0,1,0-31.14,21.85,21.85,0,0,1,31.24,0,21.64,21.64,0,0,1,0,31.14Z"/><path class="cls-1" d="M206.17,172.7a52.44,52.44,0,0,1,8.64-.67c4.46,0,7.72,1,9.79,2.89a9.38,9.38,0,0,1,3.05,7.3,10.28,10.28,0,0,1-2.69,7.46c-2.38,2.54-6.26,3.83-10.66,3.83a15.5,15.5,0,0,1-3.63-.31v14h-4.5Zm4.5,16.83a15.63,15.63,0,0,0,3.73.36c5.44,0,8.75-2.64,8.75-7.46,0-4.61-3.26-6.83-8.23-6.83a18.82,18.82,0,0,0-4.25.36Z"/><path class="cls-1" d="M246.08,207.18l-.36-3.16h-.15a9.33,9.33,0,0,1-7.67,3.73c-5.07,0-7.66-3.57-7.66-7.2,0-6.05,5.39-9.37,15.07-9.32v-.51c0-2.08-.57-5.8-5.7-5.8a12.46,12.46,0,0,0-6.52,1.86l-1-3a15.54,15.54,0,0,1,8.24-2.23c7.66,0,9.52,5.23,9.52,10.25v9.37a34.33,34.33,0,0,0,.42,6Zm-.67-12.79c-5-.1-10.61.78-10.61,5.65a4,4,0,0,0,4.29,4.34,6.23,6.23,0,0,0,6.06-4.19,4.62,4.62,0,0,0,.26-1.45Z"/><path class="cls-1" d="M257.16,189.94c0-2.95-.05-5.49-.21-7.82h4l.15,4.92h.21c1.14-3.37,3.89-5.49,6.94-5.49a4.6,4.6,0,0,1,1.29.16V186a7,7,0,0,0-1.55-.15c-3.21,0-5.49,2.43-6.11,5.85a13.23,13.23,0,0,0-.21,2.12v13.36h-4.5Z"/><path class="cls-1" d="M280.82,174.92v7.2h6.52v3.47h-6.52V199.1c0,3.11.88,4.87,3.41,4.87a10.38,10.38,0,0,0,2.64-.31l.21,3.42a11.22,11.22,0,0,1-4,.62,6.34,6.34,0,0,1-4.92-1.92c-1.29-1.34-1.76-3.57-1.76-6.52V185.59h-3.88v-3.47h3.88v-6Z"/><path class="cls-1" d="M292.46,188.9c0-2.58,0-4.71-.2-6.78h4l.26,4.14h.11a9.21,9.21,0,0,1,8.28-4.71c3.47,0,8.85,2.07,8.85,10.67v15h-4.55V192.74c0-4-1.5-7.41-5.8-7.41a6.68,6.68,0,0,0-6.42,6.78v15.07h-4.56Z"/><path class="cls-1" d="M323.73,195.48c.1,6.16,4,8.7,8.59,8.7a16.37,16.37,0,0,0,6.94-1.3l.78,3.26a20.22,20.22,0,0,1-8.34,1.56c-7.71,0-12.32-5.08-12.32-12.64s4.45-13.51,11.75-13.51c8.18,0,10.36,7.2,10.36,11.81a15.56,15.56,0,0,1-.16,2.12Zm13.36-3.26c.05-2.9-1.19-7.41-6.32-7.41-4.61,0-6.62,4.25-7,7.41Z"/><path class="cls-1" d="M347.13,189.94c0-2.95-.05-5.49-.21-7.82h4l.15,4.92h.21c1.14-3.37,3.88-5.49,6.94-5.49a4.6,4.6,0,0,1,1.29.16V186a7,7,0,0,0-1.55-.15c-3.21,0-5.49,2.43-6.11,5.85a13.23,13.23,0,0,0-.21,2.12v13.36h-4.5Z"/></svg>